<?xml version="1.0" encoding="UTF-8"?>
<svg id="Layer_1" xmlns="http://www.w3.org/2000/svg" version="1.1" viewBox="0 0 1106.2483 130.5937">
  <!-- Generator: Adobe Illustrator 29.0.0, SVG Export Plug-In . SVG Version: 2.1.0 Build 186)  -->
  <defs>
    <style>
      .st0 {
        fill: #9ca3af;
      }

      .st1 {
        fill: #fa4616;
      }
    </style>
  </defs>
  <polygon class="st1" points="178.3339 4.8082 178.3339 128.8197 183.248 128.8197 183.248 4.8082 178.3339 4.8082 178.3339 4.8082"/>
  <g>
    <polygon class="st0" points="116.5355 92.6344 116.5355 65.5982 141.4482 65.5982 141.4482 47.7711 116.5355 47.7711 116.5355 22.5189 143.8872 22.5189 143.8872 32.3142 161.9291 32.3142 161.9291 4.8403 89.6902 4.8403 89.6902 22.5189 96.4566 22.5189 96.4566 92.6344 89.7166 92.6344 89.7166 110.4574 123.0566 110.4574 123.0566 92.6344 116.5355 92.6344 116.5355 92.6344"/>
    <path class="st0" d="M80.2928,70.5403V22.5148h6.6775V4.8403h-33.4164v17.6745h6.5169v42.0549c0,17.6264-2.039,26.096-14.6973,26.096s-14.6953-8.4696-14.6953-26.096V22.5148h6.4667V4.8403H3.6803v17.6745h6.6295v48.0255c0,10.4865,0,19.0845,4.948,26.807,5.5286,8.7428,15.5672,14.2955,30.1158,14.2955,25.7544,0,34.9193-13.4195,34.9193-41.1024h0Z"/>
  </g>
  <g>
    <path class="st0" d="M201.6883,45.8426v-1.5186c1.125-.5249,2.0435-1.0688,2.7563-1.6313.1123-.7876.2061-2.0625.2812-3.8252.1494-3.2246.2246-5.5688.2246-7.0312v-12.6562c0-.4873-.0278-2.3154-.084-5.4844-.0566-2.1187-.188-3.4121-.394-3.8809-.0938-.1875-.2344-.3281-.4219-.4219-.5063-.2251-1.856-.394-4.0498-.5063v-2.3906l6.5249.1406c1.2939.019,2.5312.0278,3.7124.0278,2.5688,0,5.4282-.0278,8.5781-.084l5.7095-.1406c.6748,0,2.0435.0376,4.106.1123.1875,0,.4966.0562.9282.1689l.1968.3652-.5342,4.0503c-.019.2812-.1123,1.6313-.2812,4.0498h-2.1938c-.0376-2.2119-.1221-3.5718-.2529-4.0781-.0752-.2622-.1875-.4497-.3374-.5625-.2441-.1685-.9941-.3184-2.25-.4497-1.8564-.2065-3.6753-.3096-5.4565-.3096-1.6689,0-3.375.0659-5.1187.1968-.2627,2.1191-.3936,4.8096-.3936,8.0718v5.7656c1.2749.0942,2.606.1406,3.9937.1406.4312,0,1.9873-.0371,4.6685-.1123,1.0127-.0186,1.6079-.0845,1.7861-.1968.1782-.1128.314-.3096.4077-.5908.2251-.7124.356-1.9028.394-3.5718h2.2778l-.1123,6.1875.1123,6.1592h-2.4185c.0181-2.1748-.1226-3.5156-.4219-4.022-.2251-.3745-.6284-.6089-1.2095-.7031-1.2939-.2061-2.9531-.3091-4.978-.3091-1.8188,0-3.3188.0562-4.5.1685v11.9253c0,1.3315.0278,2.4751.0845,3.4312,1.5186.1123,3.3184.1689,5.3999.1689,2.0249,0,3.895-.0654,5.6108-.1973,1.7153-.1309,2.77-.3184,3.1641-.5625.1309-.0747.2529-.2432.3657-.5059.3374-.9004.6934-2.606,1.0684-5.1191h2.3066c-.4126,3.7129-.6191,6.769-.6191,9.1689l-.3652.3657c-1.2002.1313-2.9067.1968-5.1191.1968l-4.5278-.0845c-4.4629-.0562-7.5376-.0845-9.2251-.0845-.4497,0-3.5815.0566-9.3936.1689Z"/>
    <path class="st0" d="M250.3308,43.5926v2.25c-2.3438-.1499-4.791-.2251-7.3403-.2251s-5.4189.0752-8.6064.2251v-2.2217c1.7812-.0566,2.8589-.1313,3.2344-.2251.2812-.0747.4922-.1831.6328-.3237s.2393-.3604.2954-.6606c.1309-.5625.2251-2.3345.2812-5.3159.0562-2.981.0845-5.625.0845-7.9312v-9.2812c0-2.9434-.0659-5.6343-.1973-8.0718-.0752-1.312-.1685-2.0903-.2812-2.3345-.0752-.1309-.1782-.2339-.3091-.3091-.2251-.1499-.5815-.2627-1.0688-.3374-.2812-.0376-1.125-.0845-2.5312-.1406v-2.0815c2.3247-.2432,4.1812-.5107,5.5688-.8013,1.3872-.2905,3.2529-.8018,5.5967-1.5332l.5908.3379-.2251,5.6812c-.0942,3.1875-.1504,7.0972-.1689,11.728v7.1997c0,2.7192.0186,4.7534.0566,6.1035.0747,3.3564.1309,5.3857.1685,6.0889s.103,1.1489.1968,1.3359c.0566.1313.1499.2441.2812.3374.1689.1313.4595.2349.8721.3096.1689.0376,1.125.103,2.8687.1968Z"/>
    <path class="st0" d="M277.5423,41.5115l-1.2378,2.7559c-1.5376.938-3.1216,1.6313-4.7529,2.0815-1.2192.3184-2.6064.478-4.1626.478-1.856,0-3.4922-.2158-4.9077-.647-1.416-.4312-2.6255-1.0215-3.6279-1.772-1.0034-.7495-1.8848-1.6685-2.644-2.7559s-1.3076-2.3438-1.645-3.769c-.3379-1.4248-.5063-2.981-.5063-4.6685,0-2.4561.3276-4.6499.9844-6.5815.4497-1.3496.9746-2.3247,1.5747-2.9248.375-.375,1.3501-1.0781,2.9253-2.1094,1.5747-1.0308,2.7183-1.7061,3.4312-2.0249,1.312-.5811,2.8589-.8721,4.6406-.8721,2.5122,0,4.5747.5254,6.1875,1.5752,1.6123,1.0503,2.7515,2.3906,3.417,4.022.6655,1.6309.9985,3.6094.9985,5.9341,0,.5254-.019,1.0312-.0562,1.5186-.4688.1504-1.1812.3193-2.1377.5063-1.2754.2441-2.1372.3755-2.5874.394-1.4062.1123-3.2622.1782-5.5688.1968-2.3062.019-3.5815.0376-3.8247.0562-.2441.019-.5161.0283-.8159.0283h-1.856c.1499,2.9624,1.0688,5.3013,2.7563,7.0171,1.6875,1.7153,3.7686,2.5732,6.2437,2.5732,1.0684,0,2.0527-.1167,2.9531-.3516.8999-.2339,2.0811-.7173,3.5435-1.4482l.6753.7876ZM270.8484,29.8675c.0747-2.981-.3281-5.0718-1.2095-6.2715-.8999-1.1816-2.0625-1.772-3.4873-1.772-1.4624,0-2.6719.6187-3.6284,1.856-.9751,1.2563-1.4248,3.3188-1.3496,6.1875,1.106.1689,2.9531.2534,5.5405.2534,1.6494,0,3.0278-.0845,4.1343-.2534Z"/>
    <path class="st0" d="M303.8816,42.1302l-1.2373,2.728c-1.6128.8066-2.9204,1.3359-3.9233,1.5889-1.0034.2534-2.208.3799-3.6143.3799-3.0752,0-5.5684-.6001-7.481-1.7998s-3.3657-2.9155-4.3594-5.147c-.7129-1.5752-1.0688-3.6748-1.0688-6.3003,0-1.9688.187-3.5811.5625-4.8374.375-1.2559.9092-2.3623,1.603-3.3184.4688-.6372,1.0972-1.2378,1.8843-1.8003l4.3315-2.728c1.4624-.9375,2.4653-1.5,3.0093-1.6875.8999-.3374,2.0718-.5063,3.5156-.5063,1.1997,0,2.3203.0986,3.3608.2954s2.0015.4922,2.8828.8857l.2812.4785-.7031,4.584c-.0562.4126-.1504,1.7065-.2812,3.8813h-2.1938c-.1123-1.6685-.2529-2.9062-.4219-3.7124-.3936-.6372-1.0029-1.1577-1.8281-1.561-.8252-.4028-1.8374-.6045-3.0371-.6045-1.4253,0-2.5596.2627-3.4033.7876s-1.4624,1.4062-1.8564,2.6436c-.3936,1.2373-.5903,2.7378-.5903,4.5,0,2.3623.4028,4.4766,1.2095,6.3423.8057,1.8657,1.8701,3.2344,3.1919,4.106,1.3218.8721,2.9482,1.3081,4.8799,1.3081.8809,0,1.7153-.0986,2.5029-.2954s1.5371-.4824,2.25-.8579l.5342.647Z"/>
    <path class="st0" d="M305.9495,24.4397v-1.2656l2.5312-1.6035c.4121-.2622.8057-.5435,1.1812-.8438v-3.7686c0-1.3501-.0752-3.0186-.2251-5.0063,1.8184-.5996,2.9995-1.0029,3.5439-1.2095.0933-.0371,1.2837-.5903,3.5718-1.6592l.731.5625-.2812,2.9248-.1968,3.2344-.2529,4.9219h.9282c2.4932,0,4.3774-.0933,5.6528-.2812l-.478,3.7969c-.2251.0381-.4316.0566-.6187.0566l-2.7563-.0566h-2.728v9.394c0,2.8877.0278,4.5938.0845,5.1187.0747.8813.3887,1.5703.9419,2.0669.5527.4971,1.3545.7456,2.4048.7456.6372.019,1.1484.0049,1.5327-.0425.3843-.0464.8765-.1357,1.4766-.2671l.4502,1.1533-1.0127,1.0122c-.8252.8438-1.5469,1.585-2.1655,2.2222-.7314.3184-1.3828.5293-1.9546.6328-.5723.1025-1.1582.1548-1.7578.1548-2.1753,0-3.8862-.5581-5.1328-1.6738-1.2471-1.1152-1.8706-2.5073-1.8706-4.1763l.1128-9.2812v-6.9468h-.7593c-1.0317,0-2.0161.0278-2.9531.0845Z"/>
    <path class="st0" d="M341.1487,43.677v2.1655c-2.1191-.0938-4.4819-.1406-7.0879-.1406-2.9062,0-5.9248.0469-9.0562.1406v-2.1655c1.4624,0,2.4751-.103,3.0376-.3096.2622-.0933.459-.2529.5908-.478.187-.356.29-1.0308.3091-2.0249l.1128-2.5034c.0181-.5244.0278-1.3779.0278-2.5591v-3.6846c0-1.6685-.0562-3.6934-.1685-6.0747-.0566-1.1997-.1362-1.8799-.2393-2.0391-.1035-.1592-.2671-.2764-.4922-.3516-.3564-.1309-1.416-.2251-3.1782-.2812v-2.1655c3.4126-.5811,5.6533-1.0127,6.7222-1.2939,1.0684-.2812,2.2778-.7314,3.6279-1.3501l.7593.3374-.0562,5.6816c1.2188-1.2563,2.1558-2.2969,2.8125-3.1221.9746-1.1626,1.7061-1.9028,2.1938-2.2217.6748-.4502,1.5649-.6753,2.6719-.6753.6934,0,1.3218.1128,1.8843.3374l-.1689,3.9941c-.0562,2.1753-.103,3.4219-.1406,3.7402l-1.1812.3657c-.4688-.6187-.9189-1.0498-1.3501-1.2935-.6938-.394-1.4531-.5908-2.2778-.5908-1.1064,0-2.0581.3423-2.855,1.0264-.7969.6851-1.2705,1.3833-1.4199,2.0952-.0752.4131-.1128,1.9971-.1128,4.7534v2.8125l.0562,3.8247c.0186,1.4443.0703,2.3301.1548,2.6582s.2764.5859.5767.7734c.2998.1875.9468.3188,1.9404.3936l2.3066.2251Z"/>
    <path class="st0" d="M347.0408,45.8426v-2.0811c2.1001-.1499,3.2998-.314,3.6001-.4922.2998-.1782.4873-.5107.5625-.9985.1875-1.0312.2812-3.6846.2812-7.9595,0-5.8687-.0845-9.2061-.2529-10.0122-.0752-.375-.1968-.6191-.3657-.7314-.3755-.2437-1.6504-.375-3.8252-.3936v-2.1377c2.8311-.2998,4.9688-.6187,6.4126-.9561,1.4438-.3379,3.0186-.853,4.7251-1.5469l.6748.3652c-.2246,2.9253-.3374,5.6724-.3374,8.2407v9.5625c0,3.2627.0747,5.1938.2251,5.7939.0747.3374.2251.5625.4502.6748.5059.2441,1.7339.4033,3.6841.478v2.1938c-2.6626-.0747-5.5596-.1123-8.6904-.1123-2.7002,0-5.0815.0376-7.144.1123ZM354.7474,5.1175c1.1997,0,2.2168.4219,3.0513,1.2656s1.252,1.8564,1.252,3.0376c0,1.2002-.4175,2.2222-1.252,3.0659s-1.8516,1.2656-3.0513,1.2656c-1.1812,0-2.1938-.4219-3.0376-1.2656s-1.2656-1.8657-1.2656-3.0659c0-1.1812.417-2.1938,1.2515-3.0376.834-.8438,1.8516-1.2656,3.0518-1.2656Z"/>
    <path class="st0" d="M387.9207,42.1302l-1.2363,2.728c-1.6133.8066-2.9219,1.3359-3.9233,1.5889-1.0039.2534-2.209.3799-3.6147.3799-3.0752,0-5.5684-.6001-7.481-1.7998s-3.3657-2.9155-4.3594-5.147c-.7129-1.5752-1.0688-3.6748-1.0688-6.3003,0-1.9688.187-3.5811.5625-4.8374.375-1.2559.9092-2.3623,1.603-3.3184.4688-.6372,1.0972-1.2378,1.8843-1.8003l4.3315-2.728c1.4624-.9375,2.4653-1.5,3.0093-1.6875.8999-.3374,2.0718-.5063,3.5161-.5063,1.1992,0,2.3198.0986,3.3608.2954,1.0391.1968,2,.4922,2.8828.8857l.2812.4785-.7031,4.584c-.0566.4126-.1504,1.7065-.2812,3.8813h-2.1953c-.1113-1.6685-.252-2.9062-.4219-3.7124-.3926-.6372-1.0015-1.1577-1.8276-1.561-.8242-.4028-1.8369-.6045-3.0366-.6045-1.4253,0-2.5596.2627-3.4033.7876s-1.4624,1.4062-1.8564,2.6436c-.3936,1.2373-.5903,2.7378-.5903,4.5,0,2.3623.4028,4.4766,1.2095,6.3423.8057,1.8657,1.8701,3.2344,3.1919,4.106,1.3218.8721,2.9482,1.3081,4.8799,1.3081.8804,0,1.7144-.0986,2.5034-.2954.7871-.1968,1.5371-.4824,2.25-.8579l.5332.647Z"/>
    <path class="st0" d="M416.1736,43.7332v2.1094c-2.1572-.0938-4.0693-.1406-5.7383-.1406-1.5742,0-3.1035.0469-4.584.1406l-.2529-.3096.2529-3.6841c-.6748.4316-2.6631,1.9126-5.9629,4.4438-.8438.187-1.6494.2812-2.418.2812-2.0439,0-3.6426-.6006-4.7959-1.8003s-1.7295-2.9248-1.7295-5.1748c0-1.519.2578-2.7656.7734-3.7407.5156-.9746,1.0684-1.6919,1.6592-2.1514s1.5049-.9048,2.7422-1.3359c2.9629-1.0498,6.2061-1.875,9.7314-2.4751.0371-2.231-.4219-3.9277-1.3779-5.0908-.9756-1.1621-2.457-1.7437-4.4443-1.7437-.8057,0-1.5742.1035-2.3057.3096-.3193.0938-.6943.2812-1.125.5625l-1.1816,2.8403-1.9121-.4219.1689-3.6279c1.3867-.9375,2.709-1.7529,3.9648-2.4468,1.2559-.6934,2.1377-1.1152,2.6445-1.2656.6934-.2061,1.668-.3096,2.9248-.3096,2.043,0,3.7266.2954,5.0479.8862,1.3223.5903,2.2969,1.2891,2.9258,2.0952.6279.8062,1.0586,1.6689,1.293,2.5874.2344.9189.3516,2.0811.3516,3.4873,0,.6006-.0469,2.1655-.1406,4.6968-.0557,1.6875-.084,3.0659-.084,4.1348,0,3.3374.0938,5.3623.2812,6.0747.0742.3374.2246.5625.4502.6753.2998.1499,1.2461.2812,2.8408.3936ZM405.8514,32.2581c-1.5938.3374-3.0518.7456-4.373,1.2236-1.3223.478-2.2363,1.0688-2.7422,1.772-.5068.7031-.7598,1.5889-.7598,2.6577,0,1.2002.3047,2.1284.9141,2.7842.6094.6567,1.4102.9844,2.4043.9844.8438,0,1.6924-.2432,2.5459-.731.8525-.4873,1.5225-1.1064,2.0107-1.8564v-6.8345Z"/>
    <path class="st0" d="M434.4129,43.5926v2.25c-2.3447-.1499-4.791-.2251-7.3408-.2251s-5.4189.0752-8.6064.2251v-2.2217c1.7812-.0566,2.8594-.1313,3.2344-.2251.2812-.0747.4922-.1831.6328-.3237s.2393-.3604.2949-.6606c.1309-.5625.2256-2.3345.2812-5.3159.0566-2.981.085-5.625.085-7.9312v-9.2812c0-2.9434-.0664-5.6343-.1973-8.0718-.0752-1.312-.1689-2.0903-.2812-2.3345-.0752-.1309-.1787-.2339-.3096-.3091-.2246-.1499-.5811-.2627-1.0684-.3374-.2812-.0376-1.125-.0845-2.5312-.1406v-2.0815c2.3242-.2432,4.1807-.5107,5.5684-.8013s3.2529-.8018,5.5977-1.5332l.5898.3379-.2246,5.6812c-.0938,3.1875-.1504,7.0972-.1689,11.728v7.1997c0,2.7192.0186,4.7534.0566,6.1035.0742,3.3564.1309,5.3857.1689,6.0889.0371.7031.1025,1.1489.1963,1.3359.0566.1313.1504.2441.2812.3374.1689.1313.459.2349.8721.3096.1689.0376,1.125.103,2.8691.1968Z"/>
    <path class="st0" d="M495.6414,38.699l.8154,1.8281c-.6006.5439-1.5146,1.4814-2.7422,2.8125-1.2285,1.3315-2.1055,2.334-2.6299,3.0093-1.3496.2998-2.4561.4497-3.3184.4497-1.6133,0-3.1035-.2437-4.4717-.731-1.9688-.6753-4.0127-1.7905-6.1318-3.3472-1.7256,1.3691-3.5488,2.3955-5.4697,3.0801-1.9229.6841-4.0928,1.0264-6.5117,1.0264-4.3125,0-7.584-1.167-9.8154-3.5015s-3.3467-4.9731-3.3467-7.9175c0-2.1558.5439-4.04,1.6309-5.6528,1.5-2.2124,3.9756-4.1343,7.4258-5.7656-.7129-1.5933-1.21-2.9717-1.4912-4.1343s-.4219-2.3438-.4219-3.5439c0-1.6313.3184-2.8125.9561-3.5435l2.7002-3.1221c1.2559-1.4624,2.1094-2.3154,2.5596-2.5596,1.5752-.8438,3.2246-1.2656,4.9502-1.2656,1.2744,0,2.4189.2534,3.4307.7598,1.0127.5059,1.7812,1.2471,2.3066,2.2217.5244.9751.7871,2.0532.7871,3.2344,0,1.6875-.5898,3.3989-1.7715,5.1328-1.1816,1.7344-3.6475,3.7734-7.3965,6.1172,1.7246,2.6064,3.6602,5.0952,5.8076,7.4673,2.1465,2.3721,4.2139,4.3076,6.2012,5.8076.6377-1.0498,1.0967-2.0015,1.3779-2.8545s.4219-1.7109.4219-2.5737c0-.6748-.0938-1.4014-.2812-2.1797-.1875-.7778-.459-1.4575-.8154-2.0391h-5.0625l-.2529-.3374c.3936-.6187.6846-1.106.8721-1.4624l.9561-2.0811c3.6377.0938,5.7656.1406,6.3848.1406,5.0996,0,9.0176-.1499,11.7559-.4502l.2529.2251c-.4121,1.1436-.6709,1.9502-.7734,2.4185-.1035.4692-.1826,1.0317-.2393,1.6875l-.2529.3096c-2.3438-.187-3.666-.2812-3.9658-.2812-.75-.0376-2.1748-.0747-4.2744-.1128.1865.9004.2812,1.6875.2812,2.3628,0,1.4062-.2773,2.7656-.8301,4.0781s-1.5605,2.8687-3.0234,4.6685c1.2754.9004,2.7188,1.5942,4.3311,2.0815,1.6123.4878,3.1406.731,4.585.731.4307,0,.7871-.042,1.0684-.1265s.6094-.2388.9844-.4639l2.4473-1.603ZM462.201,26.3802c-.9941.6001-1.7861,1.3735-2.377,2.3203s-.8857,2.0391-.8857,3.2764c0,1.8379.501,3.624,1.5049,5.3579,1.002,1.7344,2.2871,3.0752,3.8525,4.022s3.1738,1.4204,4.8232,1.4204c1.8936,0,3.7695-.6001,5.625-1.8003-2.7373-2.3062-5.0479-4.5562-6.9326-6.75-1.8838-2.1938-3.7549-4.8091-5.6104-7.8467ZM466.4754,20.9241c1.8184-1.2749,3.1543-2.5176,4.0078-3.7266.8535-1.2095,1.2803-2.4893,1.2803-3.8394,0-1.1997-.3379-2.1606-1.0127-2.8828-.6748-.7217-1.5186-1.0825-2.5312-1.0825-1.0693,0-1.9648.3843-2.6865,1.1528-.7217.769-1.082,1.8003-1.082,3.0938,0,2.0439.6748,4.4722,2.0244,7.2847Z"/>
    <path class="st0" d="M550.7107,40.7518l-1.293,2.8408c-2.3447,1.2373-4.4492,2.0859-6.3145,2.5454-1.8662.459-4.1953.689-6.9893.689-3.9746,0-7.4902-.6284-10.5469-1.8843-2.4004-1.0127-4.4346-2.353-6.1025-4.022-1.6689-1.6685-2.9531-3.478-3.8535-5.4282-1.3691-2.9434-2.0527-6.1401-2.0527-9.5903,0-5.9062,2.0195-10.73,6.0605-14.4702,4.04-3.7407,9.7451-5.6113,17.1143-5.6113,2.5312,0,4.8047.188,6.8203.5625,2.0156.3755,4.3545,1.041,7.0166,1.9971l.1406.3657c-.2998.8813-.5342,1.9873-.7031,3.3188-.2812,2.1187-.459,4.0781-.5342,5.8779h-2.1934c-.0381-2.0625-.1318-3.7124-.2812-4.9502-1.2568-1.312-2.668-2.292-4.2324-2.939-1.5664-.647-3.5684-.9702-6.0049-.9702-4.4062,0-7.9316,1.3921-10.5752,4.1768-2.6436,2.7842-3.9658,6.6704-3.9658,11.6577,0,3.019.4453,5.6528,1.3359,7.9028s2.0762,4.1113,3.5576,5.583c1.4814,1.4722,2.9717,2.5454,4.4727,3.2202,2.043.8999,4.5176,1.3501,7.4248,1.3501,1.9121,0,3.7217-.2153,5.4277-.647,1.7061-.4312,3.5625-1.1714,5.5684-2.2217l.7031.6465Z"/>
    <path class="st0" d="M554.0164,32.5677c0-3.1875.543-5.8262,1.6309-7.917,1.0869-2.0908,2.7188-3.6655,4.8936-4.7251,2.1748-1.0591,4.7061-1.5894,7.5938-1.5894,4.332,0,7.627,1.1348,9.8867,3.4033,2.2588,2.269,3.3887,5.5967,3.3887,9.9844,0,2.5312-.3281,4.7251-.9844,6.5811-.6562,1.8564-1.5381,3.3521-2.6436,4.4858-1.1064,1.1348-2.2695,1.9927-3.4873,2.5737-2.082.9746-4.4258,1.4624-7.0312,1.4624-4.2383,0-7.5059-1.2046-9.8018-3.6143-2.2969-2.4087-3.4453-5.9575-3.4453-10.645ZM561.8064,31.2176c0,4.9878.7314,8.541,2.1943,10.6592.9746,1.4062,2.3623,2.1094,4.1621,2.1094,1.5371,0,2.7568-.5342,3.6562-1.603,1.2002-1.4248,1.7998-4.1807,1.7998-8.2686,0-2.8687-.2383-5.3296-.7168-7.3828s-1.1816-3.4829-2.1094-4.2891-2.0488-1.2095-3.3613-1.2095c-1.125,0-2.1094.2954-2.9531.8862-.8438.5903-1.5,1.5845-1.9688,2.981-.4688,1.397-.7031,3.436-.7031,6.1172Z"/>
    <path class="st0" d="M584.8006,45.8426v-2.1655c1.4619,0,2.4746-.103,3.0371-.3096.2627-.0933.459-.2529.5908-.478.1865-.356.29-1.0308.3096-2.0249l.1123-2.5034c.0186-.5244.0283-1.3779.0283-2.5591v-3.6846c0-1.6685-.0566-3.6934-.1689-6.0747-.0566-1.1997-.1367-1.8799-.2393-2.0391-.1035-.1592-.2676-.2764-.4922-.3516-.3564-.1309-1.416-.2251-3.1777-.2812v-2.1655c3.4121-.5811,5.6523-1.0127,6.7217-1.2939,1.0684-.2812,2.2783-.7314,3.6279-1.3501l.7598.3374v4.5283l5.1182-4.1064c.5996-.2432,1.1113-.4077,1.5332-.4922.4219-.084.9883-.1265,1.7012-.1265,2.25,0,3.9521.3613,5.1045,1.083,1.1533.7217,2.1045,1.936,2.8555,3.6421l5.1182-4.1064c.5996-.2432,1.1113-.4077,1.5332-.4922.4219-.084.9883-.1265,1.7012-.1265,1.8564,0,3.2949.23,4.3174.689,1.0215.46,1.8701,1.083,2.5449,1.8706s1.1533,1.6313,1.4346,2.5312.4219,2.2876.4219,4.1621c0,2.063-.0186,3.4316-.0566,4.1064-.0186.2251-.0273.4971-.0273.8154v2.9253c0,3,.0508,4.9175.1543,5.7515.1025.8345.2812,1.3599.5342,1.5752.2529.2158.8115.3516,1.6738.4077.2998.019.8252.0659,1.5752.1406v2.1655c-2.5693-.1499-4.6875-.2251-6.3564-.2251-1.8945,0-3.5068.0752-4.8379.2251l-.3936-.5342.3379-5.0908c.0742-2.0625.1123-3.834.1123-5.3154v-2.1377c0-3.3374-.1504-5.4424-.4502-6.314-.2998-.8721-.8018-1.5562-1.5049-2.0532-.7031-.4966-1.5889-.7451-2.6572-.7451-1.2002,0-2.2217.3047-3.0654.9141s-1.3643,1.1626-1.5615,1.6592c-.1963.4971-.2861,1.4956-.2666,2.9951v6.8066l.0557,2.8125.0566,2.2778c.0186.6938.084,1.1724.1963,1.4346.1133.2627.2715.4595.4785.5903.1689.0942.5244.1787,1.0684.2534,1.0693.1313,1.8379.2251,2.3066.2812v2.1655c-1.6689-.0747-4.0693-.1123-7.2002-.1123-3.4873,0-6.0654.0376-7.7344.1123v-2.1655c.3564-.0562.8154-.1128,1.3779-.1689.8252-.0562,1.3457-.1548,1.5615-.2954.2148-.1406.3887-.4219.5205-.8438.1309-.4219.1963-1.4014.1963-2.939l.0566-4.978v-3.9937c0-1.9126-.1172-3.2671-.3516-4.064-.2354-.7969-.7129-1.4624-1.4346-1.9971-.7217-.5342-1.6553-.8013-2.7988-.8013-1.2559,0-2.3154.3188-3.1777.9561-.8623.6377-1.4062,1.2754-1.6309,1.9126-.1133.3564-.1602,1.8281-.1406,4.4155v4.9219c0,2.5312.0557,4.4717.168,5.8218.0381.7129.1309,1.1626.2812,1.3501s.4033.3281.7598.4219c.2627.0752,1.1338.1685,2.6152.2812v2.1655c-2.0244-.0747-4.4619-.1123-7.3125-.1123-3.2061,0-5.7471.0376-7.6211.1123Z"/>
    <path class="st0" d="M646.4353,45.6458v10.4062c0,.8623.085,1.4014.2539,1.6172.168.2153.4775.3701.9277.4639.1875.0376,1.4531.1499,3.7969.3374v2.2222l-8.916-.1968-7.3682.1968v-2.2222c1.7061,0,2.7559-.0752,3.1494-.2246.2256-.0752.4082-.2109.5488-.4082.1406-.1968.2295-.4355.2676-.7168.0928-.7505.1777-2.3628.2529-4.8379l.084-6.0469v-13.0215c0-2.3628-.0381-4.4297-.1123-6.2017-.0752-1.772-.207-2.8169-.3936-3.1357-.1318-.2065-.3281-.3608-.5908-.4644-.2627-.1025-1.332-.1641-3.2061-.1826v-2.1938c2.793-.2998,4.9023-.6187,6.3281-.9561,1.4248-.3379,2.8965-.8438,4.415-1.519l.6475.4219-.085,4.7251c.2812-.2251.75-.6089,1.4062-1.1533l2.8125-2.3062c.1875-.1685.4688-.4312.8438-.7876.7314-.2993,1.3457-.5015,1.8428-.6045.4961-.103,1.1855-.1548,2.0674-.1548,1.9863,0,3.5898.2812,4.8086.8438,1.7441.8066,3.1787,2.0581,4.3037,3.7549,1.125,1.6973,1.6875,3.7642,1.6875,6.2012,0,1.5381-.207,3.0659-.6191,4.5845-.4121,1.519-.877,2.728-1.3916,3.6284-.5166.8999-1.0645,1.6499-1.6455,2.25-.4316.4497-1.1582,1.0503-2.1797,1.7998-1.0225.75-1.9648,1.4814-2.8271,2.1938-.8623.7129-1.4814,1.1909-1.8555,1.4341-.6006.3755-1.1729.6372-1.7158.7876-.75.2251-1.6221.3374-2.6162.3374-.7871,0-1.5938-.0752-2.418-.2246-.8262-.1504-1.6602-.3657-2.5039-.647ZM646.4353,40.2459c.8623.8813,1.7627,1.5425,2.7002,1.9824.9375.4409,1.9131.6611,2.9248.6611,1.3506,0,2.5459-.3374,3.5859-1.0127,1.041-.6748,1.8564-1.8091,2.4473-3.4028s.8857-3.4312.8857-5.5127c0-1.3311-.1504-2.5918-.4502-3.7827-.2998-1.1904-.7129-2.1558-1.2373-2.897-.5254-.7402-1.2422-1.3589-2.1514-1.856-.9102-.4966-1.8984-.7456-2.9668-.7456-1.0322,0-2.0771.2632-3.1367.7876-1.0596.5254-1.9258,1.1909-2.6016,1.9971v13.7812Z"/>
    <path class="st0" d="M669.7937,23.2864v-2.1377c1.6123-.0933,3.2344-.3091,4.8662-.6465,1.6309-.3379,3.7217-.9375,6.2715-1.8003l.3936.3096c-.2627,3.7124-.3936,7.1436-.3936,10.2935v3.1499c0,2.6816.0654,4.4722.1973,5.3721.1865,1.1812.6367,2.0723,1.3496,2.6719.7129.6001,1.6592.8999,2.8408.8999,1.3496,0,2.4844-.3516,3.4033-1.0547.918-.7031,1.5557-1.4292,1.9121-2.1797.2256-.4873.3379-1.4995.3379-3.0376v-4.8091l-.0566-3.9937c0-1.2939-.084-2.0718-.2529-2.3345-.0938-.1689-.2812-.2998-.5625-.3936s-1.4248-.1973-3.4316-.3096v-2.1377c2.9062-.3745,4.8848-.6748,5.9346-.8999s2.8311-.7402,5.3438-1.5469l.5342.3096-.3086,5.1748c-.1504,3.6753-.2256,5.7285-.2256,6.1592v5.7656c0,3.4316.085,5.5503.2529,6.3564.0752.3374.2158.5723.4219.7031.3564.1875,1.5098.3281,3.46.4219v2.25l-5.7939-.1406-5.3154.1406-.1973-.2251.1689-2.1655c.0186-.356.0283-1.0781.0283-2.1655-.7314.5815-1.3691,1.1157-1.9131,1.603l-3.1777,3.0093c-1.2939.4688-2.5977.7031-3.9092.7031-2.5312,0-4.5195-.6938-5.9629-2.0811-1.4443-1.3872-2.165-3.2344-2.165-5.5405,0-.2812.0273-1.3223.084-3.1221.0186-.9561.0283-2.1938.0283-3.7124l-.0566-5.9346c0-1.0869-.0703-1.7622-.2109-2.0249-.1406-.2622-.3701-.459-.6885-.5903-.3193-.1313-1.3887-.2344-3.207-.3096Z"/>
    <path class="st0" d="M704.2058,24.4397v-1.2656l2.5312-1.6035c.4121-.2622.8057-.5435,1.1807-.8438v-3.7686c0-1.3501-.0752-3.0186-.2246-5.0063,1.8184-.5996,3-1.0029,3.5439-1.2095.0938-.0371,1.2842-.5903,3.5713-1.6592l.7314.5625-.2812,2.9248-.1963,3.2344-.2539,4.9219h.9287c2.4932,0,4.3779-.0933,5.6533-.2812l-.4785,3.7969c-.2246.0381-.4316.0566-.6191.0566l-2.7559-.0566h-2.7285v9.394c0,2.8877.0283,4.5938.085,5.1187.0742.8813.3887,1.5703.9424,2.0669.5527.4971,1.3535.7456,2.4043.7456.6367.019,1.1484.0049,1.5332-.0425.3838-.0464.876-.1357,1.4766-.2671l.4492,1.1533-1.0117,1.0122c-.8262.8438-1.5469,1.585-2.166,2.2222-.7314.3184-1.3828.5293-1.9551.6328-.5723.1025-1.1572.1548-1.7578.1548-2.1748,0-3.8857-.5581-5.1328-1.6738-1.2471-1.1152-1.8701-2.5073-1.8701-4.1763l.1123-9.2812v-6.9468h-.7588c-1.0312,0-2.0156.0278-2.9531.0845Z"/>
    <path class="st0" d="M747.617,41.5115l-1.2373,2.7559c-1.5371.938-3.1221,1.6313-4.7529,2.0815-1.2188.3184-2.6064.478-4.1621.478-1.8564,0-3.4932-.2158-4.9082-.647-1.416-.4312-2.625-1.0215-3.6279-1.772-1.0039-.7495-1.8848-1.6685-2.6436-2.7559-.7598-1.0874-1.3086-2.3438-1.6455-3.769-.3379-1.4248-.5068-2.981-.5068-4.6685,0-2.4561.3281-4.6499.9844-6.5815.4502-1.3496.9746-2.3247,1.5752-2.9248.375-.375,1.3506-1.0781,2.9248-2.1094,1.5752-1.0308,2.7188-1.7061,3.4316-2.0249,1.3125-.5811,2.8594-.8721,4.6406-.8721,2.5127,0,4.5742.5254,6.1875,1.5752,1.6123,1.0503,2.751,2.3906,3.417,4.022.665,1.6309.999,3.6094.999,5.9341,0,.5254-.0195,1.0312-.0566,1.5186-.4688.1504-1.1816.3193-2.1377.5063-1.2754.2441-2.1377.3755-2.5869.394-1.4062.1123-3.2627.1782-5.5693.1968-2.3057.019-3.5811.0376-3.8252.0562-.2432.019-.5156.0283-.8154.0283h-1.8564c.1504,2.9624,1.0693,5.3013,2.7568,7.0171,1.6875,1.7153,3.7686,2.5732,6.2432,2.5732,1.0693,0,2.0537-.1167,2.9531-.3516.9004-.2339,2.082-.7173,3.5439-1.4482l.6748.7876ZM740.9236,29.8675c.0742-2.981-.3281-5.0718-1.209-6.2715-.9004-1.1816-2.0635-1.772-3.4883-1.772-1.4619,0-2.6719.6187-3.6279,1.856-.9746,1.2563-1.4248,3.3188-1.3496,6.1875,1.1055.1689,2.9531.2534,5.54.2534,1.6504,0,3.0283-.0845,4.1348-.2534Z"/>
    <path class="st0" d="M767.6287,43.677v2.1655c-2.1191-.0938-4.4814-.1406-7.0879-.1406-2.9062,0-5.9248.0469-9.0557.1406v-2.1655c1.4619,0,2.4746-.103,3.0371-.3096.2627-.0933.459-.2529.5908-.478.1865-.356.29-1.0308.3096-2.0249l.1123-2.5034c.0186-.5244.0283-1.3779.0283-2.5591v-3.6846c0-1.6685-.0566-3.6934-.1689-6.0747-.0566-1.1997-.1367-1.8799-.2393-2.0391-.1035-.1592-.2676-.2764-.4922-.3516-.3564-.1309-1.416-.2251-3.1777-.2812v-2.1655c3.4121-.5811,5.6523-1.0127,6.7217-1.2939,1.0684-.2812,2.2783-.7314,3.6279-1.3501l.7598.3374-.0566,5.6816c1.2188-1.2563,2.1562-2.2969,2.8125-3.1221.9746-1.1626,1.7061-1.9028,2.1934-2.2217.6758-.4502,1.5654-.6753,2.6719-.6753.6934,0,1.3223.1128,1.8848.3374l-.1689,3.9941c-.0557,2.1753-.1035,3.4219-.1406,3.7402l-1.1807.3657c-.4697-.6187-.9189-1.0498-1.3506-1.2935-.6934-.394-1.4531-.5908-2.2783-.5908-1.1064,0-2.0576.3423-2.8545,1.0264-.7969.6851-1.2705,1.3833-1.4199,2.0952-.0752.4131-.1123,1.9971-.1123,4.7534v2.8125l.0557,3.8247c.0186,1.4443.0703,2.3301.1553,2.6582.084.3281.2764.5859.5762.7734s.9463.3188,1.9404.3936l2.3066.2251Z"/>
    <path class="st0" d="M788.8641,45.8426v-1.5186c1.125-.5249,2.0439-1.0688,2.7568-1.6313.1123-.7876.2061-2.0625.2812-3.8252.1494-3.2246.2246-5.5688.2246-7.0312v-12.6562c0-.4873-.0283-2.3154-.084-5.4844-.0566-2.1187-.1875-3.4121-.3936-3.8809-.0947-.1875-.2354-.3281-.4219-.4219-.5068-.2251-1.8564-.394-4.0508-.5063v-2.3906l6.5254.1406c1.2939.019,2.5312.0278,3.7129.0278,2.5684,0,5.4277-.0278,8.5781-.084l5.709-.1406c.6748,0,2.043.0376,4.1064.1123.1865,0,.4961.0562.9277.1689l.1973.3652-.5342,4.0503c-.0195.2812-.1133,1.6313-.2812,4.0498h-2.1943c-.0381-2.2119-.1221-3.5718-.2529-4.0781-.0752-.2622-.1875-.4497-.3379-.5625-.2432-.1685-.9941-.3184-2.25-.4497-1.8555-.2065-3.6748-.3096-5.4561-.3096-1.6689,0-3.375.0659-5.1182.1968-.2637,2.1191-.3945,4.8096-.3945,8.0718v5.7656c1.2754.0942,2.6064.1406,3.9941.1406.4307,0,1.9873-.0371,4.6689-.1123,1.0127-.0186,1.6074-.0845,1.7861-.1968.1777-.1128.3135-.3096.4072-.5908.2256-.7124.3564-1.9028.3936-3.5718h2.2783l-.1123,6.1875.1123,6.1592h-2.4189c.0186-2.1748-.1221-3.5156-.4219-4.022-.2246-.3745-.6279-.6089-1.209-.7031-1.2939-.2061-2.9531-.3091-4.9785-.3091-1.8184,0-3.3184.0562-4.5.1685v11.9253c0,1.3315.0283,2.4751.085,3.4312,1.5186.1123,3.3184.1689,5.3994.1689,2.0254,0,3.8955-.0654,5.6113-.1973,1.7158-.1309,2.7705-.3184,3.1641-.5625.1309-.0747.2529-.2432.3652-.5059.3379-.9004.6934-2.606,1.0693-5.1191h2.3057c-.4121,3.7129-.6182,6.769-.6182,9.1689l-.3662.3657c-1.2002.1313-2.9062.1968-5.1182.1968l-4.5283-.0845c-4.4629-.0562-7.5371-.0845-9.2246-.0845-.4502,0-3.582.0566-9.3945.1689Z"/>
    <path class="st0" d="M854.0164,43.677v2.1655c-2.5498-.1309-4.6309-.1968-6.2432-.1968-1.8564,0-3.4697.0659-4.8379.1968l-.5059-.5063c.0371-.3936.1582-2.0151.3652-4.8657l.1406-4.6123v-2.2217c0-3.2812-.127-5.4375-.3799-6.4688s-.7734-1.8608-1.5605-2.4893c-.7881-.6279-1.8379-.9419-3.1504-.9419s-2.4004.314-3.2627.9419c-.8623.6284-1.4062,1.2612-1.6309,1.8984-.1318.3755-.1875,1.875-.1689,4.5v4.7251c0,1.3687.0371,3.0469.1123,5.0342.0186.8818.0938,1.4624.2256,1.7437.0938.2065.2148.3564.3652.4502.2256.1504.665.291,1.3223.4219.2246.0376,1.0127.1123,2.3623.2251v2.1655c-2.0439-.0747-4.5469-.1123-7.5098-.1123-3.4307,0-6.0938.0376-7.9873.1123v-2.1655c1.4629,0,2.4756-.103,3.0381-.3096.2617-.0933.459-.2529.5898-.478.1875-.356.291-1.0308.3096-2.0249l.1123-2.5034c.0186-.5244.0283-1.3779.0283-2.5591v-3.6846c0-1.6685-.0557-3.6934-.1689-6.0747-.0557-1.1997-.1357-1.8799-.2383-2.0391-.1035-.1592-.2676-.2764-.4922-.3516-.3564-.1309-1.416-.2251-3.1787-.2812v-2.1655c3.4121-.5811,5.6533-1.0127,6.7217-1.2939,1.0693-.2812,2.2783-.7314,3.6289-1.3501l.7588.3374v4.5283l5.1191-4.1064c.6182-.2432,1.1387-.4077,1.5605-.4922.4219-.084,1.0078-.1265,1.7578-.1265,2.0059,0,3.5107.2251,4.5146.6753,1.002.4497,1.8506,1.0825,2.5449,1.8984.6934.8154,1.1816,1.6689,1.4629,2.5591.2812.8906.4219,2.2832.4219,4.1768,0,2.1372-.0195,3.4971-.0566,4.0781-.0186.2246-.0283.4971-.0283.8154l.0283,2.897c.0186,3.1689.0703,5.1284.1543,5.8779.085.7505.2539,1.2334.5068,1.4487.2529.2158.8105.3516,1.6729.4077.3193.019.8438.0659,1.5752.1406Z"/>
    <path class="st0" d="M860.1892,39.2894l3.9102-2.8403c-1.3887-.5063-2.499-1.0923-3.333-1.7578-.835-.6655-1.501-1.542-1.9971-2.6299-.4971-1.0874-.7451-2.2871-.7451-3.6001,0-1.7808.459-3.4453,1.3779-4.9922.918-1.5469,2.3574-2.7793,4.3174-3.6982,1.959-.9185,4.251-1.3779,6.876-1.3779,1.7627,0,3.3896.2017,4.8799.6045,1.4912.4033,2.7422.9985,3.7549,1.7861,1.0869.0562,1.8369.084,2.25.084.5625,0,2.0908-.0562,4.584-.1685l-.3936,3.4595h-4.4434c.2432.9375.3652,1.8467.3652,2.728,0,2.0063-.5342,3.7783-1.6025,5.3154-1.0693,1.5376-2.5742,2.7188-4.5146,3.5439s-3.998,1.2373-6.1729,1.2373c-.582,0-1.3975-.0464-2.4473-.1406-.5811.3374-1.0225.7363-1.3223,1.1953-.2998.4595-.4492.8857-.4492,1.2798,0,.3374.126.6562.3789.9561.2539.3003.6055.4971,1.0547.5908.6191.1313,2.166.1968,4.6406.1968l6.9189-.1689c2.0254,0,3.5908.2349,4.6973.7031,1.1055.4692,1.9307,1.1816,2.4746,2.1377s.8154,2.2217.8154,3.7969c0,2.3438-.5527,4.4624-1.6592,6.3564-1.1064,1.8936-2.7656,3.4497-4.9775,4.6685-2.7949,1.519-6.1221,2.2783-9.9844,2.2783-3.0381,0-5.5127-.4219-7.4258-1.2656-1.9121-.8438-3.2529-1.8472-4.0215-3.0093-.7695-1.1631-1.1533-2.4287-1.1533-3.7969,0-.7876.1221-1.5005.3662-2.1377.2432-.6377.5244-1.1157.8438-1.4346.3184-.3188.9463-.75,1.8838-1.2935,1.7998-1.0127,2.8027-1.5659,3.0098-1.6597-1.0127-.1123-1.9229-.478-2.7285-1.0967-.7314-.6748-1.0967-1.4434-1.0967-2.3062,0-.4688.0938-.9937.2812-1.5752.2627-.8247.5244-1.481.7871-1.9688ZM866.0682,46.5174c-1.5381.9751-2.5645,1.8706-3.0801,2.686-.5156.8159-.7734,1.73-.7734,2.7422,0,1.7061.6982,3.1313,2.0957,4.2749,1.3965,1.1436,3.4912,1.7158,6.2852,1.7158,2.9258,0,5.1611-.6846,6.708-2.0532s2.3203-3.1035,2.3203-5.2031c0-1.0122-.1543-1.7856-.4639-2.3203-.3096-.5342-.7451-.9561-1.3076-1.2656-.5625-.3091-1.3408-.4878-2.335-.5342-.9941-.0474-3.29-.0703-6.8906-.0703-.6562,0-1.5088.0093-2.5586.0278ZM865.0838,27.1678c0,2.5874.4492,4.4346,1.3496,5.5405.9004,1.1064,2.0713,1.6592,3.5156,1.6592,1.5938,0,2.8125-.647,3.6562-1.9404.5996-.9375.9004-2.3438.9004-4.2188,0-2.625-.4219-4.4624-1.2656-5.5127-.8438-1.0498-2.0166-1.5747-3.5156-1.5747-1.4258,0-2.5557.478-3.3896,1.4341-.834.9565-1.251,2.4941-1.251,4.6128Z"/>
    <path class="st0" d="M888.0203,45.8426v-2.0811c2.0996-.1499,3.2998-.314,3.6006-.4922.2988-.1782.4873-.5107.5625-.9985.1865-1.0312.2812-3.6846.2812-7.9595,0-5.8687-.085-9.2061-.2539-10.0122-.0752-.375-.1963-.6191-.3652-.7314-.375-.2437-1.6504-.375-3.8252-.3936v-2.1377c2.8311-.2998,4.9688-.6187,6.4131-.9561,1.4434-.3379,3.0186-.853,4.7246-1.5469l.6748.3652c-.2246,2.9253-.3369,5.6724-.3369,8.2407v9.5625c0,3.2627.0742,5.1938.2246,5.7939.0742.3374.2246.5625.4502.6748.5059.2441,1.7334.4033,3.6846.478v2.1938c-2.6631-.0747-5.5596-.1123-8.6914-.1123-2.6992,0-5.0811.0376-7.1436.1123ZM895.7264,5.1175c1.2002,0,2.2178.4219,3.0518,1.2656s1.252,1.8564,1.252,3.0376c0,1.2002-.418,2.2222-1.252,3.0659s-1.8516,1.2656-3.0518,1.2656c-1.1807,0-2.1934-.4219-3.0371-1.2656s-1.2656-1.8657-1.2656-3.0659c0-1.1812.417-2.1938,1.252-3.0376.834-.8438,1.8506-1.2656,3.0508-1.2656Z"/>
    <path class="st0" d="M938.6873,43.677v2.1655c-2.5498-.1309-4.6309-.1968-6.2432-.1968-1.8564,0-3.4697.0659-4.8379.1968l-.5059-.5063c.0371-.3936.1582-2.0151.3652-4.8657l.1406-4.6123v-2.2217c0-3.2812-.127-5.4375-.3799-6.4688s-.7734-1.8608-1.5605-2.4893c-.7881-.6279-1.8379-.9419-3.1504-.9419s-2.4004.314-3.2627.9419c-.8623.6284-1.4062,1.2612-1.6309,1.8984-.1318.3755-.1875,1.875-.1689,4.5v4.7251c0,1.3687.0371,3.0469.1123,5.0342.0186.8818.0938,1.4624.2256,1.7437.0938.2065.2148.3564.3652.4502.2256.1504.665.291,1.3223.4219.2246.0376,1.0127.1123,2.3623.2251v2.1655c-2.0439-.0747-4.5469-.1123-7.5098-.1123-3.4307,0-6.0938.0376-7.9873.1123v-2.1655c1.4629,0,2.4756-.103,3.0381-.3096.2617-.0933.459-.2529.5898-.478.1875-.356.291-1.0308.3096-2.0249l.1123-2.5034c.0186-.5244.0283-1.3779.0283-2.5591v-3.6846c0-1.6685-.0557-3.6934-.1689-6.0747-.0557-1.1997-.1357-1.8799-.2383-2.0391-.1035-.1592-.2676-.2764-.4922-.3516-.3564-.1309-1.416-.2251-3.1787-.2812v-2.1655c3.4121-.5811,5.6533-1.0127,6.7217-1.2939,1.0693-.2812,2.2783-.7314,3.6289-1.3501l.7588.3374v4.5283l5.1191-4.1064c.6182-.2432,1.1387-.4077,1.5605-.4922.4219-.084,1.0078-.1265,1.7578-.1265,2.0059,0,3.5107.2251,4.5146.6753,1.002.4497,1.8506,1.0825,2.5449,1.8984.6934.8154,1.1816,1.6689,1.4629,2.5591.2812.8906.4219,2.2832.4219,4.1768,0,2.1372-.0195,3.4971-.0566,4.0781-.0186.2246-.0283.4971-.0283.8154l.0283,2.897c.0186,3.1689.0703,5.1284.1543,5.8779.085.7505.2539,1.2334.5068,1.4487.2529.2158.8105.3516,1.6729.4077.3193.019.8438.0659,1.5752.1406Z"/>
    <path class="st0" d="M965.3924,41.5115l-1.2373,2.7559c-1.5371.938-3.1221,1.6313-4.7529,2.0815-1.2188.3184-2.6064.478-4.1621.478-1.8564,0-3.4932-.2158-4.9082-.647-1.416-.4312-2.625-1.0215-3.6279-1.772-1.0039-.7495-1.8848-1.6685-2.6436-2.7559-.7598-1.0874-1.3086-2.3438-1.6455-3.769-.3379-1.4248-.5068-2.981-.5068-4.6685,0-2.4561.3281-4.6499.9844-6.5815.4502-1.3496.9746-2.3247,1.5752-2.9248.375-.375,1.3506-1.0781,2.9248-2.1094,1.5752-1.0308,2.7188-1.7061,3.4316-2.0249,1.3125-.5811,2.8594-.8721,4.6406-.8721,2.5127,0,4.5742.5254,6.1875,1.5752,1.6123,1.0503,2.751,2.3906,3.417,4.022.665,1.6309.999,3.6094.999,5.9341,0,.5254-.0195,1.0312-.0566,1.5186-.4688.1504-1.1816.3193-2.1377.5063-1.2754.2441-2.1377.3755-2.5869.394-1.4062.1123-3.2627.1782-5.5693.1968-2.3057.019-3.5811.0376-3.8252.0562-.2432.019-.5156.0283-.8154.0283h-1.8564c.1504,2.9624,1.0693,5.3013,2.7568,7.0171,1.6875,1.7153,3.7686,2.5732,6.2432,2.5732,1.0693,0,2.0537-.1167,2.9531-.3516.9004-.2339,2.082-.7173,3.5439-1.4482l.6748.7876ZM958.699,29.8675c.0742-2.981-.3281-5.0718-1.209-6.2715-.9004-1.1816-2.0635-1.772-3.4883-1.772-1.4619,0-2.6719.6187-3.6279,1.856-.9746,1.2563-1.4248,3.3188-1.3496,6.1875,1.1055.1689,2.9531.2534,5.54.2534,1.6504,0,3.0283-.0845,4.1348-.2534Z"/>
    <path class="st0" d="M993.617,41.5115l-1.2373,2.7559c-1.5371.938-3.1221,1.6313-4.7529,2.0815-1.2188.3184-2.6064.478-4.1621.478-1.8564,0-3.4932-.2158-4.9082-.647-1.416-.4312-2.625-1.0215-3.6279-1.772-1.0039-.7495-1.8848-1.6685-2.6436-2.7559-.7598-1.0874-1.3086-2.3438-1.6455-3.769-.3379-1.4248-.5068-2.981-.5068-4.6685,0-2.4561.3281-4.6499.9844-6.5815.4502-1.3496.9746-2.3247,1.5752-2.9248.375-.375,1.3506-1.0781,2.9248-2.1094,1.5752-1.0308,2.7188-1.7061,3.4316-2.0249,1.3125-.5811,2.8594-.8721,4.6406-.8721,2.5127,0,4.5742.5254,6.1875,1.5752,1.6123,1.0503,2.751,2.3906,3.417,4.022.665,1.6309.999,3.6094.999,5.9341,0,.5254-.0195,1.0312-.0566,1.5186-.4688.1504-1.1816.3193-2.1377.5063-1.2754.2441-2.1377.3755-2.5869.394-1.4062.1123-3.2627.1782-5.5693.1968-2.3057.019-3.5811.0376-3.8252.0562-.2432.019-.5156.0283-.8154.0283h-1.8564c.1504,2.9624,1.0693,5.3013,2.7568,7.0171,1.6875,1.7153,3.7686,2.5732,6.2432,2.5732,1.0693,0,2.0537-.1167,2.9531-.3516.9004-.2339,2.082-.7173,3.5439-1.4482l.6748.7876ZM986.9236,29.8675c.0742-2.981-.3281-5.0718-1.209-6.2715-.9004-1.1816-2.0635-1.772-3.4883-1.772-1.4619,0-2.6719.6187-3.6279,1.856-.9746,1.2563-1.4248,3.3188-1.3496,6.1875,1.1055.1689,2.9531.2534,5.54.2534,1.6504,0,3.0283-.0845,4.1348-.2534Z"/>
    <path class="st0" d="M1013.6287,43.677v2.1655c-2.1191-.0938-4.4814-.1406-7.0879-.1406-2.9062,0-5.9248.0469-9.0557.1406v-2.1655c1.4619,0,2.4746-.103,3.0371-.3096.2627-.0933.459-.2529.5908-.478.1865-.356.29-1.0308.3096-2.0249l.1123-2.5034c.0186-.5244.0283-1.3779.0283-2.5591v-3.6846c0-1.6685-.0566-3.6934-.1689-6.0747-.0566-1.1997-.1367-1.8799-.2393-2.0391-.1035-.1592-.2676-.2764-.4922-.3516-.3564-.1309-1.416-.2251-3.1777-.2812v-2.1655c3.4121-.5811,5.6523-1.0127,6.7217-1.2939,1.0684-.2812,2.2783-.7314,3.6279-1.3501l.7598.3374-.0566,5.6816c1.2188-1.2563,2.1562-2.2969,2.8125-3.1221.9746-1.1626,1.7061-1.9028,2.1934-2.2217.6758-.4502,1.5654-.6753,2.6719-.6753.6934,0,1.3223.1128,1.8848.3374l-.1689,3.9941c-.0557,2.1753-.1035,3.4219-.1406,3.7402l-1.1807.3657c-.4697-.6187-.9189-1.0498-1.3506-1.2935-.6934-.394-1.4531-.5908-2.2783-.5908-1.1064,0-2.0576.3423-2.8545,1.0264-.7969.6851-1.2705,1.3833-1.4199,2.0952-.0752.4131-.1123,1.9971-.1123,4.7534v2.8125l.0557,3.8247c.0186,1.4443.0703,2.3301.1553,2.6582.084.3281.2764.5859.5762.7734s.9463.3188,1.9404.3936l2.3066.2251Z"/>
    <path class="st0" d="M1019.5213,45.8426v-2.0811c2.0996-.1499,3.2998-.314,3.6006-.4922.2988-.1782.4873-.5107.5625-.9985.1865-1.0312.2812-3.6846.2812-7.9595,0-5.8687-.085-9.2061-.2539-10.0122-.0752-.375-.1963-.6191-.3652-.7314-.375-.2437-1.6504-.375-3.8252-.3936v-2.1377c2.8311-.2998,4.9688-.6187,6.4131-.9561,1.4434-.3379,3.0186-.853,4.7246-1.5469l.6748.3652c-.2246,2.9253-.3369,5.6724-.3369,8.2407v9.5625c0,3.2627.0742,5.1938.2246,5.7939.0742.3374.2246.5625.4502.6748.5059.2441,1.7334.4033,3.6846.478v2.1938c-2.6631-.0747-5.5596-.1123-8.6914-.1123-2.6992,0-5.0811.0376-7.1436.1123ZM1027.2273,5.1175c1.2002,0,2.2178.4219,3.0518,1.2656s1.252,1.8564,1.252,3.0376c0,1.2002-.418,2.2222-1.252,3.0659s-1.8516,1.2656-3.0518,1.2656c-1.1807,0-2.1934-.4219-3.0371-1.2656s-1.2656-1.8657-1.2656-3.0659c0-1.1812.417-2.1938,1.252-3.0376.834-.8438,1.8506-1.2656,3.0508-1.2656Z"/>
    <path class="st0" d="M1070.1883,43.677v2.1655c-2.5498-.1309-4.6309-.1968-6.2432-.1968-1.8564,0-3.4697.0659-4.8379.1968l-.5059-.5063c.0371-.3936.1582-2.0151.3652-4.8657l.1406-4.6123v-2.2217c0-3.2812-.127-5.4375-.3799-6.4688s-.7734-1.8608-1.5605-2.4893c-.7881-.6279-1.8379-.9419-3.1504-.9419s-2.4004.314-3.2627.9419c-.8623.6284-1.4062,1.2612-1.6309,1.8984-.1318.3755-.1875,1.875-.1689,4.5v4.7251c0,1.3687.0371,3.0469.1123,5.0342.0186.8818.0938,1.4624.2256,1.7437.0938.2065.2148.3564.3652.4502.2256.1504.665.291,1.3223.4219.2246.0376,1.0127.1123,2.3623.2251v2.1655c-2.0439-.0747-4.5469-.1123-7.5098-.1123-3.4307,0-6.0938.0376-7.9873.1123v-2.1655c1.4629,0,2.4756-.103,3.0381-.3096.2617-.0933.459-.2529.5898-.478.1875-.356.291-1.0308.3096-2.0249l.1123-2.5034c.0186-.5244.0283-1.3779.0283-2.5591v-3.6846c0-1.6685-.0557-3.6934-.1689-6.0747-.0557-1.1997-.1357-1.8799-.2383-2.0391-.1035-.1592-.2676-.2764-.4922-.3516-.3564-.1309-1.416-.2251-3.1787-.2812v-2.1655c3.4121-.5811,5.6533-1.0127,6.7217-1.2939,1.0693-.2812,2.2783-.7314,3.6289-1.3501l.7588.3374v4.5283l5.1191-4.1064c.6182-.2432,1.1387-.4077,1.5605-.4922.4219-.084,1.0078-.1265,1.7578-.1265,2.0059,0,3.5107.2251,4.5146.6753,1.002.4497,1.8506,1.0825,2.5449,1.8984.6934.8154,1.1816,1.6689,1.4629,2.5591.2812.8906.4219,2.2832.4219,4.1768,0,2.1372-.0195,3.4971-.0566,4.0781-.0186.2246-.0283.4971-.0283.8154l.0283,2.897c.0186,3.1689.0703,5.1284.1543,5.8779.085.7505.2539,1.2334.5068,1.4487.2529.2158.8105.3516,1.6729.4077.3193.019.8438.0659,1.5752.1406Z"/>
    <path class="st0" d="M1076.3621,39.2894l3.9102-2.8403c-1.3887-.5063-2.499-1.0923-3.333-1.7578-.835-.6655-1.501-1.542-1.9971-2.6299-.4971-1.0874-.7451-2.2871-.7451-3.6001,0-1.7808.459-3.4453,1.3779-4.9922.918-1.5469,2.3574-2.7793,4.3174-3.6982,1.959-.9185,4.251-1.3779,6.876-1.3779,1.7627,0,3.3896.2017,4.8799.6045,1.4912.4033,2.7422.9985,3.7549,1.7861,1.0869.0562,1.8369.084,2.25.084.5625,0,2.0908-.0562,4.584-.1685l-.3936,3.4595h-4.4434c.2432.9375.3652,1.8467.3652,2.728,0,2.0063-.5342,3.7783-1.6025,5.3154-1.0693,1.5376-2.5742,2.7188-4.5146,3.5439s-3.998,1.2373-6.1729,1.2373c-.582,0-1.3975-.0464-2.4473-.1406-.5811.3374-1.0225.7363-1.3223,1.1953-.2998.4595-.4492.8857-.4492,1.2798,0,.3374.126.6562.3789.9561.2539.3003.6055.4971,1.0547.5908.6191.1313,2.166.1968,4.6406.1968l6.9189-.1689c2.0254,0,3.5908.2349,4.6973.7031,1.1055.4692,1.9307,1.1816,2.4746,2.1377s.8154,2.2217.8154,3.7969c0,2.3438-.5527,4.4624-1.6592,6.3564-1.1064,1.8936-2.7656,3.4497-4.9775,4.6685-2.7949,1.519-6.1221,2.2783-9.9844,2.2783-3.0381,0-5.5127-.4219-7.4258-1.2656-1.9121-.8438-3.2529-1.8472-4.0215-3.0093-.7695-1.1631-1.1533-2.4287-1.1533-3.7969,0-.7876.1221-1.5005.3662-2.1377.2432-.6377.5244-1.1157.8438-1.4346.3184-.3188.9463-.75,1.8838-1.2935,1.7998-1.0127,2.8027-1.5659,3.0098-1.6597-1.0127-.1123-1.9229-.478-2.7285-1.0967-.7314-.6748-1.0967-1.4434-1.0967-2.3062,0-.4688.0938-.9937.2812-1.5752.2627-.8247.5244-1.481.7871-1.9688ZM1082.241,46.5174c-1.5381.9751-2.5645,1.8706-3.0801,2.686-.5156.8159-.7734,1.73-.7734,2.7422,0,1.7061.6982,3.1313,2.0957,4.2749,1.3965,1.1436,3.4912,1.7158,6.2852,1.7158,2.9258,0,5.1611-.6846,6.708-2.0532s2.3203-3.1035,2.3203-5.2031c0-1.0122-.1543-1.7856-.4639-2.3203-.3096-.5342-.7451-.9561-1.3076-1.2656-.5625-.3091-1.3408-.4878-2.335-.5342-.9941-.0474-3.29-.0703-6.8906-.0703-.6562,0-1.5088.0093-2.5586.0278ZM1081.2566,27.1678c0,2.5874.4492,4.4346,1.3496,5.5405.9004,1.1064,2.0713,1.6592,3.5156,1.6592,1.5938,0,2.8125-.647,3.6562-1.9404.5996-.9375.9004-2.3438.9004-4.2188,0-2.625-.4219-4.4624-1.2656-5.5127-.8438-1.0498-2.0166-1.5747-3.5156-1.5747-1.4258,0-2.5557.478-3.3896,1.4341-.834.9565-1.251,2.4941-1.251,4.6128Z"/>
    <path class="st0" d="M199.4441,87.5271v-1.8345l7.1821.1328,2.9829-.0444,2.9834-.0659.8179-.0225v1.8345c-1.5913,0-2.6006.1401-3.0278.4199-.2207.1323-.3682.3901-.4419.7734-.2065.9136-.3091,2.9243-.3091,6.0327v5.1265l.022,2.5859c0,2.6958.0293,4.3608.0884,4.9941.1323,1.3848.4785,2.5005,1.0386,3.3477.5596.8472,1.418,1.5322,2.5742,2.0552,1.1567.5229,2.626.7847,4.4087.7847,2.0479,0,3.6797-.3501,4.895-1.0498s2.0806-1.6094,2.5962-2.729.7734-3.2485.7734-6.3867v-4.5078c0-3.8892-.0073-6.2612-.022-7.1157-.0439-1.856-.1475-2.9756-.3096-3.3589-.103-.2354-.2725-.4121-.5078-.5303-.4863-.2505-1.5469-.3979-3.1821-.4419v-1.8345c2.666.1035,4.25.1548,4.751.1548.1323,0,.3315-.0073.5967-.022l4.9058-.1328v1.8345c-1.3701,0-2.2319.1104-2.5854.3315-.1768.1177-.3203.3423-.4312.6738-.1104.3315-.2173,1.8232-.3203,4.4746-.103,2.6519-.1548,4.7441-.1548,6.2759v5.1934c0,1.3257-.0957,2.6958-.2871,4.1104-.1919,1.4141-.5786,2.6221-1.1602,3.624-.582,1.002-1.4033,1.9082-2.4639,2.7178-1.061.8105-2.3203,1.4219-3.7788,1.8345-1.4585.4121-3.1455.6187-5.0605.6187-2.2397,0-4.3311-.3022-6.2759-.9062-1.4146-.4419-2.5708-1.0347-3.4692-1.7788-.8989-.7437-1.584-1.5762-2.0552-2.4971-.4717-.9204-.7593-1.8081-.8618-2.6626-.0742-.5303-.1108-1.9595-.1108-4.2871l.0225-4.2427v-5.6133c0-2.0625-.0444-3.9185-.1328-5.5688-.0439-.6479-.1323-1.1191-.2651-1.4141-.0737-.1621-.2578-.3535-.5522-.5747l-2.873-.3091Z"/>
    <path class="st0" d="M235.1766,114.7298c1.7383-.0884,2.7329-.1689,2.9834-.2432.1621-.0586.2983-.1543.4087-.2871.1108-.1328.2026-.4048.2764-.8179.0884-.5596.1914-1.9146.3096-4.0659.0586-1.2227.0884-2.8135.0884-4.7729v-7.0938l-.0884-6.4307c-.0151-1.0752-.0591-1.7749-.1328-2.0991-.0737-.3237-.1807-.5635-.3203-.7183-.1401-.1548-.3721-.2764-.6963-.3647s-1.2671-.1841-2.8286-.2871v-1.8564c1.8711.0884,3.2485.1328,4.1323.1328l3.2046-.0664,2.0327-.0664c3.0347,3.9634,6.7104,8.5303,11.0273,13.7012,3.1079,3.7271,5.686,6.644,7.7344,8.751v-5.105c0-7.9258-.0889-12.5884-.2656-13.9883-.0586-.5444-.1914-.8984-.3975-1.0605-.3394-.2651-1.4883-.4121-3.4473-.4419v-1.8564c1.7969.0884,3.4473.1328,4.9497.1328,1.4585,0,3.3369-.0444,5.6353-.1328v1.8564c-1.7979.0444-2.8657.1768-3.2041.3979-.1182.0737-.1992.1841-.2432.3311-.2212.7373-.3647,2.4199-.4312,5.0498-.0664,2.6294-.0991,4.5708-.0991,5.8228,0,9.7969.0952,15.7417.2871,17.833l-.2871.1992c-1.2378-.2065-2.4971-.3979-3.7788-.5747-4.7588-5.3179-11.5059-13.3032-20.2422-23.9546v11.0049c0,2.2837.0444,4.6631.1328,7.1377.0586,1.7095.147,2.748.2651,3.1162.0586.1768.1582.3203.2983.4307.1396.1104.3867.188.7402.2319.9575.1182,1.6572.1768,2.0991.1768.0884,0,.2358-.0068.4419-.022v1.79c-2.7988-.0293-4.3901-.0444-4.7729-.0444-1.4292,0-3.3667.0444-5.812.1328v-1.8784Z"/>
    <path class="st0" d="M287.3064,85.6927v1.9448c-1.4883.0444-2.3721.0996-2.6519.1655-.2798.0664-.479.1475-.5967.2432-.1177.0962-.1987.2178-.2427.3647-.1035.2505-.1772.7295-.2212,1.4365-.0298.3833-.0518,1.105-.0664,2.1655-.0591,3.624-.0884,5.5762-.0884,5.856v8.9058l.0664,4.0439c0,1.5176.0737,2.5044.2212,2.9609.0586.2065.1577.3647.2979.4751s.3608.1987.6631.2651c.3018.0664,1.1748.1143,2.6187.1436v1.9448c-2.4014-.0884-4.9648-.1328-7.6899-.1328-2.3721,0-4.4858.0444-6.3423.1328v-1.9448c1.5322-.0586,2.416-.1104,2.6519-.1543.3091-.0591.519-.1401.6299-.2432.1104-.103.1802-.2212.21-.3535.0439-.1768.1025-.8691.1768-2.0776.1177-1.7676.1768-3.4028.1768-4.9058v-9.2368c0-2.9316-.0151-4.8174-.0444-5.6572-.0737-1.8706-.1621-3.042-.2651-3.5137-.0439-.1909-.1143-.3384-.21-.4419-.0957-.103-.2729-.188-.5303-.2539-.2578-.0664-1.1899-.1289-2.7954-.188v-1.9448c1.8564.0884,3.9849.1328,6.3862.1328,2.6963,0,5.2446-.0444,7.646-.1328Z"/>
    <path class="st0" d="M305.1619,116.763c-1.2524-3.0938-2.4531-6.0327-3.6021-8.8174l-3.1377-7.4912c-2.4609-5.8779-3.9746-9.3804-4.5415-10.5078-.5674-1.127-.998-1.771-1.2925-1.9336-.4419-.2354-1.356-.3677-2.7402-.3975v-1.9229c3.5356.1035,5.6865.1548,6.4526.1548l7.9331-.1548v1.9229c-1.2373.0146-2.1362.0884-2.6958.2207-.3242.0742-.5493.1807-.6743.3208s-.1875.3203-.1875.541c0,.4424.4858,1.8418,1.4585,4.1987.5596,1.3555.8579,2.0884.895,2.1987.0366.1108.0845.2471.1436.4092l5.5908,13.6343,4.9058-12.1538c.1177-.2798.6406-1.6719,1.5688-4.1768.6631-1.7676,1.0679-2.9536,1.2153-3.5576.0293-.1768.0444-.3535.0444-.5303,0-.2505-.041-.4385-.1216-.5635-.0811-.125-.188-.2173-.3203-.2764-.1035-.0444-.3687-.0811-.7959-.1104-.9575-.0884-1.7676-.1401-2.4307-.1548v-1.9229l5.6128.1328,4.7734-.1328v1.9229c-1.4292.1323-2.2617.2871-2.4971.4639-.3979.3096-1.2305,1.9814-2.4971,5.0166l-1.5688,3.668-2.9834,7.1157c-2.5342,6.0698-4.2505,10.3638-5.1489,12.8833h-3.3589Z"/>
    <path class="st0" d="M326.6634,116.6082v-1.1934c.8838-.4121,1.6055-.8398,2.1655-1.2817.0884-.6187.1616-1.6201.2207-3.0054.1182-2.5337.1768-4.3755.1768-5.5244v-9.9443c0-.3828-.022-1.8193-.0659-4.3091-.0444-1.6646-.1475-2.6812-.3096-3.0493-.0737-.1475-.1846-.2578-.3315-.3315-.3975-.1768-1.4585-.3096-3.1821-.3979v-1.8784l5.127.1108c1.0166.0146,1.9888.022,2.917.022,2.0181,0,4.2646-.022,6.7397-.0664l4.4858-.1104c.5303,0,1.606.0298,3.2266.0884.147,0,.3901.0439.729.1323l.1548.2876-.4199,3.1821c-.0146.2207-.0884,1.2817-.2207,3.1821h-1.7236c-.0298-1.7383-.0962-2.8066-.1992-3.2041-.0591-.2065-.1475-.354-.2651-.4424-.1914-.1323-.7808-.25-1.7676-.3535-1.4585-.1616-2.8877-.2432-4.2871-.2432-1.3115,0-2.6519.0522-4.022.1548-.2065,1.665-.3096,3.7788-.3096,6.3423v4.5303c1.002.0737,2.0479.1104,3.1382.1104.3389,0,1.5615-.0293,3.6685-.0884.7954-.0146,1.2627-.0664,1.4028-.1548s.2466-.2432.3208-.4639c.1768-.5596.2793-1.4951.3091-2.8066h1.79l-.0884,4.8618.0884,4.8394h-1.9004c.0146-1.709-.0962-2.7622-.3315-3.1602-.1768-.2944-.4937-.4785-.9502-.5522-1.0166-.1621-2.3203-.2432-3.9111-.2432-1.4292,0-2.6079.0444-3.5361.1328v9.3696c0,1.0459.0225,1.9443.0664,2.6958,1.1934.0884,2.6079.1323,4.2432.1323,1.5908,0,3.0605-.0513,4.4082-.1543,1.3481-.103,2.1768-.2505,2.4863-.4424.1025-.0586.1987-.1909.2871-.3975.2651-.707.5449-2.0479.8398-4.022h1.812c-.3242,2.917-.4863,5.3184-.4863,7.2041l-.2871.2871c-.9429.1035-2.2837.1548-4.022.1548l-3.5576-.0664c-3.5063-.0439-5.9224-.0664-7.2485-.0664-.3535,0-2.814.0444-7.3804.1328Z"/>
    <path class="st0" d="M353.4021,87.5271v-1.812c.3389,0,1.5171.0293,3.5356.0884.9868.0298,2.3867.0439,4.1987.0439,1.5469,0,2.8726-.0293,3.9775-.0884,1.8267-.0732,3.3369-.1104,4.5303-.1104,2.3125,0,4.0439.1655,5.1929.4971,1.1494.3315,2.1289,1.0205,2.9395,2.0664.8101,1.0459,1.2153,2.3203,1.2153,3.8228,0,1.7827-.5527,3.4033-1.6577,4.8618-1.1045,1.4585-2.8062,2.6152-5.1045,3.4692.3682.6631.7881,1.3408,1.2598,2.0332.4712.6924.7476,1.1123.8286,1.2593.0806.1475.1655.2876.2539.4199l3.4253,5.1489c.9136,1.3701,1.4067,2.1069,1.4805,2.21,1.1055,1.4731,1.7822,2.3423,2.0332,2.6074.25.2651.4932.4497.7295.5527.2354.103.6992.1621,1.3911.1768v1.834c-2.2681-.0586-3.9106-.0884-4.9272-.0884-1.1787,0-2.3496.0298-3.5132.0884-.0742-.3237-.251-.7437-.5308-1.2598l-4.729-7.8003c-1.3555-2.2393-2.5044-4-3.4473-5.2817-.4717-.6479-.9282-1.1343-1.3701-1.4585l.2432-.729c1.7681.0591,3.1011-.1216,4-.5415.8984-.4199,1.6572-1.1714,2.2759-2.2539.6187-1.083.9282-2.2944.9282-3.6353,0-1.3555-.3242-2.4824-.9722-3.3809-.6484-.8984-1.4512-1.5249-2.4087-1.8784-.6191-.2212-1.7236-.3315-3.3149-.3315-.707,0-1.4072.0591-2.0991.1768-.0444.5303-.0884,1.7236-.1328,3.5801-.0884,4.1689-.1323,6.9536-.1323,8.353,0,2.2095.022,4.5522.0659,7.0273.0591,3.0347.103,4.7583.1328,5.1709.0439.8252.125,1.3628.2432,1.6128.0586.1182.1543.2251.2871.3208s.3462.1733.6406.2319c.2949.0591,1.1494.103,2.5635.1323v1.9448c-2.519-.0884-5.0679-.1328-7.646-.1328-2.2979,0-4.4272.0444-6.3862.1328v-1.9448c1.6797-.0586,2.6738-.1396,2.9834-.2427.1768-.0444.3057-.1182.3867-.2212.0806-.103.1436-.3096.1875-.6187.103-.5747.1772-1.4438.2212-2.6079l.1768-6.4526v-8.1982l-.0884-4.6626c-.0298-1.8413-.1182-2.9463-.2651-3.3149-.0737-.1616-.1846-.2871-.3315-.3755-.3535-.1768-1.4438-.3237-3.2705-.4419Z"/>
    <path class="st0" d="M407.0555,93.7806h-1.8564c-.0293-1.7085-.1035-2.9165-.2207-3.624-.457-.6479-1.249-1.2227-2.376-1.7236-1.127-.5005-2.3896-.751-3.7891-.751-2.0039,0-3.5547.5044-4.6523,1.5137s-1.6465,2.1914-1.6465,3.5464c.0146.9727.1768,1.7607.4863,2.3647s.752,1.083,1.3262,1.4365,1.4219.6777,2.541.9722c.8545.1768,2.0439.3979,3.5693.6631,1.5244.2651,2.5156.4492,2.9717.5522,1.1934.3096,2.1582.6816,2.8955,1.1162.7363.4346,1.3213.9355,1.7568,1.5024.4336.5674.791,1.2817,1.0713,2.1436.2793.8618.4199,1.8306.4199,2.9058,0,1.8862-.3906,3.5435-1.1709,4.9722-.5898,1.0757-1.4072,2.0591-2.4531,2.9502-1.0459.8916-2.1211,1.5581-3.2266,2-1.7676.707-3.8887,1.0605-6.3643,1.0605-1.8115,0-3.4248-.1694-4.8389-.5083-1.415-.3389-2.9688-.9204-4.6631-1.7456.4561-1.6797.6924-4.2354.707-7.668h1.8564c-.0303,1.0605.0508,2.3789.2432,3.9556.5596.9136,1.5166,1.7163,2.8721,2.4087s2.8359,1.0386,4.4424,1.0386c1.3994,0,2.6475-.2466,3.7451-.7402s1.8936-1.1748,2.3867-2.0444c.4932-.8691.7402-1.856.7402-2.9609,0-.9282-.1729-1.7236-.5195-2.3867-.3457-.6631-.8877-1.1934-1.624-1.5908-.7363-.3979-2.0332-.8101-3.8887-1.2378-2.667-.5596-4.4199-.9648-5.2598-1.2153-1.2676-.3828-2.2871-.9355-3.0605-1.6572s-1.3516-1.5947-1.7344-2.6187c-.3838-1.0239-.5752-2.125-.5752-3.3037,0-1.6499.3467-3.1709,1.0391-4.5635.6924-1.3921,1.6055-2.4712,2.7402-3.2373,1.1338-.7656,2.416-1.3149,3.8447-1.646,1.4287-.3315,2.8955-.4976,4.3975-.4976,1.5615,0,3.0752.1401,4.541.4199,1.4658.2803,2.7363.6851,3.8125,1.2153l.1768.5303c-.207.958-.3574,1.897-.4531,2.8179s-.166,2.1323-.21,3.6348Z"/>
    <path class="st0" d="M427.1883,85.6927v1.9448c-1.4883.0444-2.3721.0996-2.6514.1655-.2803.0664-.4795.1475-.5967.2432-.1182.0962-.1992.2178-.2432.3647-.1035.2505-.1768.7295-.2217,1.4365-.0293.3833-.0518,1.105-.0654,2.1655-.0596,3.624-.0889,5.5762-.0889,5.856v8.9058l.0664,4.0439c0,1.5176.0732,2.5044.2207,2.9609.0586.2065.1582.3647.2988.4751.1396.1104.3604.1987.6631.2651.3018.0664,1.1738.1143,2.6182.1436v1.9448c-2.4014-.0884-4.9648-.1328-7.6904-.1328-2.3721,0-4.4854.0444-6.3418.1328v-1.9448c1.5322-.0586,2.416-.1104,2.6514-.1543.3096-.0591.5195-.1401.6299-.2432s.1807-.2212.21-.3535c.0449-.1768.1035-.8691.1768-2.0776.1182-1.7676.1768-3.4028.1768-4.9058v-9.2368c0-2.9316-.0146-4.8174-.0439-5.6572-.0742-1.8706-.1621-3.042-.2646-3.5137-.0449-.1909-.1152-.3384-.21-.4419-.0967-.103-.2734-.188-.5312-.2539-.2578-.0664-1.1895-.1289-2.7949-.188v-1.9448c1.8564.0884,3.9854.1328,6.3867.1328,2.6953,0,5.2441-.0444,7.6455-.1328Z"/>
    <path class="st0" d="M436.5799,116.6082v-1.812c1.7686-.0586,2.8174-.1768,3.1494-.3535.3311-.1768.5557-.4712.6738-.8838.1621-.6333.2432-2.5415.2432-5.7236v-13.2368c0-3.6094-.0225-5.6274-.0664-6.0547h-3.1602c-1.5908,0-2.9902.0518-4.1982.1543-.4863.0444-.7666.1035-.8398.1768-.1035.0884-.1914.3467-.2656.7734-.1914,1.0317-.3018,2.188-.3311,3.4697h-1.834c-.0596-3.02-.0967-4.7217-.1104-5.105-.0449-.6479-.1182-1.3477-.2217-2.0991l.1992-.2212c.6924.0742,1.4287.1255,2.21.1548,1.2666.0444,3.7051.0664,7.3145.0664h8.9277c3.7119,0,6.1943-.022,7.4473-.0664.6768-.0293,1.3623-.0806,2.0547-.1548l.2207.2212c-.1318.8989-.2139,1.687-.2432,2.3643-.0146.1182-.0439,1.7314-.0879,4.8398h-1.834c-.0303-1.1494-.126-2.2466-.2871-3.293-.0889-.5303-.1846-.8467-.2881-.9502-.0879-.0732-.3242-.125-.707-.1543-1.208-.1182-2.6592-.1768-4.3535-.1768h-3.1592c-.0449.5156-.0664,2.5337-.0664,6.0547v13.2368c0,3.1821.0801,5.0972.2432,5.7456.1025.3833.3232.6665.6621.8506.3389.1846,1.3926.3062,3.1602.3647v1.812c-2.8584-.1328-5.2666-.1987-7.2256-.1987-2.0918,0-4.501.0659-7.2266.1987Z"/>
    <path class="st0" d="M476.6658,100.366l2.7842-4.5078c.4717-.8101,1.8711-3.2778,4.1982-7.4028.8105-1.4146,1.3184-2.335,1.5254-2.7627h3.4688v.9946c-1.7822,2.4014-3.7051,5.2227-5.7676,8.4634-2.0625,3.2412-3.3359,5.3257-3.8223,6.2539-.3242.6338-.5381,1.186-.6416,1.6572-.0879.3394-.1318.8916-.1318,1.6577v3.7344c0,1.8711.0479,3.2339.1436,4.0884s.21,1.3701.3428,1.5469c.1318.1768.3535.3091.6621.3975.3096.0884,1.2822.1475,2.917.1768v1.9448c-2.8135-.0884-5.3555-.1328-7.623-.1328-2.21,0-4.4502.0444-6.7188.1328v-1.9448c1.6797-.0586,2.6631-.125,2.9502-.1987.2881-.0737.4863-.1841.5967-.3315.1104-.147.1885-.5889.2324-1.3257.0879-1.6797.1328-3.1084.1328-4.2871v-4.1987c0-.3389-.2803-1.0386-.8398-2.0991-1.3848-2.5337-2.8652-5.0308-4.4424-7.4912-1.2812-2.0034-2.4746-3.6094-3.5791-4.8174-.7373-.7959-1.2598-1.2744-1.5693-1.4365-.1914-.0884-.8398-.1328-1.9443-.1328v-1.6572l4.6846-.9282c.7959-.1768,1.6133-.3755,2.4531-.5967.8984.501,1.5537.9468,1.9668,1.3369.4121.3906.9795,1.1235,1.7012,2.1987,1.0752,1.5913,2.1436,3.4253,3.2041,5.5024,1.7236,3.3447,2.7627,5.3999,3.1162,6.1655Z"/>
    <path class="st0" d="M500.7322,110.3323c0-1.8267.3057-3.7271.918-5.7012.6104-1.9741,1.2705-3.3955,1.9775-4.2651.4414-.5449,1.2266-1.2632,2.3535-2.1543,1.127-.8916,2.3643-1.6279,3.7119-2.21,1.3486-.582,2.7812-.873,4.2988-.873,1.2666,0,2.4229.1919,3.4688.5747,1.0459.3833,1.834.8804,2.3652,1.4917.5303.6113.9199,1.3442,1.1709,2.1987.25.8545.376,1.79.376,2.8062,0,1.9302-.3213,3.8564-.9619,5.7788s-1.3809,3.3921-2.2207,4.4087c-.6045.707-1.5508,1.4917-2.8398,2.3535s-2.5264,1.5176-3.7119,1.9668c-1.1865.4492-2.5234.6738-4.0107.6738-1.7539,0-3.1426-.3096-4.166-.9282-1.0244-.6187-1.7344-1.4692-2.1328-2.5522-.3975-1.083-.5967-2.2725-.5967-3.5688ZM505.948,110.1556c0,1.812.3428,3.1084,1.0273,3.8892.6855.7812,1.6533,1.1714,2.9062,1.1714.8398,0,1.5645-.2026,2.1768-.6079.6104-.4048,1.1709-1.0605,1.6787-1.9668.5088-.9058.9766-2.1543,1.4033-3.7456.6191-2.3276.9287-4.5522.9287-6.6733,0-1.7974-.3574-3.0972-1.0723-3.9004-.7148-.8027-1.6465-1.2046-2.7949-1.2046-1.1787,0-2.1885.4385-3.0273,1.3149-.8398.877-1.5879,2.5449-2.2432,5.0054-.6562,2.4604-.9834,4.6997-.9834,6.7178Z"/>
    <path class="st0" d="M525.8807,98.2669l.1992-1.127c.4707-.1772,1.1924-.4014,2.165-.6743.9727-.2725,1.7676-.5483,2.3867-.8286.0732-.2207.1689-.6113.2871-1.1714.2803-1.2666.5449-2.1357.7959-2.6074.3975-.7363,1.0088-1.4951,1.834-2.2759,1.2812-1.1934,2.707-2.3569,4.2764-3.4917,1.5684-1.1343,2.5996-1.8081,3.0938-2.022.4932-.2134,1.1895-.3203,2.0879-.3203.5889,0,1.1934.1182,1.8115.3535-.5889,1.9888-1.0088,3.8672-1.2588,5.6348l-.6631.1328c-.6191-.9282-1.2236-1.5835-1.8125-1.9668-.5889-.3828-1.1191-.5747-1.5908-.5747-.3682,0-.7217.1035-1.0605.3096-.3389.2065-.6074.4863-.8066.8398s-.4014.8984-.6074,1.6353c-.5303,1.9595-.9658,3.9189-1.3037,5.8779h.5078c.3975.0151,1.3848-.0293,2.9609-.1323.958-.0591,1.6719-.1328,2.1436-.2212l.2207.3535c-.3086.7954-.5371,1.5547-.6846,2.2764-.6924-.0146-1.8271-.0225-3.4033-.0225-.9873,0-1.7236.0078-2.21.0225l-2.4521,10.6289c-1.1797,4.7588-2.1846,8.1948-3.0166,10.3091-.833,2.1133-1.9453,3.9775-3.3369,5.5908-1.3926,1.6133-2.8027,2.7949-4.2314,3.5469-.752.3975-1.4736.5967-2.166.5967-.5156,0-1.0752-.126-1.6797-.376.4131-1.0908.7188-1.9707.917-2.6406.1992-.6709.3799-1.4033.542-2.1992l.707-.1318c.3096.707.6445,1.2148,1.0049,1.5244.3613.3096.7627.4639,1.2051.4639.4268,0,.8213-.1357,1.1816-.4082.3613-.2734.6738-.7627.9395-1.4697.5156-1.4141,1.1934-4.3833,2.0332-8.9058l3.2041-16.5293c-.8838-.0146-1.8486-.0225-2.8945-.0225-.5312,0-.9727.0078-1.3262.0225Z"/>
    <path class="st0" d="M574.2068,105.8685h-1.7686c-.0439-1.8413-.1689-2.9536-.375-3.3369-.1035-.1909-.3691-.3315-.7959-.4199-1.0908-.1909-2.8145-.2871-5.1709-.2871-.3389,0-.9277.0078-1.7676.022v2.4531c0,3.4912.04,5.9409.1211,7.3477s.1953,2.2285.3428,2.4639c.1025.1621.2871.291.5527.3867.2646.0962,1.4209.2173,3.4688.3647v1.7456l-8.6621-.1548c-1.252,0-3.2344.0518-5.9443.1548v-1.834c1.6934-.0293,2.6738-.0957,2.9385-.1992.1328-.0439.2432-.125.332-.2427.1328-.1772.2354-.5601.3096-1.1494.0439-.3389.1025-1.4033.1768-3.1929.0732-1.79.1104-3.0752.1104-3.8564v-9.1484c0-.2061-.0664-2.2686-.1992-6.1875-.0293-1.1343-.1104-1.937-.2432-2.4087-.0439-.1621-.1143-.2837-.21-.3647-.0957-.0806-.3018-.1582-.6182-.2319-.3174-.0737-1.1826-.1548-2.5967-.2432v-1.8564l7.8447.1328,10.6289-.1768c1.4883,0,2.8955.0737,4.2207.2207l.1992.3096c-.1621.8398-.3018,1.9082-.4199,3.2041-.1182,1.2969-.1846,2.4312-.1992,3.4033h-1.8115c0-.3535-.0371-1.1489-.1104-2.3867-.0303-.6479-.0742-1.0386-.1328-1.1709-.0439-.103-.1104-.1772-.1992-.2212-.2646-.1768-.8799-.3496-1.8447-.5195-.9648-.1689-2.0957-.2539-3.3926-.2539-.25,0-.9463.022-2.0879.0664-1.1416.0439-1.9189.0811-2.3311.1104-.1631,1.4731-.2432,4.1323-.2432,7.9775v3.0938c1.8857.0591,3.1602.0884,3.8223.0884,1.915,0,3.123-.0884,3.625-.2651.1904-.0586.3311-.2285.4189-.5083.1328-.3682.2139-1.208.2432-2.519h1.9229c-.1035,2.5044-.1543,5.7012-.1543,9.5903Z"/>
    <path class="st0" d="M580.9685,116.6082v-1.127c.3828-.1621.9209-.4492,1.6133-.8618.3096-.1768.5078-.3237.5967-.4419.0586-.0737.0957-.1548.1104-.2432.0732-.3682.1396-1.6831.1992-3.9443.0586-2.2617.0879-4.9756.0879-8.1436,0-4.6548-.0146-7.5278-.0439-8.6182-.0586-2.7695-.1543-4.3535-.2871-4.751-.0596-.1768-.1699-.3096-.332-.3979-.3389-.2207-1.4658-.3682-3.3809-.4419v-1.9448c1.8711.0884,4.0068.1328,6.4092.1328,2.6807,0,5.2217-.0444,7.623-.1328v1.9448c-1.665.0737-2.6807.2065-3.0488.3979-.1631.0884-.2803.2319-.3535.4307-.0742.1987-.1445,1.1089-.21,2.729-.0664,1.6211-.0996,3.6685-.0996,6.1436,0,.2651.0068,2.394.0215,6.3862.0146,2.1069.0264,4.1953.0332,6.2651.0078,2.0698.0186,3.3257.0332,3.7676,2.0332.0884,3.418.1323,4.1543.1323,2.2393,0,4.1914-.1323,5.8564-.3975.6035-.0884.9648-.1841,1.083-.2876.1172-.1025.2432-.3755.375-.8174.2949-1.1196.582-2.4014.8623-3.8452h1.834c-.0439.4126-.0664.6558-.0664.7295l-.5518,4.4639c-.1182,1.3994-.1846,2.2393-.1992,2.519-.4277.1182-.8545.1987-1.2822.2432-.8984.0737-2.29.1104-4.1758.1104-.2656,0-1.9971-.0366-5.1934-.1104-2.4307-.0586-4.125-.0884-5.083-.0884-1.4434,0-3.6387.0659-6.585.1987Z"/>
    <path class="st0" d="M606.1619,101.5149c0-2.6958.4092-5.0454,1.2266-7.0493.8174-2.0029,1.9844-3.7046,3.502-5.1045,1.5176-1.3994,3.168-2.4087,4.9502-3.0273,2.2832-.7808,4.7734-1.1714,7.4697-1.1714,2.6807,0,5.1113.376,7.292,1.127,1.6201.5747,3.0527,1.4033,4.2979,2.4863,1.2451,1.0825,2.1914,2.1914,2.8398,3.3257.6484,1.1348,1.1377,2.3794,1.4697,3.7344.3311,1.356.4971,2.8511.4971,4.4863,0,2.7695-.4785,5.3403-1.4365,7.7119-.707,1.7681-1.7422,3.3369-3.1045,4.707-1.3633,1.3701-2.9141,2.4233-4.6514,3.1602-2.3867.9868-5.1123,1.4805-8.1768,1.4805-3.3145,0-6.1621-.6006-8.541-1.8008-2.3789-1.2007-4.2471-2.9727-5.6016-5.3149-1.3555-2.3423-2.0332-5.2593-2.0332-8.751ZM612.9676,100.2112c0,3.4331.4717,6.2725,1.415,8.519.9424,2.2466,2.1504,3.834,3.624,4.7622,1.4727.9282,3.2109,1.3921,5.2148,1.3921,1.8564,0,3.5176-.4419,4.9834-1.3257,1.4658-.8843,2.6143-2.3794,3.4473-4.4863.832-2.1064,1.248-4.6626,1.248-7.668,0-2.0625-.2246-3.9478-.6738-5.6572-.4492-1.7085-1.0938-3.1631-1.9336-4.3643-.8398-1.2007-1.8301-2.1177-2.9717-2.751-1.1426-.6333-2.6562-.9502-4.541-.9502-2.1514,0-3.9814.5044-5.4922,1.5137-1.5098,1.0093-2.6074,2.5005-3.292,4.4746-.6855,1.9746-1.0283,4.1548-1.0283,6.541Z"/>
    <path class="st0" d="M640.5721,87.5271v-1.812c.3379,0,1.5166.0293,3.5352.0884.9873.0298,2.3867.0439,4.1992.0439,1.5469,0,2.8721-.0293,3.9775-.0884,1.8262-.0732,3.3369-.1104,4.5293-.1104,2.3135,0,4.0449.1655,5.1934.4971,1.1494.3315,2.1289,1.0205,2.9395,2.0664.8096,1.0459,1.2148,2.3203,1.2148,3.8228,0,1.7827-.5518,3.4033-1.6572,4.8618-1.1045,1.4585-2.8066,2.6152-5.1045,3.4692.3682.6631.7881,1.3408,1.2598,2.0332.4707.6924.7471,1.1123.8281,1.2593.0811.1475.166.2876.2549.4199l3.4248,5.1489c.9131,1.3701,1.4072,2.1069,1.4805,2.21,1.1055,1.4731,1.7822,2.3423,2.0332,2.6074.25.2651.4932.4497.7295.5527.2354.103.6992.1621,1.3916.1768v1.834c-2.2686-.0586-3.9111-.0884-4.9277-.0884-1.1787,0-2.3496.0298-3.5137.0884-.0732-.3237-.25-.7437-.5303-1.2598l-4.7285-7.8003c-1.3555-2.2393-2.5049-4-3.4473-5.2817-.4717-.6479-.9287-1.1343-1.3701-1.4585l.2432-.729c1.7676.0591,3.1006-.1216,3.999-.5415s1.6572-1.1714,2.2764-2.2539c.6191-1.083.9277-2.2944.9277-3.6353,0-1.3555-.3242-2.4824-.9717-3.3809-.6484-.8984-1.4512-1.5249-2.4092-1.8784-.6182-.2212-1.7236-.3315-3.3145-.3315-.707,0-1.4072.0591-2.0996.1768-.0439.5303-.0879,1.7236-.1318,3.5801-.0889,4.1689-.1328,6.9536-.1328,8.353,0,2.2095.0215,4.5522.0664,7.0273.0586,3.0347.1025,4.7583.1318,5.1709.0449.8252.125,1.3628.2432,1.6128.0586.1182.1553.2251.2881.3208.1318.0957.3457.1733.6406.2319.2939.0591,1.1484.103,2.5635.1323v1.9448c-2.5195-.0884-5.0684-.1328-7.6465-.1328-2.2979,0-4.4268.0444-6.3857.1328v-1.9448c1.6787-.0586,2.6738-.1396,2.9824-.2427.1768-.0444.3057-.1182.3867-.2212s.1436-.3096.1885-.6187c.1025-.5747.1768-1.4438.2207-2.6079l.1768-6.4526v-8.1982l-.0879-4.6626c-.0303-1.8413-.1182-2.9463-.2656-3.3149-.0742-.1616-.1846-.2871-.3311-.3755-.3535-.1768-1.4443-.3237-3.2705-.4419Z"/>
    <path class="st0" d="M687.6189,85.6927v1.9448c-1.4883.0444-2.3721.0996-2.6514.1655-.2803.0664-.4795.1475-.5967.2432-.1182.0962-.1992.2178-.2432.3647-.1035.2505-.1768.7295-.2217,1.4365-.0293.3833-.0518,1.105-.0654,2.1655-.0596,3.624-.0889,5.5762-.0889,5.856v8.9058l.0664,4.0439c0,1.5176.0732,2.5044.2207,2.9609.0586.2065.1582.3647.2988.4751.1396.1104.3604.1987.6631.2651.3018.0664,1.1738.1143,2.6182.1436v1.9448c-2.4014-.0884-4.9648-.1328-7.6904-.1328-2.3721,0-4.4854.0444-6.3418.1328v-1.9448c1.5322-.0586,2.416-.1104,2.6514-.1543.3096-.0591.5195-.1401.6299-.2432s.1807-.2212.21-.3535c.0449-.1768.1035-.8691.1768-2.0776.1182-1.7676.1768-3.4028.1768-4.9058v-9.2368c0-2.9316-.0146-4.8174-.0439-5.6572-.0742-1.8706-.1621-3.042-.2646-3.5137-.0449-.1909-.1152-.3384-.21-.4419-.0967-.103-.2734-.188-.5312-.2539-.2578-.0664-1.1895-.1289-2.7949-.188v-1.9448c1.8564.0884,3.9854.1328,6.3867.1328,2.6953,0,5.2441-.0444,7.6455-.1328Z"/>
    <path class="st0" d="M691.95,116.6082v-1.0605c.1182-.0737.3242-.1914.6191-.3535.5596-.3096,1.0752-.6333,1.5469-.9727.1621-1.9736.2432-5.1782.2432-9.6128v-3.624c0-1.9443-.0371-4.7949-.1104-8.5518-.0449-2.0771-.1406-3.4033-.2871-3.9775-.0449-.1328-.1035-.2358-.1768-.3096-.1182-.1177-.3027-.2061-.5527-.2651-.251-.0586-1.1787-.1914-2.7842-.3979v-1.79l8.0215.1328c.9424,0,2.7178-.0366,5.3252-.1104,1.8857-.0444,3.3955-.0664,4.5303-.0664,2.6074,0,4.6963.1582,6.2646.4751,1.5693.3169,2.9355.8252,4.0996,1.5249,1.1631.6997,2.1465,1.5283,2.9502,2.4858.8027.958,1.4102,1.9888,1.8232,3.0938.6924,1.8564,1.0381,3.8892,1.0381,6.0991,0,2.814-.5156,5.3257-1.5469,7.5356-1.0312,2.2095-2.4492,4.0586-4.2539,5.5464-1.8047,1.4883-3.7607,2.5601-5.8672,3.2153-2.1064.6558-4.6475.9834-7.624.9834l-6.5625-.1328-6.6963.1328ZM700.7898,113.9124c1.3701.2065,2.6807.3091,3.9336.3091,1.959,0,3.6973-.2061,5.2148-.6187,1.1191-.3096,2.0996-.7588,2.9395-1.3481.8389-.5889,1.6455-1.4585,2.4189-2.6074s1.374-2.519,1.8018-4.1104c.4268-1.5908.6406-3.3071.6406-5.1489,0-1.6792-.2139-3.3037-.6406-4.8726-.4277-1.5688-1.127-2.9424-2.0996-4.1211s-2.2031-2.0332-3.6904-2.5635c-1.4883-.5303-3.7422-.7954-6.7617-.7954-1.1348,0-2.3867.0957-3.7568.2871-.1475,2.0923-.2217,6.0327-.2217,11.8228v5.0825c0,4.3901.0742,7.2852.2217,8.6846Z"/>
    <path class="st0" d="M722.407,116.6082v-1.834c1.1934-.0884,1.9033-.166,2.1318-.2324.2285-.0659.4238-.1689.5859-.3091s.3281-.3608.4971-.6631c.1689-.3018.6738-1.4253,1.5137-3.3701.3828-.9131,1.1201-2.7178,2.21-5.4141l5.7676-14.231,1.9453-5.0161h3.1377l9.8779,23.0703,1.3701,3.0273.8838,2.0332c.1465.2651.2871.4565.4199.5742.1328.1182.2832.2065.4531.2656.1689.0591.5996.1104,1.292.1543.2217.0298.5449.0664.9727.1108v1.834l-6.1436-.1328-7.7559.1328v-1.834c1.7822-.0737,2.7871-.1733,3.0166-.2983.2275-.125.3418-.335.3418-.6299,0-.3682-.1689-.9722-.5078-1.812l-1.9004-4.8618h-11.3584l-.9727,2.6519c-.7363,2.0332-1.1045,3.3003-1.1045,3.8008,0,.3535.1172.6045.3535.7515.3535.2065,1.4062.3389,3.1602.3979v1.834l-5.1055-.1328-5.082.1328ZM732.1746,104.6531c1.3838.0439,2.9531.0664,4.7061.0664,1.6943,0,3.2119-.0225,4.5527-.0664l-4.7295-11.4028-4.5293,11.4028Z"/>
  </g>
</svg>
