<?xml version="1.0" encoding="UTF-8" standalone="no"?>
<!-- Created with Inkscape (http://www.inkscape.org/) -->

<svg
   version="1.1"
   id="svg1"
   width="256"
   height="61.693333"
   viewBox="0 0 256 61.693333"
   sodipodi:docname="Herbert-Wertheim-COE-cmyk.svg"
   inkscape:version="1.3.2 (091e20e, 2023-11-25)"
   xmlns:inkscape="http://www.inkscape.org/namespaces/inkscape"
   xmlns:sodipodi="http://sodipodi.sourceforge.net/DTD/sodipodi-0.dtd"
   xmlns="http://www.w3.org/2000/svg"
   xmlns:svg="http://www.w3.org/2000/svg">
  <defs
     id="defs1" />
  <sodipodi:namedview
     id="namedview1"
     pagecolor="#9ca3af"
     bordercolor="#000000"
     borderopacity="0.25"
     inkscape:showpageshadow="2"
     inkscape:pageopacity="0.0"
     inkscape:pagecheckerboard="0"
     inkscape:deskcolor="#d1d1d1"
     inkscape:zoom="3.1802387"
     inkscape:cx="114.61404"
     inkscape:cy="15.250428"
     inkscape:window-width="1440"
     inkscape:window-height="794"
     inkscape:window-x="0"
     inkscape:window-y="25"
     inkscape:window-maximized="1"
     inkscape:current-layer="group-R5">
    <inkscape:page
       x="0"
       y="0"
       inkscape:label="1"
       id="page1"
       width="256"
       height="61.693333"
       margin="0"
       bleed="0" />
  </sodipodi:namedview>
  <g
     id="g1"
     inkscape:groupmode="layer"
     inkscape:label="1">
    <g
       id="group-R5">
      <path
         id="path2"
         d="M 424.508,460.156 V 230.11944 28.2813 h 11.941 V 460.156 h -11.941 v 0"
         style="fill:#f25c19;fill-opacity:1;fill-rule:nonzero;stroke:none"
         transform="matrix(0.13333333,0,0,-0.13333333,0,61.693333)"
         sodipodi:nodetypes="ccccccc" />
      <path
         id="path3"
         d="m 274.301,246.691 v 65.711 h 60.554 v 43.332 h -60.554 v 61.375 h 66.48 v -23.808 h 43.852 v 66.777 H 209.055 v -42.969 h 16.441 V 246.691 h -16.379 v -43.324 h 81.035 v 43.324 h -15.851 v 0"
         style="fill:#9ca3af;fill-opacity:1;fill-rule:nonzero;stroke:none"
         transform="matrix(0.13333333,0,0,-0.13333333,0,61.693333)" />
      <path
         id="path4"
         d="m 186.211,300.391 v 116.73 h 16.23 v 42.957 h -81.218 v -42.957 h 15.84 V 314.902 c 0,-42.839 -4.958,-63.425 -35.723,-63.425 -30.7697,0 -35.7189,20.586 -35.7189,63.425 v 102.219 h 15.7187 v 42.957 H 0 v -42.957 h 16.1133 v -116.73 c 0,-25.489 0,-46.387 12.0273,-65.157 13.4375,-21.25 37.836,-34.746 73.1994,-34.746 62.598,0 84.871,32.617 84.871,99.903 v 0"
         style="fill:#9ca3af;fill-opacity:1;fill-rule:nonzero;stroke:none"
         transform="matrix(0.13333333,0,0,-0.13333333,0,61.693333)" />
      <path
         id="path5"
         d="m 477.715,361.977 v 6.015 c 4.332,0.094 6.973,0.231 7.93,0.41 0.957,0.184 1.664,0.446 2.121,0.789 0.453,0.34 0.773,0.829 0.957,1.469 0.453,1.367 0.707,4.535 0.75,9.5 l 0.273,13.606 v 31.992 l -0.273,13.465 c -0.043,5.058 -0.297,8.273 -0.75,9.64 -0.184,0.641 -0.493,1.129 -0.926,1.469 -0.434,0.344 -1.125,0.617 -2.082,0.82 -0.957,0.207 -3.625,0.352 -8,0.446 v 6.015 c 7.476,-0.316 15.355,-0.48 23.652,-0.48 7.426,0 14.016,0.164 19.754,0.48 v -6.015 c -4.875,-0.18 -7.746,-0.375 -8.609,-0.582 -0.867,-0.203 -1.481,-0.532 -1.848,-0.985 -0.367,-0.461 -0.641,-2.051 -0.82,-4.777 -0.41,-4.645 -0.614,-11.328 -0.614,-20.059 v -7.847 c 3.286,-0.317 10.172,-0.477 20.672,-0.477 13.239,0 21.407,0.16 24.512,0.477 v 7.847 c 0,7.047 -0.043,11.575 -0.137,13.575 -0.367,6.05 -0.64,9.464 -0.82,10.234 -0.137,0.547 -0.352,0.969 -0.648,1.262 -0.297,0.297 -0.844,0.547 -1.641,0.75 -0.797,0.207 -3.656,0.402 -8.578,0.582 v 6.015 c 5.73,-0.316 12.308,-0.48 19.723,-0.48 8.285,0 16.156,0.164 23.617,0.48 v -6.015 c -4.332,-0.094 -6.977,-0.231 -7.934,-0.41 -0.953,-0.18 -1.664,-0.446 -2.117,-0.786 -0.453,-0.343 -0.777,-0.832 -0.957,-1.472 -0.453,-1.41 -0.707,-4.578 -0.75,-9.5 l -0.277,-13.672 v -31.992 l 0.277,-13.399 c 0.043,-5.101 0.269,-8.316 0.683,-9.64 0.227,-0.637 0.555,-1.137 0.989,-1.504 0.433,-0.364 1.129,-0.637 2.086,-0.821 0.957,-0.179 3.625,-0.316 8,-0.41 v -6.015 c -7.461,0.32 -15.332,0.48 -23.617,0.48 -7.415,0 -13.993,-0.16 -19.723,-0.48 v 6.015 c 4.875,0.184 7.746,0.379 8.609,0.582 0.867,0.207 1.481,0.539 1.848,0.992 0.367,0.454 0.641,2.051 0.82,4.786 0.367,4.648 0.547,11.347 0.547,20.097 v 14.285 c -2.281,0.321 -8.922,0.481 -19.922,0.481 -10.547,0 -17.574,-0.043 -21.09,-0.137 -1.414,-0.043 -2.804,-0.16 -4.172,-0.344 v -14.285 c 0,-7.109 0.067,-11.644 0.204,-13.605 0.367,-6.059 0.64,-9.5 0.82,-10.321 0.137,-0.503 0.351,-0.898 0.648,-1.195 0.297,-0.301 0.844,-0.547 1.641,-0.754 0.797,-0.203 3.656,-0.398 8.578,-0.582 v -6.015 c -5.738,0.32 -12.328,0.48 -19.754,0.48 -8.297,0 -16.176,-0.16 -23.652,-0.48"
         style="fill:#9ca3af;fill-opacity:1;fill-rule:nonzero;stroke:none"
         transform="matrix(0.13333333,0,0,-0.13333333,0,61.693333)" />
      <path
         id="path6"
         d="m 635.25,400.875 c 0.18,7.223 -0.797,12.285 -2.941,15.191 -2.188,2.86 -5.012,4.289 -8.477,4.289 -3.555,0 -6.492,-1.496 -8.816,-4.496 -2.371,-3.043 -3.461,-8.035 -3.282,-14.984 2.692,-0.41 7.176,-0.617 13.465,-0.617 4.012,0 7.36,0.207 10.051,0.617 z m 16.27,-28.371 -3.008,-6.699 c -3.739,-2.278 -7.59,-3.965 -11.555,-5.059 -2.965,-0.773 -6.332,-1.16 -10.117,-1.16 -4.512,0 -8.485,0.523 -11.93,1.57 -3.441,1.051 -6.379,2.489 -8.816,4.309 -2.438,1.82 -4.578,4.058 -6.426,6.699 -1.848,2.641 -3.18,5.699 -4,9.16 -0.82,3.461 -1.23,7.246 -1.23,11.348 0,5.973 0.796,11.305 2.394,15.996 1.094,3.281 2.367,5.648 3.828,7.109 0.91,0.914 3.281,2.621 7.11,5.125 3.828,2.508 6.605,4.149 8.339,4.922 3.188,1.414 6.95,2.121 11.278,2.121 6.109,0 11.121,-1.273 15.039,-3.828 3.922,-2.554 6.691,-5.812 8.304,-9.777 1.618,-3.965 2.43,-8.774 2.43,-14.422 0,-1.273 -0.047,-2.504 -0.137,-3.691 -1.136,-0.368 -2.871,-0.778 -5.195,-1.231 -3.101,-0.59 -5.195,-0.914 -6.289,-0.957 -3.418,-0.273 -7.93,-0.434 -13.535,-0.48 -5.606,-0.043 -8.707,-0.09 -9.297,-0.137 -0.594,-0.043 -1.258,-0.067 -1.984,-0.067 h -4.512 c 0.367,-7.203 2.598,-12.886 6.699,-17.054 4.102,-4.172 9.16,-6.258 15.176,-6.258 2.598,0 4.992,0.285 7.18,0.855 2.187,0.571 5.058,1.743 8.613,3.52 l 1.641,-1.914"
         style="fill:#9ca3af;fill-opacity:1;fill-rule:nonzero;stroke:none"
         transform="matrix(0.13333333,0,0,-0.13333333,0,61.693333)" />
      <path
         id="path7"
         d="m 700.16,367.309 v -5.332 c -5.148,0.23 -10.89,0.343 -17.226,0.343 -7.067,0 -14.399,-0.113 -22.012,-0.343 v 5.332 c 3.555,0 6.016,0.25 7.383,0.754 0.64,0.222 1.121,0.609 1.437,1.156 0.453,0.863 0.707,2.5 0.75,4.906 l 0.274,6.07 c 0.047,1.27 0.07,3.34 0.07,6.203 v 8.93 c 0,4.043 -0.113,8.953 -0.344,14.727 -0.137,2.906 -0.332,4.55 -0.586,4.941 -0.254,0.387 -0.652,0.668 -1.207,0.848 -0.867,0.324 -3.461,0.547 -7.777,0.683 v 5.332 c 8.336,1.414 13.808,2.461 16.422,3.145 2.605,0.684 5.566,1.777 8.863,3.281 l 1.856,-0.82 -0.137,-13.809 c 2.941,3.055 5.211,5.582 6.797,7.59 2.351,2.828 4.121,4.625 5.297,5.399 1.628,1.093 3.785,1.64 6.457,1.64 1.675,0 3.195,-0.273 4.554,-0.82 l -0.48,-9.707 c -0.113,-5.285 -0.199,-8.313 -0.274,-9.09 l -2.871,-0.891 c -1.136,1.504 -2.23,2.555 -3.281,3.145 -1.684,0.957 -3.527,1.437 -5.535,1.437 -2.692,0 -5,-0.832 -6.942,-2.496 -1.937,-1.664 -3.085,-3.359 -3.449,-5.093 -0.179,-1 -0.273,-4.844 -0.273,-11.532 v -6.82 l 0.137,-9.285 c 0.042,-3.5 0.167,-5.649 0.375,-6.445 0.207,-0.801 0.671,-1.418 1.402,-1.879 0.726,-0.454 2.301,-0.77 4.715,-0.954 l 5.605,-0.546"
         style="fill:#9ca3af;fill-opacity:1;fill-rule:nonzero;stroke:none"
         transform="matrix(0.13333333,0,0,-0.13333333,0,61.693333)" />
      <path
         id="path8"
         d="m 739.707,408.668 c -0.094,-3.512 -0.137,-8.16 -0.137,-13.945 0,-7.75 0.043,-13.715 0.137,-17.91 1.684,-2.418 3.512,-4.172 5.469,-5.266 2.691,-1.457 5.582,-2.188 8.679,-2.188 3.329,0 6.235,0.879 8.719,2.633 2.485,1.754 4.418,4.613 5.809,8.578 1.39,3.965 2.086,8.34 2.086,13.125 0,7.11 -1.617,12.535 -4.856,16.27 -3.234,3.738 -7.289,5.605 -12.168,5.605 -3.05,0 -5.8,-0.707 -8.234,-2.117 -2.438,-1.41 -4.273,-3.008 -5.504,-4.785 z m -27.48,43.066 v 4.922 c 10.347,1.094 19.117,3.102 26.32,6.016 0.683,-0.18 1.297,-0.504 1.844,-0.957 -0.453,-18.91 -0.684,-29.875 -0.684,-32.883 V 415.98 l 8.273,6.836 c 2.415,1.961 4.614,3.309 6.594,4.036 1.985,0.726 4.504,1.093 7.555,1.093 7.793,0 14.059,-2.418 18.801,-7.246 4.738,-4.828 7.105,-11.324 7.105,-19.484 0,-4.922 -0.863,-9.695 -2.597,-14.32 -1.731,-4.625 -4.055,-8.418 -6.969,-11.383 -0.41,-0.41 -3.727,-2.778 -9.949,-7.11 -6.219,-4.328 -9.715,-6.672 -10.493,-7.039 -2.64,-1.187 -6.039,-1.777 -10.183,-1.777 -2.781,0 -5.496,0.418 -8.137,1.266 -2.641,0.843 -5.629,2.265 -8.953,4.269 l -6.02,-5.058 -3.14,1.164 c 0.91,13.902 1.367,30.531 1.367,49.902 0,19.141 -0.273,31.266 -0.82,36.367 -0.231,1.684 -0.618,2.734 -1.164,3.145 -0.727,0.504 -3.649,0.863 -8.75,1.093"
         style="fill:#9ca3af;fill-opacity:1;fill-rule:nonzero;stroke:none"
         transform="matrix(0.13333333,0,0,-0.13333333,0,61.693333)" />
      <path
         id="path9"
         d="m 841.047,400.875 c 0.191,7.223 -0.805,12.285 -2.934,15.191 -2.183,2.86 -5.015,4.289 -8.472,4.289 -3.555,0 -6.504,-1.496 -8.828,-4.496 -2.368,-3.043 -3.458,-8.035 -3.286,-14.984 2.7,-0.41 7.192,-0.617 13.481,-0.617 4.004,0 7.359,0.207 10.039,0.617 z m 16.266,-28.371 -3.004,-6.699 c -3.735,-2.278 -7.579,-3.965 -11.543,-5.059 -2.969,-0.773 -6.348,-1.16 -10.121,-1.16 -4.508,0 -8.497,0.523 -11.93,1.57 -3.442,1.051 -6.391,2.489 -8.828,4.309 -2.422,1.82 -4.574,4.058 -6.426,6.699 -1.84,2.641 -3.172,5.699 -3.992,9.16 -0.821,3.461 -1.231,7.246 -1.231,11.348 0,5.973 0.797,11.305 2.395,15.996 1.09,3.281 2.379,5.648 3.82,7.109 0.918,0.914 3.281,2.621 7.11,5.125 3.832,2.508 6.625,4.149 8.339,4.922 3.203,1.414 6.953,2.121 11.289,2.121 6.094,0 11.118,-1.273 15.039,-3.828 3.911,-2.554 6.68,-5.812 8.301,-9.777 1.621,-3.965 2.422,-8.774 2.422,-14.422 0,-1.273 -0.035,-2.504 -0.137,-3.691 -1.128,-0.368 -2.871,-0.778 -5.195,-1.231 -3.086,-0.59 -5.191,-0.914 -6.285,-0.957 -3.418,-0.273 -7.934,-0.434 -13.535,-0.48 -5.61,-0.043 -8.696,-0.09 -9.297,-0.137 -0.586,-0.043 -1.25,-0.067 -1.977,-0.067 h -4.507 c 0.347,-7.203 2.593,-12.886 6.699,-17.054 4.097,-4.172 9.16,-6.258 15.176,-6.258 2.593,0 4.976,0.285 7.168,0.855 2.183,0.571 5.054,1.743 8.613,3.52 l 1.637,-1.914"
         style="fill:#9ca3af;fill-opacity:1;fill-rule:nonzero;stroke:none"
         transform="matrix(0.13333333,0,0,-0.13333333,0,61.693333)" />
      <path
         id="path10"
         d="m 905.957,367.309 v -5.332 c -5.144,0.23 -10.891,0.343 -17.227,0.343 -7.058,0 -14.406,-0.113 -22.011,-0.343 v 5.332 c 3.554,0 6.015,0.25 7.383,0.754 0.632,0.222 1.113,0.609 1.433,1.156 0.461,0.863 0.703,2.5 0.754,4.906 l 0.274,6.07 c 0.046,1.27 0.07,3.34 0.07,6.203 v 8.93 c 0,4.043 -0.117,8.953 -0.344,14.727 -0.137,2.906 -0.332,4.55 -0.586,4.941 -0.254,0.387 -0.652,0.668 -1.199,0.848 -0.883,0.324 -3.469,0.547 -7.785,0.683 v 5.332 c 8.34,1.414 13.808,2.461 16.418,3.145 2.617,0.684 5.562,1.777 8.867,3.281 l 1.851,-0.82 -0.132,-13.809 c 2.937,3.055 5.203,5.582 6.797,7.59 2.351,2.828 4.121,4.625 5.3,5.399 1.629,1.093 3.782,1.64 6.453,1.64 1.672,0 3.196,-0.273 4.551,-0.82 l -0.476,-9.707 c -0.11,-5.285 -0.203,-8.313 -0.274,-9.09 l -2.871,-0.891 c -1.14,1.504 -2.234,2.555 -3.281,3.145 -1.692,0.957 -3.535,1.437 -5.535,1.437 -2.688,0 -5,-0.832 -6.946,-2.496 -1.933,-1.664 -3.086,-3.359 -3.449,-5.093 -0.183,-1 -0.269,-4.844 -0.269,-11.532 v -6.82 l 0.132,-9.285 c 0.051,-3.5 0.168,-5.649 0.383,-6.445 0.196,-0.801 0.664,-1.418 1.399,-1.879 0.73,-0.454 2.301,-0.77 4.715,-0.954 l 5.605,-0.546"
         style="fill:#9ca3af;fill-opacity:1;fill-rule:nonzero;stroke:none"
         transform="matrix(0.13333333,0,0,-0.13333333,0,61.693333)" />
      <path
         id="path11"
         d="m 918.711,414.066 v 3.079 l 6.152,3.851 c 1.004,0.629 1.961,1.305 2.871,2.027 v 9.161 c 0,3.281 -0.183,7.339 -0.546,12.168 4.421,1.461 7.292,2.437 8.613,2.937 0.222,0.094 3.125,1.438 8.679,4.035 l 1.782,-1.367 -0.688,-7.109 -0.476,-7.864 -0.618,-11.961 h 2.258 c 6.067,0 10.645,0.231 13.742,0.684 l -1.164,-9.23 c -0.546,-0.09 -1.046,-0.137 -1.503,-0.137 l -6.7,0.137 h -6.633 v -22.832 c 0,-7.016 0.071,-11.165 0.208,-12.442 0.183,-2.14 0.949,-3.816 2.285,-5.023 1.347,-1.207 3.3,-1.813 5.847,-1.813 1.555,-0.043 2.793,-0.008 3.723,0.106 0.937,0.109 2.141,0.332 3.594,0.648 l 1.093,-2.769 -2.468,-2.469 c -2.004,-2.059 -3.762,-3.863 -5.278,-5.422 -1.773,-0.777 -3.367,-1.289 -4.754,-1.543 -1.394,-0.25 -2.824,-0.375 -4.277,-0.375 -5.305,0 -9.473,1.355 -12.512,4.07 -3.035,2.715 -4.546,6.106 -4.546,10.168 l 0.339,22.586 v 16.906 h -1.843 c -2.512,0 -4.907,-0.07 -7.18,-0.207"
         style="fill:#9ca3af;fill-opacity:1;fill-rule:nonzero;stroke:none"
         transform="matrix(0.13333333,0,0,-0.13333333,0,61.693333)" />
      <path
         id="path12"
         d="m 1068.08,458.773 h 6.29 c 1.68,-4.652 3.34,-9.05 4.99,-13.203 7.1,-18.242 11.38,-29.09 12.84,-32.558 l 8.2,-20.246 7.94,30.668 c 3.06,12.125 4.8,19.55 5.26,22.285 0.14,0.726 0.21,1.41 0.21,2.051 0,0.957 -0.22,1.707 -0.66,2.253 -0.43,0.547 -1.07,0.934 -1.94,1.165 -0.41,0.093 -3.28,0.339 -8.61,0.75 v 5.675 c 8.15,-0.316 13.1,-0.48 14.83,-0.48 l 16.13,0.48 v -5.675 c -0.68,-0.043 -1.18,-0.09 -1.5,-0.137 -2.87,-0.18 -4.63,-0.453 -5.26,-0.821 -0.64,-0.363 -1.25,-1.023 -1.85,-1.98 -0.59,-0.957 -2.15,-5.648 -4.69,-14.082 -2.52,-8.434 -6.24,-21.953 -11.13,-40.57 -4.9,-18.621 -7.61,-29.567 -8.1,-32.848 h -10.46 l -7.39,19.84 -18.64,47.48 c -1.96,-4.289 -8.96,-20.66 -21,-49.121 l -7.32,-18.199 h -9.91 l -15.9,72.734 c -1.74,8.024 -2.97,12.829 -3.7,14.422 -0.5,1.141 -1.18,1.914 -2.05,2.324 -1.11,0.547 -3.48,0.868 -7.133,0.958 v 5.675 l 19.093,-0.48 22.36,0.48 v -5.675 c -4,-0.137 -6.22,-0.227 -6.63,-0.274 -1.27,-0.18 -2.18,-0.535 -2.73,-1.059 -0.55,-0.523 -0.82,-1.308 -0.82,-2.359 0,-0.5 0.04,-1.082 0.11,-1.742 0.06,-0.66 0.52,-3.289 1.39,-7.895 1.7,-9.027 2.93,-15.336 3.71,-18.921 l 6.11,-27.567 c 0.5,1.223 2.4,5.813 5.72,13.77 l 8.59,19.964 10.85,25.965 c 0.91,2.184 1.84,4.5 2.8,6.953"
         style="fill:#9ca3af;fill-opacity:1;fill-rule:nonzero;stroke:none"
         transform="matrix(0.13333333,0,0,-0.13333333,0,61.693333)" />
      <path
         id="path13"
         d="m 1180.16,400.875 c 0.18,7.223 -0.8,12.285 -2.94,15.191 -2.19,2.86 -5.01,4.289 -8.48,4.289 -3.55,0 -6.49,-1.496 -8.82,-4.496 -2.37,-3.043 -3.46,-8.035 -3.28,-14.984 2.69,-0.41 7.18,-0.617 13.47,-0.617 4.01,0 7.36,0.207 10.05,0.617 z m 16.27,-28.371 -3.01,-6.699 c -3.74,-2.278 -7.59,-3.965 -11.55,-5.059 -2.96,-0.773 -6.34,-1.16 -10.12,-1.16 -4.51,0 -8.49,0.523 -11.93,1.57 -3.44,1.051 -6.38,2.489 -8.82,4.309 -2.44,1.82 -4.57,4.058 -6.43,6.699 -1.84,2.641 -3.17,5.699 -3.99,9.16 -0.82,3.461 -1.23,7.246 -1.23,11.348 0,5.973 0.8,11.305 2.39,15.996 1.09,3.281 2.37,5.648 3.83,7.109 0.9,0.914 3.28,2.621 7.11,5.125 3.82,2.508 6.61,4.149 8.34,4.922 3.19,1.414 6.95,2.121 11.27,2.121 6.11,0 11.13,-1.273 15.04,-3.828 3.92,-2.554 6.69,-5.812 8.31,-9.777 1.62,-3.965 2.43,-8.774 2.43,-14.422 0,-1.273 -0.05,-2.504 -0.14,-3.691 -1.14,-0.368 -2.87,-0.778 -5.2,-1.231 -3.09,-0.59 -5.19,-0.914 -6.28,-0.957 -3.42,-0.273 -7.93,-0.434 -13.54,-0.48 -5.61,-0.043 -8.7,-0.09 -9.3,-0.137 -0.59,-0.043 -1.25,-0.067 -1.98,-0.067 h -4.51 c 0.36,-7.203 2.6,-12.886 6.7,-17.054 4.1,-4.172 9.16,-6.258 15.17,-6.258 2.6,0 4.99,0.285 7.18,0.855 2.19,0.571 5.06,1.743 8.62,3.52 l 1.64,-1.914"
         style="fill:#9ca3af;fill-opacity:1;fill-rule:nonzero;stroke:none"
         transform="matrix(0.13333333,0,0,-0.13333333,0,61.693333)" />
      <path
         id="path14"
         d="m 1245.06,367.309 v -5.332 c -5.15,0.23 -10.89,0.343 -17.23,0.343 -7.06,0 -14.4,-0.113 -22.01,-0.343 v 5.332 c 3.56,0 6.02,0.25 7.38,0.754 0.64,0.222 1.12,0.609 1.44,1.156 0.46,0.863 0.7,2.5 0.75,4.906 l 0.27,6.07 c 0.05,1.27 0.07,3.34 0.07,6.203 v 8.93 c 0,4.043 -0.11,8.953 -0.34,14.727 -0.14,2.906 -0.33,4.55 -0.59,4.941 -0.25,0.387 -0.65,0.668 -1.2,0.848 -0.88,0.324 -3.46,0.547 -7.78,0.683 v 5.332 c 8.34,1.414 13.81,2.461 16.42,3.145 2.61,0.684 5.56,1.777 8.86,3.281 l 1.86,-0.82 -0.14,-13.809 c 2.94,3.055 5.21,5.582 6.8,7.59 2.35,2.828 4.12,4.625 5.3,5.399 1.63,1.093 3.78,1.64 6.46,1.64 1.67,0 3.19,-0.273 4.55,-0.82 l -0.48,-9.707 c -0.11,-5.285 -0.21,-8.313 -0.27,-9.09 l -2.88,-0.891 c -1.14,1.504 -2.23,2.555 -3.28,3.145 -1.69,0.957 -3.53,1.437 -5.53,1.437 -2.69,0 -5,-0.832 -6.95,-2.496 -1.93,-1.664 -3.08,-3.359 -3.44,-5.093 -0.19,-1 -0.28,-4.844 -0.28,-11.532 v -6.82 l 0.14,-9.285 c 0.05,-3.5 0.17,-5.649 0.38,-6.445 0.2,-0.801 0.66,-1.418 1.4,-1.879 0.73,-0.454 2.3,-0.77 4.71,-0.954 l 5.61,-0.546"
         style="fill:#9ca3af;fill-opacity:1;fill-rule:nonzero;stroke:none"
         transform="matrix(0.13333333,0,0,-0.13333333,0,61.693333)" />
      <path
         id="path15"
         d="m 1257.81,414.066 v 3.079 l 6.15,3.851 c 1.01,0.629 1.97,1.305 2.88,2.027 v 9.161 c 0,3.281 -0.19,7.339 -0.55,12.168 4.42,1.461 7.29,2.437 8.61,2.937 0.23,0.094 3.13,1.438 8.68,4.035 l 1.78,-1.367 -0.68,-7.109 -0.48,-7.864 -0.62,-11.961 h 2.26 c 6.06,0 10.64,0.231 13.74,0.684 l -1.16,-9.23 c -0.55,-0.09 -1.05,-0.137 -1.51,-0.137 l -6.7,0.137 h -6.63 v -22.832 c 0,-7.016 0.07,-11.165 0.21,-12.442 0.18,-2.14 0.95,-3.816 2.28,-5.023 1.35,-1.207 3.31,-1.813 5.85,-1.813 1.56,-0.043 2.8,-0.008 3.72,0.106 0.94,0.109 2.14,0.332 3.6,0.648 l 1.09,-2.769 -2.47,-2.469 c -2,-2.059 -3.76,-3.863 -5.27,-5.422 -1.78,-0.777 -3.37,-1.289 -4.76,-1.543 -1.39,-0.25 -2.82,-0.375 -4.28,-0.375 -5.3,0 -9.47,1.355 -12.51,4.07 -3.03,2.715 -4.55,6.106 -4.55,10.168 l 0.35,22.586 v 16.906 h -1.85 c -2.51,0 -4.9,-0.07 -7.18,-0.207"
         style="fill:#9ca3af;fill-opacity:1;fill-rule:nonzero;stroke:none"
         transform="matrix(0.13333333,0,0,-0.13333333,0,61.693333)" />
      <path
         id="path16"
         d="m 1381.86,367.309 v -5.332 c -6.84,0.179 -11.3,0.273 -13.4,0.273 -1.42,0 -6.07,-0.094 -13.95,-0.273 l -0.68,0.683 0.96,14.309 c 0.13,2.508 0.2,5.496 0.2,8.965 v 13.281 c 0,6.207 -1.03,10.504 -3.11,12.898 -2.08,2.399 -5.05,3.594 -8.92,3.594 -2.83,0 -5.29,-0.707 -7.39,-2.121 -2.1,-1.418 -3.69,-3.336 -4.78,-5.762 -0.41,-0.867 -0.61,-2.742 -0.61,-5.621 v -8.637 c 0,-3.566 0.05,-8.101 0.16,-13.609 0.12,-5.508 0.27,-8.762 0.45,-9.766 0.14,-0.55 0.32,-0.961 0.56,-1.234 0.22,-0.273 0.54,-0.504 0.95,-0.684 0.7,-0.324 1.75,-0.554 3.17,-0.691 l 5.3,-0.273 v -5.332 c -12.44,0.32 -19.36,0.48 -20.78,0.48 l -16.95,-0.48 v 5.332 c 4.08,0.183 6.48,0.367 7.19,0.546 0.71,0.184 1.23,0.446 1.59,0.79 0.34,0.339 0.6,0.832 0.79,1.468 0.31,1.414 0.53,5.746 0.64,13.004 0.12,7.25 0.18,13.699 0.18,19.36 v 22.164 c 0,7.343 -0.19,14.004 -0.55,19.98 -0.14,3.055 -0.34,4.856 -0.61,5.402 -0.19,0.321 -0.43,0.567 -0.76,0.754 -0.49,0.317 -1.34,0.567 -2.53,0.75 -0.77,0.137 -2.75,0.274 -5.94,0.411 v 5.058 c 6.42,0.777 11.08,1.481 13.98,2.121 2.89,0.641 7.05,1.821 12.47,3.555 l 1.51,-0.82 -0.55,-16.262 c -0.19,-8.242 -0.27,-15.891 -0.27,-22.953 v -6.559 l 12.03,10.02 c 3.19,1.23 6.49,1.847 9.91,1.847 3.6,0 6.8,-0.582 9.61,-1.75 2.79,-1.16 5,-2.703 6.59,-4.621 1.59,-1.922 2.72,-4.011 3.39,-6.269 0.65,-2.262 0.99,-5.223 0.99,-8.875 0,-1.231 -0.09,-4.793 -0.28,-10.688 -0.13,-4.34 -0.2,-7.898 -0.2,-10.687 0,-8.45 0.15,-13.403 0.48,-14.867 0.22,-1.008 0.73,-1.715 1.5,-2.125 0.77,-0.411 3.33,-0.661 7.66,-0.754"
         style="fill:#9ca3af;fill-opacity:1;fill-rule:nonzero;stroke:none"
         transform="matrix(0.13333333,0,0,-0.13333333,0,61.693333)" />
      <path
         id="path17"
         d="m 1431.17,400.875 c 0.19,7.223 -0.8,12.285 -2.94,15.191 -2.19,2.86 -5.01,4.289 -8.47,4.289 -3.56,0 -6.5,-1.496 -8.82,-4.496 -2.38,-3.043 -3.47,-8.035 -3.28,-14.984 2.68,-0.41 7.17,-0.617 13.46,-0.617 4.02,0 7.37,0.207 10.05,0.617 z m 16.27,-28.371 -3.01,-6.699 c -3.74,-2.278 -7.58,-3.965 -11.55,-5.059 -2.96,-0.773 -6.34,-1.16 -10.12,-1.16 -4.51,0 -8.48,0.523 -11.92,1.57 -3.45,1.051 -6.39,2.489 -8.83,4.309 -2.43,1.82 -4.57,4.058 -6.42,6.699 -1.84,2.641 -3.18,5.699 -4,9.16 -0.82,3.461 -1.23,7.246 -1.23,11.348 0,5.973 0.8,11.305 2.39,15.996 1.1,3.281 2.38,5.648 3.83,7.109 0.91,0.914 3.28,2.621 7.11,5.125 3.83,2.508 6.61,4.149 8.34,4.922 3.19,1.414 6.95,2.121 11.28,2.121 6.1,0 11.12,-1.273 15.04,-3.828 3.92,-2.554 6.69,-5.812 8.31,-9.777 1.61,-3.965 2.42,-8.774 2.42,-14.422 0,-1.273 -0.05,-2.504 -0.13,-3.691 -1.15,-0.368 -2.88,-0.778 -5.2,-1.231 -3.1,-0.59 -5.2,-0.914 -6.29,-0.957 -3.42,-0.273 -7.93,-0.434 -13.53,-0.48 -5.61,-0.043 -8.71,-0.09 -9.3,-0.137 -0.6,-0.043 -1.25,-0.067 -1.98,-0.067 h -4.52 c 0.37,-7.203 2.6,-12.886 6.7,-17.054 4.11,-4.172 9.16,-6.258 15.18,-6.258 2.6,0 4.99,0.285 7.18,0.855 2.19,0.571 5.06,1.743 8.61,3.52 l 1.64,-1.914"
         style="fill:#9ca3af;fill-opacity:1;fill-rule:nonzero;stroke:none"
         transform="matrix(0.13333333,0,0,-0.13333333,0,61.693333)" />
      <path
         id="path18"
         d="m 1476.08,460.961 c 2.91,0 5.38,-1.023 7.4,-3.074 2.02,-2.051 3.03,-4.512 3.03,-7.383 0,-2.914 -1.01,-5.402 -3.03,-7.453 -2.02,-2.051 -4.49,-3.074 -7.4,-3.074 -2.86,0 -5.31,1.023 -7.35,3.074 -2.04,2.051 -3.07,4.539 -3.07,7.453 0,2.871 1.01,5.332 3.03,7.383 2.02,2.051 4.49,3.074 7.39,3.074 z m -18.76,-98.984 v 5.058 c 5.11,0.367 8.02,0.762 8.75,1.199 0.74,0.434 1.19,1.243 1.37,2.43 0.46,2.512 0.69,8.965 0.69,19.371 0,14.285 -0.21,22.406 -0.62,24.371 -0.19,0.91 -0.48,1.508 -0.89,1.782 -0.91,0.589 -4.01,0.914 -9.3,0.957 v 5.195 c 6.89,0.719 12.08,1.484 15.59,2.301 3.51,0.808 7.33,2.05 11.48,3.714 l 1.65,-0.89 c -0.55,-7.11 -0.83,-13.781 -0.83,-20.027 v -23.243 c 0,-7.929 0.19,-12.621 0.55,-14.082 0.19,-0.82 0.55,-1.367 1.1,-1.64 1.23,-0.59 4.21,-0.981 8.95,-1.164 v -5.332 c -6.47,0.179 -13.52,0.273 -21.12,0.273 -6.56,0 -12.36,-0.094 -17.37,-0.273"
         style="fill:#9ca3af;fill-opacity:1;fill-rule:nonzero;stroke:none"
         transform="matrix(0.13333333,0,0,-0.13333333,0,61.693333)" />
      <path
         id="path19"
         d="m 1502.07,361.977 v 5.332 c 3.56,0 6.02,0.25 7.38,0.754 0.64,0.222 1.12,0.609 1.44,1.156 0.46,0.863 0.7,2.5 0.75,4.906 l 0.27,6.07 c 0.05,1.27 0.07,3.34 0.07,6.203 v 8.93 c 0,4.043 -0.11,8.953 -0.34,14.727 -0.14,2.906 -0.33,4.55 -0.59,4.941 -0.25,0.387 -0.65,0.668 -1.2,0.848 -0.88,0.324 -3.46,0.547 -7.78,0.683 v 5.332 c 8.29,1.414 13.74,2.461 16.34,3.145 2.6,0.684 5.54,1.777 8.82,3.281 l 1.84,-0.82 v -11.027 l 12.42,10.003 c 1.46,0.59 2.7,0.993 3.72,1.196 1.02,0.207 2.4,0.308 4.13,0.308 5.45,0 9.59,-0.879 12.39,-2.636 2.79,-1.758 5.11,-4.719 6.92,-8.871 l 12.46,10.003 c 1.47,0.59 2.71,0.993 3.73,1.196 1.03,0.207 2.42,0.308 4.14,0.308 4.53,0 8.03,-0.558 10.52,-1.675 2.48,-1.114 4.55,-2.625 6.19,-4.536 1.64,-1.914 2.82,-3.964 3.5,-6.148 0.68,-2.188 1.02,-5.551 1.02,-10.106 0,-5.007 -0.04,-8.332 -0.13,-9.972 -0.05,-0.547 -0.07,-1.207 -0.07,-1.977 v -7.101 c 0,-7.285 0.13,-11.942 0.38,-13.965 0.25,-2.024 0.68,-3.301 1.31,-3.82 0.61,-0.528 1.98,-0.856 4.09,-0.993 0.73,-0.043 2.02,-0.16 3.86,-0.343 v -5.332 c -6.24,0.32 -11.4,0.48 -15.45,0.48 -4.6,0 -8.53,-0.16 -11.76,-0.48 l -0.96,1.3 0.78,12.371 c 0.16,5.016 0.25,9.325 0.25,12.922 v 5.196 c 0,8.109 -0.36,13.226 -1.09,15.347 -0.74,2.117 -1.95,3.782 -3.66,4.989 -1.71,1.207 -3.86,1.812 -6.46,1.812 -2.91,0 -5.4,-0.742 -7.45,-2.219 -2.05,-1.476 -3.32,-2.82 -3.83,-4.027 -0.5,-1.207 -0.73,-3.633 -0.68,-7.27 v -16.519 l 0.17,-6.824 0.17,-5.535 c 0.05,-1.684 0.2,-2.84 0.48,-3.481 0.26,-0.633 0.65,-1.113 1.15,-1.43 0.4,-0.23 1.27,-0.433 2.58,-0.617 2.57,-0.316 4.43,-0.547 5.56,-0.683 v -5.332 c -4.05,0.179 -9.89,0.273 -17.5,0.273 -8.47,0 -14.74,-0.094 -18.8,-0.273 v 5.332 c 0.87,0.136 2.01,0.273 3.38,0.41 2.02,0.136 3.29,0.379 3.82,0.719 0.53,0.343 0.96,1.019 1.28,2.046 0.31,1.024 0.48,3.403 0.48,7.133 l 0.14,12.086 v 9.692 c 0,4.644 -0.29,7.929 -0.85,9.863 -0.57,1.933 -1.72,3.551 -3.47,4.844 -1.75,1.3 -4,1.949 -6.77,1.949 -3.03,0 -5.59,-0.778 -7.68,-2.321 -2.08,-1.546 -3.47,-3.093 -4.13,-4.644 -0.23,-0.863 -0.33,-4.438 -0.28,-10.715 v -11.945 c 0,-6.149 0.12,-10.856 0.34,-14.137 0.09,-1.726 0.33,-2.816 0.69,-3.269 0.36,-0.461 0.97,-0.801 1.84,-1.028 0.64,-0.183 2.76,-0.41 6.36,-0.683 v -5.332 c -4.91,0.179 -10.83,0.273 -17.74,0.273 -7.78,0 -13.94,-0.094 -18.49,-0.273"
         style="fill:#9ca3af;fill-opacity:1;fill-rule:nonzero;stroke:none"
         transform="matrix(0.13333333,0,0,-0.13333333,0,61.693333)" />
      <path
         id="path20"
         d="m 570.41,214.355 -3.144,-6.914 c -5.7,-3.007 -10.813,-5.058 -15.348,-6.179 -4.535,-1.125 -10.195,-1.672 -16.984,-1.672 -9.664,0 -18.211,1.523 -25.637,4.57 -5.836,2.461 -10.777,5.723 -14.832,9.785 -4.059,4.051 -7.18,8.45 -9.367,13.188 -3.325,7.152 -4.993,14.93 -4.993,23.312 0,14.356 4.915,26.078 14.735,35.168 9.816,9.094 23.683,13.641 41.598,13.641 6.152,0 11.675,-0.453 16.574,-1.367 4.898,-0.914 10.586,-2.532 17.054,-4.856 l 0.344,-0.886 c -0.726,-2.145 -1.301,-4.829 -1.711,-8.067 -0.679,-5.152 -1.117,-9.914 -1.297,-14.289 h -5.332 c -0.093,5.016 -0.316,9.024 -0.683,12.031 -3.051,3.192 -6.485,5.575 -10.289,7.145 -3.801,1.57 -8.672,2.359 -14.594,2.359 -10.707,0 -19.277,-3.383 -25.703,-10.152 -6.426,-6.77 -9.641,-16.211 -9.641,-28.336 0,-7.34 1.086,-13.738 3.25,-19.207 2.16,-5.469 5.047,-9.992 8.649,-13.57 3.597,-3.575 7.218,-6.192 10.867,-7.832 4.965,-2.188 10.98,-3.282 18.047,-3.282 4.648,0 9.047,0.528 13.195,1.582 4.145,1.043 8.656,2.84 13.531,5.391 l 1.711,-1.563"
         style="fill:#9ca3af;fill-opacity:1;fill-rule:nonzero;stroke:none"
         transform="matrix(0.13333333,0,0,-0.13333333,0,61.693333)" />
      <path
         id="path21"
         d="m 597.379,237.523 c 0,-12.125 1.777,-20.753 5.332,-25.902 2.367,-3.418 5.742,-5.137 10.117,-5.137 3.735,0 6.699,1.309 8.887,3.907 2.914,3.457 4.375,10.156 4.375,20.093 0,6.973 -0.582,12.954 -1.742,17.946 -1.164,4.988 -2.871,8.465 -5.129,10.422 -2.254,1.961 -4.981,2.941 -8.168,2.941 -2.735,0 -5.129,-0.719 -7.18,-2.152 -2.051,-1.438 -3.644,-3.856 -4.785,-7.246 -1.137,-3.395 -1.707,-8.352 -1.707,-14.872 z m -18.938,-3.281 c 0,7.75 1.325,14.16 3.965,19.242 2.645,5.086 6.61,8.914 11.895,11.489 5.289,2.57 11.441,3.859 18.457,3.859 10.527,0 18.535,-2.758 24.027,-8.269 5.496,-5.512 8.238,-13.606 8.238,-24.27 0,-6.152 -0.793,-11.484 -2.39,-16 -1.598,-4.512 -3.738,-8.145 -6.426,-10.898 -2.691,-2.754 -5.516,-4.844 -8.477,-6.25 -5.058,-2.372 -10.757,-3.555 -17.089,-3.555 -10.297,0 -18.243,2.93 -23.825,8.777 -5.582,5.852 -8.375,14.485 -8.375,25.875"
         style="fill:#9ca3af;fill-opacity:1;fill-rule:nonzero;stroke:none"
         transform="matrix(0.13333333,0,0,-0.13333333,0,61.693333)" />
      <path
         id="path22"
         d="m 691.547,207.305 v -5.332 c -5.695,0.324 -11.645,0.488 -17.84,0.488 -6.195,0 -13.172,-0.164 -20.918,-0.488 v 5.332 c 4.356,0.136 6.992,0.324 7.91,0.547 0.688,0.183 1.203,0.449 1.547,0.793 0.348,0.339 0.586,0.878 0.723,1.609 0.324,1.367 0.543,5.684 0.652,12.93 0.113,7.25 0.172,13.679 0.172,19.293 v 22.578 c 0,7.164 -0.16,13.711 -0.477,19.636 -0.179,3.192 -0.41,5.082 -0.683,5.676 -0.184,0.317 -0.438,0.571 -0.754,0.75 -0.547,0.367 -1.41,0.641 -2.598,0.821 -0.683,0.093 -2.734,0.207 -6.152,0.343 v 5.059 c 5.664,0.59 10.187,1.238 13.57,1.945 3.379,0.711 7.926,1.949 13.633,3.727 l 1.441,-0.821 -0.585,-13.828 c -0.247,-7.758 -0.391,-17.273 -0.442,-28.547 v -17.527 c 0,-6.613 0.039,-11.566 0.113,-14.851 0.153,-8.168 0.274,-13.114 0.368,-14.821 0.089,-1.719 0.253,-2.793 0.484,-3.254 0.137,-0.32 0.363,-0.593 0.687,-0.828 0.411,-0.312 1.122,-0.566 2.133,-0.742 0.41,-0.098 2.75,-0.254 7.016,-0.488"
         style="fill:#9ca3af;fill-opacity:1;fill-rule:nonzero;stroke:none"
         transform="matrix(0.13333333,0,0,-0.13333333,0,61.693333)" />
      <path
         id="path23"
         d="m 736.77,207.305 v -5.332 c -5.7,0.324 -11.649,0.488 -17.844,0.488 -6.196,0 -13.168,-0.164 -20.918,-0.488 v 5.332 c 4.355,0.136 6.992,0.324 7.91,0.547 0.687,0.183 1.207,0.449 1.547,0.793 0.348,0.339 0.586,0.878 0.723,1.609 0.324,1.367 0.542,5.684 0.656,12.93 0.109,7.25 0.172,13.679 0.172,19.293 v 22.578 c 0,7.164 -0.164,13.711 -0.481,19.636 -0.18,3.192 -0.41,5.082 -0.683,5.676 -0.18,0.317 -0.434,0.571 -0.75,0.75 -0.547,0.367 -1.414,0.641 -2.598,0.821 -0.688,0.093 -2.734,0.207 -6.152,0.343 v 5.059 c 5.664,0.59 10.183,1.238 13.566,1.945 3.379,0.711 7.926,1.949 13.633,3.727 l 1.441,-0.821 -0.586,-13.828 c -0.246,-7.758 -0.39,-17.273 -0.437,-28.547 v -17.527 c 0,-6.613 0.039,-11.566 0.109,-14.851 0.152,-8.168 0.274,-13.114 0.367,-14.821 0.094,-1.719 0.254,-2.793 0.485,-3.254 0.136,-0.32 0.367,-0.593 0.687,-0.828 0.41,-0.312 1.121,-0.566 2.133,-0.742 0.41,-0.098 2.75,-0.254 7.02,-0.488"
         style="fill:#9ca3af;fill-opacity:1;fill-rule:nonzero;stroke:none"
         transform="matrix(0.13333333,0,0,-0.13333333,0,61.693333)" />
      <path
         id="path24"
         d="m 786.637,240.875 c 0.179,7.223 -0.797,12.285 -2.942,15.191 -2.187,2.86 -5.011,4.289 -8.476,4.289 -3.555,0 -6.492,-1.496 -8.817,-4.496 -2.371,-3.043 -3.464,-8.039 -3.281,-14.984 2.692,-0.41 7.176,-0.617 13.465,-0.617 4.012,0 7.359,0.207 10.051,0.617 z m 16.261,-28.375 -3,-6.699 c -3.738,-2.278 -7.589,-3.965 -11.554,-5.059 -2.961,-0.769 -6.332,-1.152 -10.117,-1.152 -4.512,0 -8.485,0.519 -11.926,1.562 -3.446,1.055 -6.383,2.493 -8.821,4.317 -2.437,1.816 -4.582,4.054 -6.425,6.699 -1.844,2.637 -3.18,5.691 -4,9.16 -0.821,3.457 -1.231,7.242 -1.231,11.344 0,5.973 0.797,11.305 2.395,15.996 1.094,3.281 2.367,5.648 3.828,7.109 0.914,0.914 3.281,2.621 7.109,5.125 3.828,2.504 6.606,4.149 8.34,4.922 3.188,1.41 6.945,2.121 11.277,2.121 6.11,0 11.122,-1.273 15.04,-3.828 3.921,-2.554 6.691,-5.812 8.304,-9.777 1.621,-3.965 2.426,-8.774 2.426,-14.422 0,-1.273 -0.039,-2.508 -0.141,-3.691 -1.132,-0.368 -2.863,-0.778 -5.187,-1.231 -3.102,-0.594 -5.195,-0.914 -6.289,-0.957 -3.418,-0.273 -7.93,-0.434 -13.535,-0.48 -5.606,-0.043 -8.707,-0.09 -9.297,-0.137 -0.59,-0.043 -1.254,-0.067 -1.985,-0.067 h -4.511 c 0.367,-7.203 2.597,-12.886 6.699,-17.054 4.101,-4.172 9.16,-6.262 15.176,-6.262 2.597,0 4.992,0.293 7.179,0.859 2.188,0.567 5.059,1.739 8.614,3.516 l 1.632,-1.914"
         style="fill:#9ca3af;fill-opacity:1;fill-rule:nonzero;stroke:none"
         transform="matrix(0.13333333,0,0,-0.13333333,0,61.693333)" />
      <path
         id="path25"
         d="m 833.43,247.367 c 0,-6.289 1.09,-10.773 3.289,-13.465 2.199,-2.691 5.051,-4.035 8.574,-4.035 3.879,0 6.855,1.574 8.906,4.719 1.465,2.277 2.196,5.695 2.196,10.254 0,6.383 -1.024,10.844 -3.082,13.398 -2.063,2.555 -4.915,3.828 -8.567,3.828 -3.476,0 -6.23,-1.164 -8.269,-3.488 -2.036,-2.324 -3.047,-6.058 -3.047,-11.211 z m 2.461,-47.035 c -3.743,-2.363 -6.235,-4.539 -7.493,-6.523 -1.25,-1.985 -1.875,-4.2 -1.875,-6.661 0,-4.152 1.7,-7.617 5.098,-10.39 3.391,-2.781 8.484,-4.18 15.274,-4.18 7.109,0 12.539,1.668 16.308,5 3.75,3.32 5.637,7.539 5.637,12.637 0,2.461 -0.383,4.348 -1.125,5.644 -0.762,1.297 -1.817,2.325 -3.184,3.079 -1.367,0.75 -3.261,1.179 -5.676,1.296 -2.41,0.118 -7.996,0.176 -16.746,0.176 -1.589,0 -3.671,-0.027 -6.218,-0.078 z m -14.289,17.578 9.503,6.899 c -3.371,1.23 -6.078,2.656 -8.097,4.273 -2.031,1.617 -3.653,3.75 -4.863,6.391 -1.204,2.64 -1.805,5.562 -1.805,8.75 0,4.332 1.109,8.375 3.348,12.136 2.238,3.758 5.734,6.754 10.488,8.989 4.765,2.23 10.344,3.347 16.719,3.347 4.289,0 8.242,-0.488 11.855,-1.468 3.633,-0.981 6.672,-2.426 9.133,-4.34 2.644,-0.137 4.461,-0.207 5.469,-0.207 1.367,0 5.078,0.164 11.14,0.48 l -0.957,-8.476 h -10.801 c 0.594,-2.282 0.887,-4.489 0.887,-6.633 0,-4.875 -1.297,-9.184 -3.894,-12.918 -2.598,-3.735 -6.25,-6.61 -10.977,-8.613 -4.707,-2.008 -9.719,-3.008 -15,-3.008 -1.414,0 -3.398,0.093 -5.945,0.273 -1.418,-0.816 -2.485,-1.773 -3.215,-2.887 -0.735,-1.113 -1.094,-2.136 -1.094,-3.085 0,-0.821 0.313,-1.583 0.918,-2.305 0.625,-0.723 1.477,-1.211 2.566,-1.426 1.504,-0.32 5.266,-0.488 11.282,-0.488 l 16.816,0.41 c 4.922,0 8.731,-0.566 11.414,-1.699 2.688,-1.145 4.699,-2.871 6.02,-5.196 1.316,-2.324 1.98,-5.41 1.98,-9.238 0,-5.691 -1.347,-10.84 -4.031,-15.449 -2.688,-4.602 -6.723,-8.379 -12.102,-11.348 -6.789,-3.691 -14.882,-5.527 -24.265,-5.527 -7.383,0 -13.403,1.016 -18.047,3.066 -4.652,2.051 -7.91,4.492 -9.777,7.325 -1.868,2.824 -2.801,5.898 -2.801,9.218 0,1.914 0.293,3.653 0.886,5.196 0.594,1.55 1.282,2.714 2.051,3.496 0.774,0.769 2.305,1.816 4.578,3.144 4.375,2.461 6.821,3.801 7.317,4.024 -2.461,0.273 -4.668,1.172 -6.629,2.675 -1.777,1.641 -2.668,3.504 -2.668,5.606 0,1.133 0.226,2.414 0.684,3.828 0.632,2.004 1.281,3.594 1.914,4.785"
         style="fill:#9ca3af;fill-opacity:1;fill-rule:nonzero;stroke:none"
         transform="matrix(0.13333333,0,0,-0.13333333,0,61.693333)" />
      <path
         id="path26"
         d="m 931.699,240.875 c 0.188,7.223 -0.801,12.285 -2.937,15.191 -2.192,2.86 -5.012,4.289 -8.481,4.289 -3.551,0 -6.492,-1.496 -8.816,-4.496 -2.371,-3.043 -3.469,-8.039 -3.281,-14.984 2.683,-0.41 7.175,-0.617 13.464,-0.617 4.016,0 7.368,0.207 10.051,0.617 z m 16.27,-28.375 -3.008,-6.699 c -3.738,-2.278 -7.59,-3.965 -11.555,-5.059 -2.957,-0.769 -6.336,-1.152 -10.113,-1.152 -4.516,0 -8.488,0.519 -11.926,1.562 -3.445,1.055 -6.387,2.493 -8.828,4.317 -2.434,1.816 -4.57,4.054 -6.426,6.699 -1.836,2.637 -3.175,5.691 -3.996,9.16 -0.816,3.457 -1.226,7.242 -1.226,11.344 0,5.973 0.797,11.305 2.39,15.996 1.094,3.281 2.371,5.648 3.828,7.109 0.911,0.914 3.282,2.621 7.11,5.125 3.828,2.504 6.609,4.149 8.34,4.922 3.195,1.41 6.953,2.121 11.281,2.121 6.101,0 11.121,-1.273 15.039,-3.828 3.914,-2.554 6.687,-5.812 8.309,-9.777 1.613,-3.965 2.421,-8.774 2.421,-14.422 0,-1.273 -0.046,-2.508 -0.136,-3.691 -1.145,-0.368 -2.871,-0.778 -5.196,-1.231 -3.093,-0.594 -5.195,-0.914 -6.289,-0.957 -3.418,-0.273 -7.929,-0.434 -13.535,-0.48 -5.605,-0.043 -8.699,-0.09 -9.297,-0.137 -0.593,-0.043 -1.25,-0.067 -1.98,-0.067 h -4.516 c 0.363,-7.203 2.602,-12.886 6.699,-17.054 4.106,-4.172 9.161,-6.262 15.176,-6.262 2.602,0 4.992,0.293 7.18,0.859 2.187,0.567 5.058,1.739 8.613,3.516 l 1.641,-1.914"
         style="fill:#9ca3af;fill-opacity:1;fill-rule:nonzero;stroke:none"
         transform="matrix(0.13333333,0,0,-0.13333333,0,61.693333)" />
      <path
         id="path27"
         d="m 1011.54,237.523 c 0,-12.125 1.78,-20.753 5.34,-25.902 2.37,-3.418 5.74,-5.137 10.11,-5.137 3.74,0 6.7,1.309 8.89,3.907 2.92,3.457 4.37,10.156 4.37,20.093 0,6.973 -0.57,12.954 -1.74,17.946 -1.16,4.988 -2.88,8.465 -5.12,10.422 -2.27,1.961 -4.98,2.941 -8.18,2.941 -2.73,0 -5.12,-0.719 -7.17,-2.152 -2.05,-1.438 -3.65,-3.856 -4.79,-7.246 -1.14,-3.395 -1.71,-8.352 -1.71,-14.872 z m -18.935,-3.281 c 0,7.75 1.321,14.16 3.965,19.242 2.649,5.086 6.61,8.914 11.9,11.489 5.28,2.57 11.43,3.859 18.45,3.859 10.53,0 18.54,-2.758 24.03,-8.269 5.5,-5.512 8.24,-13.606 8.24,-24.27 0,-6.152 -0.8,-11.484 -2.39,-16 -1.59,-4.512 -3.74,-8.145 -6.43,-10.898 -2.68,-2.754 -5.52,-4.844 -8.48,-6.25 -5.05,-2.372 -10.75,-3.555 -17.09,-3.555 -10.3,0 -18.24,2.93 -23.81,8.777 -5.592,5.852 -8.385,14.485 -8.385,25.875"
         style="fill:#9ca3af;fill-opacity:1;fill-rule:nonzero;stroke:none"
         transform="matrix(0.13333333,0,0,-0.13333333,0,61.693333)" />
      <path
         id="path28"
         d="m 1068.12,201.973 v 5.195 c 5.38,0.371 8.56,0.867 9.57,1.504 0.77,0.508 1.23,1.418 1.36,2.734 0.33,2.371 0.53,9.805 0.62,22.289 v 20.508 l -1.92,0.07 -9.29,-0.41 v 3.348 c 6.06,3.144 9.21,4.812 9.43,4.992 0.6,0.41 0.89,0.957 0.89,1.641 0,2.14 0.1,4.793 0.31,7.965 0.2,3.168 0.51,5.41 0.92,6.73 0.41,1.324 1.07,2.598 1.98,3.828 1.51,2.008 4.84,5.242 9.98,9.707 l 8.27,7.383 c 1.32,1.141 2.86,2.043 4.58,2.699 1.73,0.66 3.7,0.992 5.88,0.992 2.24,0 4.63,-0.41 7.18,-1.23 -0.73,-4.922 -1.04,-9.477 -0.96,-13.672 l -2.73,-1.23 c -1.37,1.277 -2.65,2.156 -3.83,2.632 -1.18,0.481 -2.68,0.719 -4.51,0.719 -2.65,0 -4.74,-0.504 -6.29,-1.5 -1.09,-0.726 -1.83,-1.703 -2.19,-2.933 -0.54,-1.817 -0.82,-6.364 -0.82,-13.637 v -9.481 l 8.07,0.059 c 3.92,0.078 7.31,0.223 10.18,0.422 l 0.89,-0.684 c -0.22,-0.777 -0.41,-1.574 -0.54,-2.394 l -1.1,-6.082 -6.9,0.136 c -2,0.09 -3.15,0.137 -3.42,0.137 -0.82,0 -3.21,-0.07 -7.18,-0.207 v -21.84 c 0,-4.883 0.06,-9.535 0.18,-13.965 0.11,-4.421 0.3,-7.089 0.57,-8.007 0.23,-0.645 0.58,-1.172 1.07,-1.582 0.47,-0.411 1.26,-0.704 2.35,-0.879 0.28,-0.047 3.37,-0.301 9.3,-0.762 v -5.195 l -23.31,0.351 c -2.87,0 -9.07,-0.117 -18.59,-0.351"
         style="fill:#9ca3af;fill-opacity:1;fill-rule:nonzero;stroke:none"
         transform="matrix(0.13333333,0,0,-0.13333333,0,61.693333)" />
      <path
         id="path29"
         d="m 1158.28,201.973 v 3.691 c 2.74,1.277 4.97,2.598 6.7,3.965 0.27,1.914 0.5,5.019 0.68,9.297 0.37,7.844 0.55,13.539 0.55,17.094 v 30.761 c 0,1.188 -0.07,5.629 -0.2,13.332 -0.14,5.153 -0.46,8.293 -0.96,9.434 -0.23,0.453 -0.57,0.797 -1.03,1.023 -1.23,0.547 -4.51,0.957 -9.84,1.231 v 5.265 l 15.86,0.118 c 3.14,0.007 6.15,0.019 9.02,0.019 6.24,0 13.2,0.067 20.85,0.203 l 13.88,0.344 c 1.64,0 4.97,-0.094 9.98,-0.273 0.46,0 1.21,-0.137 2.26,-0.411 l 0.47,-0.89 -1.29,-9.844 c -0.05,-0.684 -0.28,-3.965 -0.69,-9.844 h -5.33 c -0.09,5.375 -0.29,8.684 -0.62,9.914 -0.17,0.641 -0.44,1.094 -0.82,1.368 -0.58,0.41 -2.41,0.777 -5.45,1.093 -4.51,0.5 -8.91,0.75 -13.24,0.75 -4.04,0 -8.18,-0.16 -12.41,-0.476 -0.63,-5.192 -0.96,-11.782 -0.96,-19.782 V 255.23 c 3.1,-0.23 6.32,-0.343 9.68,-0.343 1.06,0 4.83,0.093 11.33,0.273 2.45,0.043 3.9,0.207 4.33,0.481 0.43,0.273 0.76,0.75 0.98,1.433 0.55,1.735 0.87,4.625 0.96,8.684 h 5.54 l -0.35,-15.039 0.35,-14.973 h -5.54 c 0.05,5.289 -0.3,8.547 -1.04,9.777 -0.55,0.915 -1.54,1.481 -2.97,1.707 -3.17,0.504 -7.25,0.754 -12.22,0.754 -4.46,0 -8.15,-0.164 -11.05,-0.48 V 218.84 c 0,-3.195 0.07,-5.949 0.21,-8.254 3.68,-0.313 8.05,-0.469 13.1,-0.469 4.92,0 9.45,0.156 13.61,0.469 4.17,0.32 6.73,0.781 7.68,1.367 0.32,0.188 0.61,0.598 0.88,1.231 0.82,2.187 1.69,6.339 2.6,12.445 h 5.61 c -1.01,-9.027 -1.51,-16.449 -1.51,-22.289 l -0.89,-0.879 c -2.92,-0.32 -7.06,-0.488 -12.44,-0.488 l -11,0.246 c -10.85,0.164 -18.33,0.242 -22.43,0.242 -1.09,0 -8.7,-0.164 -22.83,-0.488"
         style="fill:#9ca3af;fill-opacity:1;fill-rule:nonzero;stroke:none"
         transform="matrix(0.13333333,0,0,-0.13333333,0,61.693333)" />
      <path
         id="path30"
         d="m 1316.71,207.051 v -5.078 c -6.21,0.324 -11.28,0.488 -15.22,0.488 -4.52,0 -8.44,-0.164 -11.78,-0.488 l -1.23,1.23 c 0.08,0.957 0.39,4.902 0.89,11.836 l 0.34,11.207 v 5.399 c 0,7.972 -0.31,13.218 -0.93,15.722 -0.61,2.504 -1.88,4.524 -3.79,6.051 -1.91,1.527 -4.46,2.289 -7.66,2.289 -3.19,0 -5.83,-0.766 -7.93,-2.289 -2.1,-1.527 -3.41,-3.066 -3.96,-4.613 -0.32,-0.91 -0.46,-4.551 -0.41,-10.918 v -11.469 c 0,-3.32 0.12,-7.395 0.34,-12.219 0.05,-2.129 0.23,-3.547 0.55,-4.226 0.22,-0.5 0.52,-0.871 0.88,-1.086 0.54,-0.371 1.61,-0.711 3.19,-1.035 0.54,-0.086 2.44,-0.274 5.7,-0.547 v -5.332 c -4.97,0.183 -11.05,0.273 -18.25,0.273 -8.34,0 -14.81,-0.09 -19.41,-0.273 v 5.332 c 3.55,0 6.01,0.254 7.38,0.761 0.63,0.215 1.11,0.606 1.44,1.153 0.45,0.859 0.7,2.5 0.75,4.902 l 0.27,6.074 c 0.05,1.27 0.07,3.34 0.07,6.203 v 8.93 c 0,4.043 -0.12,8.953 -0.34,14.727 -0.14,2.906 -0.33,4.55 -0.59,4.941 -0.25,0.387 -0.65,0.668 -1.2,0.848 -0.88,0.324 -3.47,0.547 -7.78,0.683 v 5.332 c 8.29,1.414 13.74,2.461 16.34,3.145 2.59,0.684 5.53,1.777 8.81,3.281 l 1.85,-0.82 v -11.02 l 12.44,9.996 c 1.5,0.594 2.77,0.993 3.79,1.196 1.03,0.207 2.45,0.308 4.28,0.308 4.87,0 8.53,-0.547 10.97,-1.644 2.44,-1.102 4.5,-2.645 6.19,-4.629 1.68,-1.992 2.87,-4.074 3.55,-6.246 0.68,-2.172 1.03,-5.567 1.03,-10.188 0,-5.211 -0.05,-8.523 -0.14,-9.945 -0.05,-0.547 -0.07,-1.211 -0.07,-1.988 l 0.07,-7.067 c 0.05,-7.722 0.17,-12.508 0.38,-14.336 0.2,-1.824 0.61,-3.004 1.24,-3.523 0.62,-0.527 1.98,-0.859 4.09,-0.996 0.78,-0.047 2.07,-0.156 3.86,-0.332"
         style="fill:#9ca3af;fill-opacity:1;fill-rule:nonzero;stroke:none"
         transform="matrix(0.13333333,0,0,-0.13333333,0,61.693333)" />
      <path
         id="path31"
         d="m 1343.47,247.367 c 0,-6.289 1.09,-10.773 3.29,-13.465 2.2,-2.691 5.05,-4.035 8.57,-4.035 3.88,0 6.86,1.574 8.91,4.719 1.46,2.277 2.2,5.695 2.2,10.254 0,6.383 -1.03,10.844 -3.09,13.398 -2.06,2.555 -4.91,3.828 -8.56,3.828 -3.48,0 -6.24,-1.164 -8.28,-3.488 -2.03,-2.324 -3.04,-6.058 -3.04,-11.211 z m 2.46,-47.035 c -3.74,-2.363 -6.23,-4.539 -7.49,-6.523 -1.25,-1.985 -1.88,-4.2 -1.88,-6.661 0,-4.152 1.7,-7.617 5.1,-10.39 3.39,-2.781 8.49,-4.18 15.27,-4.18 7.11,0 12.54,1.668 16.31,5 3.75,3.32 5.64,7.539 5.64,12.637 0,2.461 -0.38,4.348 -1.13,5.644 -0.76,1.297 -1.81,2.325 -3.18,3.079 -1.37,0.75 -3.26,1.179 -5.67,1.296 -2.42,0.118 -8,0.176 -16.75,0.176 -1.59,0 -3.67,-0.027 -6.22,-0.078 z m -14.29,17.578 9.5,6.899 c -3.37,1.23 -6.07,2.656 -8.09,4.273 -2.03,1.617 -3.66,3.75 -4.87,6.391 -1.2,2.64 -1.8,5.562 -1.8,8.75 0,4.332 1.11,8.375 3.35,12.136 2.23,3.758 5.73,6.754 10.48,8.989 4.77,2.23 10.35,3.347 16.72,3.347 4.29,0 8.25,-0.488 11.86,-1.468 3.63,-0.981 6.67,-2.426 9.13,-4.34 2.65,-0.137 4.46,-0.207 5.47,-0.207 1.37,0 5.08,0.164 11.14,0.48 l -0.96,-8.476 h -10.8 c 0.6,-2.282 0.89,-4.489 0.89,-6.633 0,-4.875 -1.3,-9.184 -3.89,-12.918 -2.6,-3.735 -6.25,-6.61 -10.98,-8.613 -4.71,-2.008 -9.72,-3.008 -15,-3.008 -1.42,0 -3.4,0.093 -5.95,0.273 -1.41,-0.816 -2.48,-1.773 -3.21,-2.887 -0.73,-1.113 -1.09,-2.136 -1.09,-3.085 0,-0.821 0.31,-1.583 0.91,-2.305 0.63,-0.723 1.48,-1.211 2.57,-1.426 1.51,-0.32 5.27,-0.488 11.28,-0.488 l 16.82,0.41 c 4.92,0 8.73,-0.566 11.41,-1.699 2.69,-1.145 4.7,-2.871 6.02,-5.196 1.32,-2.324 1.98,-5.41 1.98,-9.238 0,-5.691 -1.35,-10.84 -4.03,-15.449 -2.69,-4.602 -6.72,-8.379 -12.1,-11.348 -6.79,-3.691 -14.88,-5.527 -24.27,-5.527 -7.38,0 -13.4,1.016 -18.05,3.066 -4.64,2.051 -7.91,4.492 -9.77,7.325 -1.87,2.824 -2.8,5.898 -2.8,9.218 0,1.914 0.29,3.653 0.88,5.196 0.6,1.55 1.28,2.714 2.06,3.496 0.77,0.769 2.3,1.816 4.58,3.144 4.37,2.461 6.81,3.801 7.31,4.024 -2.46,0.273 -4.67,1.172 -6.63,2.675 -1.78,1.641 -2.67,3.504 -2.67,5.606 0,1.133 0.23,2.414 0.69,3.828 0.63,2.004 1.28,3.594 1.91,4.785"
         style="fill:#9ca3af;fill-opacity:1;fill-rule:nonzero;stroke:none"
         transform="matrix(0.13333333,0,0,-0.13333333,0,61.693333)" />
      <path
         id="path32"
         d="m 1418.05,300.961 c 2.91,0 5.38,-1.023 7.39,-3.074 2.02,-2.051 3.04,-4.512 3.04,-7.383 0,-2.914 -1.02,-5.402 -3.04,-7.453 -2.01,-2.051 -4.48,-3.074 -7.39,-3.074 -2.86,0 -5.32,1.023 -7.36,3.074 -2.04,2.051 -3.06,4.539 -3.06,7.453 0,2.871 1,5.332 3.02,7.383 2.03,2.051 4.5,3.074 7.4,3.074 z m -18.76,-98.988 v 5.058 c 5.1,0.371 8.01,0.762 8.75,1.203 0.73,0.438 1.18,1.239 1.36,2.43 0.46,2.512 0.69,8.965 0.69,19.371 0,14.285 -0.21,22.406 -0.62,24.367 -0.18,0.914 -0.48,1.512 -0.89,1.786 -0.9,0.589 -4.01,0.914 -9.29,0.957 v 5.195 c 6.88,0.719 12.08,1.484 15.58,2.301 3.51,0.808 7.34,2.05 11.49,3.714 l 1.64,-0.89 c -0.55,-7.11 -0.82,-13.781 -0.82,-20.027 v -23.243 c 0,-7.925 0.18,-12.625 0.54,-14.078 0.19,-0.82 0.55,-1.367 1.1,-1.64 1.23,-0.594 4.22,-0.989 8.95,-1.172 v -5.332 c -6.47,0.183 -13.51,0.273 -21.12,0.273 -6.56,0 -12.35,-0.09 -17.36,-0.273"
         style="fill:#9ca3af;fill-opacity:1;fill-rule:nonzero;stroke:none"
         transform="matrix(0.13333333,0,0,-0.13333333,0,61.693333)" />
      <path
         id="path33"
         d="m 1522.51,207.051 v -5.078 c -6.21,0.324 -11.28,0.488 -15.22,0.488 -4.52,0 -8.44,-0.164 -11.78,-0.488 l -1.23,1.23 c 0.09,0.957 0.39,4.902 0.89,11.836 l 0.34,11.207 v 5.399 c 0,7.972 -0.3,13.218 -0.93,15.722 -0.61,2.504 -1.87,4.524 -3.79,6.051 -1.91,1.527 -4.46,2.289 -7.66,2.289 -3.19,0 -5.83,-0.766 -7.92,-2.289 -2.1,-1.527 -3.42,-3.066 -3.97,-4.613 -0.32,-0.91 -0.46,-4.551 -0.41,-10.918 v -11.469 c 0,-3.32 0.12,-7.395 0.34,-12.219 0.05,-2.129 0.23,-3.547 0.55,-4.226 0.22,-0.5 0.52,-0.871 0.88,-1.086 0.54,-0.371 1.61,-0.711 3.19,-1.035 0.54,-0.086 2.44,-0.274 5.7,-0.547 v -5.332 c -4.97,0.183 -11.05,0.273 -18.25,0.273 -8.34,0 -14.81,-0.09 -19.41,-0.273 v 5.332 c 3.55,0 6.01,0.254 7.38,0.761 0.64,0.215 1.11,0.606 1.44,1.153 0.46,0.859 0.7,2.5 0.75,4.902 l 0.27,6.074 c 0.05,1.27 0.07,3.34 0.07,6.203 v 8.93 c 0,4.043 -0.12,8.953 -0.34,14.727 -0.14,2.906 -0.33,4.55 -0.59,4.941 -0.25,0.387 -0.65,0.668 -1.2,0.848 -0.88,0.324 -3.47,0.547 -7.78,0.683 v 5.332 c 8.29,1.414 13.74,2.461 16.34,3.145 2.59,0.684 5.53,1.777 8.81,3.281 l 1.85,-0.82 v -11.02 l 12.44,9.996 c 1.51,0.594 2.77,0.993 3.79,1.196 1.04,0.207 2.45,0.308 4.28,0.308 4.87,0 8.53,-0.547 10.97,-1.644 2.44,-1.102 4.5,-2.645 6.19,-4.629 1.69,-1.992 2.87,-4.074 3.55,-6.246 0.68,-2.172 1.03,-5.567 1.03,-10.188 0,-5.211 -0.05,-8.523 -0.14,-9.945 -0.05,-0.547 -0.07,-1.211 -0.07,-1.988 l 0.07,-7.067 c 0.05,-7.722 0.18,-12.508 0.38,-14.336 0.21,-1.824 0.62,-3.004 1.24,-3.523 0.62,-0.527 1.98,-0.859 4.09,-0.996 0.78,-0.047 2.07,-0.156 3.86,-0.332"
         style="fill:#9ca3af;fill-opacity:1;fill-rule:nonzero;stroke:none"
         transform="matrix(0.13333333,0,0,-0.13333333,0,61.693333)" />
      <path
         id="path34"
         d="m 1571.07,240.875 c 0.19,7.223 -0.8,12.285 -2.94,15.191 -2.18,2.86 -5,4.289 -8.47,4.289 -3.56,0 -6.5,-1.496 -8.82,-4.496 -2.37,-3.043 -3.47,-8.039 -3.28,-14.984 2.68,-0.41 7.18,-0.617 13.47,-0.617 4.01,0 7.36,0.207 10.04,0.617 z m 16.27,-28.375 -3,-6.699 c -3.74,-2.278 -7.59,-3.965 -11.56,-5.059 -2.96,-0.769 -6.33,-1.152 -10.11,-1.152 -4.52,0 -8.49,0.519 -11.93,1.562 -3.45,1.055 -6.38,2.493 -8.83,4.317 -2.43,1.816 -4.57,4.054 -6.42,6.699 -1.84,2.637 -3.18,5.691 -4,9.16 -0.82,3.457 -1.23,7.242 -1.23,11.344 0,5.973 0.8,11.305 2.4,15.996 1.09,3.281 2.37,5.648 3.82,7.109 0.91,0.914 3.29,2.621 7.11,5.125 3.83,2.504 6.62,4.149 8.34,4.922 3.2,1.41 6.96,2.121 11.28,2.121 6.11,0 11.13,-1.273 15.04,-3.828 3.92,-2.554 6.69,-5.812 8.31,-9.777 1.61,-3.965 2.42,-8.774 2.42,-14.422 0,-1.273 -0.04,-2.508 -0.13,-3.691 -1.14,-0.368 -2.87,-0.778 -5.2,-1.231 -3.09,-0.594 -5.19,-0.914 -6.29,-0.957 -3.41,-0.273 -7.93,-0.434 -13.53,-0.48 -5.61,-0.043 -8.7,-0.09 -9.3,-0.137 -0.59,-0.043 -1.25,-0.067 -1.98,-0.067 h -4.51 c 0.36,-7.203 2.59,-12.886 6.7,-17.054 4.1,-4.172 9.16,-6.262 15.17,-6.262 2.6,0 4.99,0.293 7.18,0.859 2.19,0.567 5.06,1.739 8.61,3.516 l 1.64,-1.914"
         style="fill:#9ca3af;fill-opacity:1;fill-rule:nonzero;stroke:none"
         transform="matrix(0.13333333,0,0,-0.13333333,0,61.693333)" />
      <path
         id="path35"
         d="m 1639.68,240.875 c 0.18,7.223 -0.8,12.285 -2.94,15.191 -2.19,2.86 -5.01,4.289 -8.48,4.289 -3.55,0 -6.49,-1.496 -8.82,-4.496 -2.37,-3.043 -3.46,-8.039 -3.28,-14.984 2.69,-0.41 7.18,-0.617 13.47,-0.617 4.01,0 7.36,0.207 10.05,0.617 z m 16.27,-28.375 -3.01,-6.699 c -3.74,-2.278 -7.59,-3.965 -11.55,-5.059 -2.96,-0.769 -6.34,-1.152 -10.12,-1.152 -4.51,0 -8.49,0.519 -11.92,1.562 -3.45,1.055 -6.39,2.493 -8.83,4.317 -2.43,1.816 -4.57,4.054 -6.43,6.699 -1.83,2.637 -3.17,5.691 -3.99,9.16 -0.82,3.457 -1.23,7.242 -1.23,11.344 0,5.973 0.8,11.305 2.39,15.996 1.09,3.281 2.37,5.648 3.83,7.109 0.91,0.914 3.28,2.621 7.11,5.125 3.83,2.504 6.61,4.149 8.34,4.922 3.19,1.41 6.95,2.121 11.28,2.121 6.1,0 11.12,-1.273 15.04,-3.828 3.91,-2.554 6.68,-5.812 8.31,-9.777 1.61,-3.965 2.42,-8.774 2.42,-14.422 0,-1.273 -0.05,-2.508 -0.14,-3.691 -1.14,-0.368 -2.87,-0.778 -5.19,-1.231 -3.1,-0.594 -5.2,-0.914 -6.29,-0.957 -3.42,-0.273 -7.93,-0.434 -13.54,-0.48 -5.6,-0.043 -8.7,-0.09 -9.3,-0.137 -0.59,-0.043 -1.25,-0.067 -1.98,-0.067 h -4.51 c 0.36,-7.203 2.6,-12.886 6.7,-17.054 4.1,-4.172 9.16,-6.262 15.18,-6.262 2.59,0 4.99,0.293 7.17,0.859 2.19,0.567 5.06,1.739 8.62,3.516 l 1.64,-1.914"
         style="fill:#9ca3af;fill-opacity:1;fill-rule:nonzero;stroke:none"
         transform="matrix(0.13333333,0,0,-0.13333333,0,61.693333)" />
      <path
         id="path36"
         d="m 1704.59,207.305 v -5.332 c -5.15,0.234 -10.89,0.351 -17.23,0.351 -7.06,0 -14.4,-0.117 -22.01,-0.351 v 5.332 c 3.56,0 6.02,0.254 7.38,0.761 0.64,0.215 1.12,0.606 1.44,1.153 0.46,0.859 0.7,2.5 0.75,4.902 l 0.28,6.074 c 0.04,1.27 0.06,3.34 0.06,6.203 v 8.93 c 0,4.043 -0.11,8.953 -0.34,14.727 -0.13,2.906 -0.33,4.55 -0.58,4.941 -0.26,0.387 -0.66,0.668 -1.21,0.848 -0.87,0.324 -3.46,0.547 -7.78,0.683 v 5.332 c 8.34,1.414 13.81,2.461 16.42,3.145 2.61,0.684 5.56,1.777 8.86,3.281 l 1.86,-0.82 -0.14,-13.809 c 2.94,3.055 5.21,5.582 6.8,7.59 2.35,2.824 4.12,4.621 5.3,5.399 1.63,1.093 3.78,1.64 6.46,1.64 1.67,0 3.19,-0.273 4.55,-0.82 l -0.48,-9.707 c -0.11,-5.285 -0.2,-8.317 -0.27,-9.09 l -2.87,-0.891 c -1.15,1.504 -2.24,2.555 -3.29,3.145 -1.68,0.957 -3.53,1.437 -5.53,1.437 -2.69,0 -5,-0.832 -6.95,-2.496 -1.93,-1.664 -3.08,-3.359 -3.44,-5.093 -0.19,-1 -0.28,-4.844 -0.28,-11.532 v -6.82 l 0.14,-9.289 c 0.05,-3.496 0.17,-5.645 0.38,-6.445 0.2,-0.801 0.67,-1.414 1.4,-1.875 0.73,-0.45 2.3,-0.774 4.71,-0.957 l 5.61,-0.547"
         style="fill:#9ca3af;fill-opacity:1;fill-rule:nonzero;stroke:none"
         transform="matrix(0.13333333,0,0,-0.13333333,0,61.693333)" />
      <path
         id="path37"
         d="m 1737.67,300.961 c 2.91,0 5.38,-1.023 7.39,-3.074 2.02,-2.051 3.04,-4.512 3.04,-7.383 0,-2.914 -1.02,-5.402 -3.04,-7.453 -2.01,-2.051 -4.48,-3.074 -7.39,-3.074 -2.87,0 -5.32,1.023 -7.36,3.074 -2.04,2.051 -3.06,4.539 -3.06,7.453 0,2.871 1,5.332 3.02,7.383 2.02,2.051 4.5,3.074 7.4,3.074 z m -18.76,-98.988 v 5.058 c 5.1,0.371 8.01,0.762 8.75,1.203 0.73,0.438 1.18,1.239 1.36,2.43 0.46,2.512 0.69,8.965 0.69,19.371 0,14.285 -0.21,22.406 -0.62,24.367 -0.18,0.914 -0.48,1.512 -0.89,1.786 -0.91,0.589 -4.01,0.914 -9.29,0.957 v 5.195 c 6.88,0.719 12.08,1.484 15.58,2.301 3.51,0.808 7.34,2.05 11.49,3.714 l 1.64,-0.89 c -0.55,-7.11 -0.82,-13.781 -0.82,-20.027 v -23.243 c 0,-7.925 0.18,-12.625 0.54,-14.078 0.19,-0.82 0.55,-1.367 1.1,-1.64 1.23,-0.594 4.22,-0.989 8.95,-1.172 v -5.332 c -6.47,0.183 -13.51,0.273 -21.12,0.273 -6.56,0 -12.35,-0.09 -17.36,-0.273"
         style="fill:#9ca3af;fill-opacity:1;fill-rule:nonzero;stroke:none"
         transform="matrix(0.13333333,0,0,-0.13333333,0,61.693333)" />
      <path
         id="path38"
         d="m 1842.13,207.051 v -5.078 c -6.21,0.324 -11.28,0.488 -15.22,0.488 -4.52,0 -8.44,-0.164 -11.78,-0.488 l -1.23,1.23 c 0.08,0.957 0.39,4.902 0.89,11.836 l 0.34,11.207 v 5.399 c 0,7.972 -0.31,13.218 -0.93,15.722 -0.61,2.504 -1.88,4.524 -3.79,6.051 -1.91,1.527 -4.46,2.289 -7.66,2.289 -3.19,0 -5.83,-0.766 -7.93,-2.289 -2.1,-1.527 -3.41,-3.066 -3.96,-4.613 -0.32,-0.91 -0.46,-4.551 -0.41,-10.918 v -11.469 c 0,-3.32 0.12,-7.395 0.34,-12.219 0.05,-2.129 0.23,-3.547 0.55,-4.226 0.22,-0.5 0.52,-0.871 0.88,-1.086 0.54,-0.371 1.61,-0.711 3.19,-1.035 0.54,-0.086 2.44,-0.274 5.7,-0.547 v -5.332 c -4.97,0.183 -11.05,0.273 -18.25,0.273 -8.34,0 -14.81,-0.09 -19.41,-0.273 v 5.332 c 3.55,0 6.01,0.254 7.38,0.761 0.63,0.215 1.11,0.606 1.44,1.153 0.45,0.859 0.7,2.5 0.75,4.902 l 0.27,6.074 c 0.05,1.27 0.07,3.34 0.07,6.203 v 8.93 c 0,4.043 -0.12,8.953 -0.34,14.727 -0.14,2.906 -0.33,4.55 -0.59,4.941 -0.25,0.387 -0.65,0.668 -1.2,0.848 -0.88,0.324 -3.47,0.547 -7.78,0.683 v 5.332 c 8.29,1.414 13.74,2.461 16.34,3.145 2.59,0.684 5.53,1.777 8.81,3.281 l 1.85,-0.82 v -11.02 l 12.44,9.996 c 1.5,0.594 2.77,0.993 3.79,1.196 1.03,0.207 2.45,0.308 4.28,0.308 4.87,0 8.53,-0.547 10.97,-1.644 2.44,-1.102 4.5,-2.645 6.19,-4.629 1.68,-1.992 2.87,-4.074 3.55,-6.246 0.68,-2.172 1.03,-5.567 1.03,-10.188 0,-5.211 -0.05,-8.523 -0.14,-9.945 -0.05,-0.547 -0.07,-1.211 -0.07,-1.988 l 0.07,-7.067 c 0.05,-7.722 0.17,-12.508 0.38,-14.336 0.2,-1.824 0.61,-3.004 1.24,-3.523 0.61,-0.527 1.98,-0.859 4.09,-0.996 0.78,-0.047 2.07,-0.156 3.86,-0.332"
         style="fill:#9ca3af;fill-opacity:1;fill-rule:nonzero;stroke:none"
         transform="matrix(0.13333333,0,0,-0.13333333,0,61.693333)" />
      <path
         id="path39"
         d="m 1868.89,247.367 c 0,-6.289 1.09,-10.773 3.29,-13.465 2.2,-2.691 5.05,-4.035 8.57,-4.035 3.88,0 6.86,1.574 8.91,4.719 1.46,2.277 2.2,5.695 2.2,10.254 0,6.383 -1.03,10.844 -3.09,13.398 -2.06,2.555 -4.91,3.828 -8.56,3.828 -3.48,0 -6.24,-1.164 -8.28,-3.488 -2.03,-2.324 -3.04,-6.058 -3.04,-11.211 z m 2.46,-47.035 c -3.74,-2.363 -6.23,-4.539 -7.49,-6.523 -1.25,-1.985 -1.88,-4.2 -1.88,-6.661 0,-4.152 1.7,-7.617 5.1,-10.39 3.39,-2.781 8.49,-4.18 15.27,-4.18 7.11,0 12.54,1.668 16.31,5 3.75,3.32 5.64,7.539 5.64,12.637 0,2.461 -0.38,4.348 -1.13,5.644 -0.76,1.297 -1.81,2.325 -3.18,3.079 -1.37,0.75 -3.26,1.179 -5.67,1.296 -2.42,0.118 -8,0.176 -16.75,0.176 -1.59,0 -3.67,-0.027 -6.22,-0.078 z m -14.29,17.578 9.5,6.899 c -3.37,1.23 -6.07,2.656 -8.09,4.273 -2.03,1.617 -3.66,3.75 -4.87,6.391 -1.2,2.64 -1.8,5.562 -1.8,8.75 0,4.332 1.11,8.375 3.35,12.136 2.23,3.758 5.73,6.754 10.48,8.989 4.77,2.23 10.35,3.347 16.72,3.347 4.29,0 8.25,-0.488 11.86,-1.468 3.63,-0.981 6.67,-2.426 9.13,-4.34 2.65,-0.137 4.46,-0.207 5.47,-0.207 1.37,0 5.08,0.164 11.14,0.48 l -0.96,-8.476 h -10.8 c 0.6,-2.282 0.89,-4.489 0.89,-6.633 0,-4.875 -1.3,-9.184 -3.89,-12.918 -2.6,-3.735 -6.25,-6.61 -10.98,-8.613 -4.71,-2.008 -9.72,-3.008 -15,-3.008 -1.42,0 -3.4,0.093 -5.95,0.273 -1.41,-0.816 -2.48,-1.773 -3.21,-2.887 -0.73,-1.113 -1.09,-2.136 -1.09,-3.085 0,-0.821 0.31,-1.583 0.91,-2.305 0.63,-0.723 1.48,-1.211 2.57,-1.426 1.51,-0.32 5.27,-0.488 11.28,-0.488 l 16.82,0.41 c 4.92,0 8.73,-0.566 11.41,-1.699 2.69,-1.145 4.7,-2.871 6.02,-5.196 1.32,-2.324 1.98,-5.41 1.98,-9.238 0,-5.691 -1.35,-10.84 -4.03,-15.449 -2.69,-4.602 -6.72,-8.379 -12.1,-11.348 -6.79,-3.691 -14.88,-5.527 -24.27,-5.527 -7.38,0 -13.4,1.016 -18.05,3.066 -4.64,2.051 -7.91,4.492 -9.77,7.325 -1.87,2.824 -2.8,5.898 -2.8,9.218 0,1.914 0.29,3.653 0.88,5.196 0.6,1.55 1.28,2.714 2.06,3.496 0.77,0.769 2.3,1.816 4.58,3.144 4.37,2.461 6.81,3.801 7.31,4.024 -2.46,0.273 -4.67,1.172 -6.63,2.675 -1.78,1.641 -2.67,3.504 -2.67,5.606 0,1.133 0.23,2.414 0.69,3.828 0.63,2.004 1.28,3.594 1.91,4.785"
         style="fill:#9ca3af;fill-opacity:1;fill-rule:nonzero;stroke:none"
         transform="matrix(0.13333333,0,0,-0.13333333,0,61.693333)" />
      <path
         id="path40"
         d="m 475.816,100.664 v 4.453 l 17.454,-0.371 7.253,0.117 7.25,0.196 1.989,0.058 v -4.453 c -3.867,0 -6.321,-0.351 -7.36,-1.0234 -0.539,-0.3242 -0.894,-0.9492 -1.074,-1.8867 -0.504,-2.2187 -0.754,-7.1094 -0.754,-14.6562 v -12.461 l 0.055,-6.2812 c 0,-6.5625 0.074,-10.6055 0.215,-12.1485 0.324,-3.3593 1.164,-6.0742 2.523,-8.125 1.363,-2.0703 3.449,-3.7304 6.262,-5 2.809,-1.2695 6.383,-1.914 10.715,-1.914 4.972,0 8.941,0.8593 11.89,2.5586 2.961,1.6992 5.063,3.9062 6.317,6.6328 1.254,2.7226 1.879,7.8984 1.879,15.5156 v 10.957 c 0,9.4532 -0.02,15.2266 -0.055,17.3047 -0.105,4.5117 -0.355,7.2266 -0.75,8.1641 -0.25,0.5664 -0.664,0.9961 -1.234,1.289 -1.184,0.6052 -3.762,0.9572 -7.739,1.0742 v 4.453 c 6.481,-0.254 10.332,-0.371 11.551,-0.371 0.32,0 0.805,0.02 1.449,0.051 l 11.922,0.32 v -4.453 c -3.328,0 -5.422,-0.273 -6.281,-0.8085 -0.43,-0.2852 -0.777,-0.8321 -1.051,-1.6328 -0.262,-0.8204 -0.527,-4.4336 -0.777,-10.8789 -0.246,-6.4454 -0.375,-11.5313 -0.375,-15.254 v -12.625 c 0,-3.2265 -0.235,-6.5546 -0.699,-9.9921 -0.461,-3.4375 -1.407,-6.3672 -2.817,-8.8086 -1.418,-2.4414 -3.414,-4.6407 -5.992,-6.6016 -2.578,-1.9727 -5.641,-3.457 -9.184,-4.4609 -3.543,-1.0078 -7.644,-1.5039 -12.3,-1.5039 -5.446,0 -10.528,0.7304 -15.254,2.1953 -3.438,1.0742 -6.25,2.5195 -8.434,4.3359 -2.18,1.7969 -3.847,3.8281 -4.992,6.0547 -1.148,2.2461 -1.848,4.4062 -2.098,6.4844 -0.179,1.289 -0.265,4.7578 -0.265,10.4101 l 0.05,10.3125 V 81.543 c 0,5.0117 -0.085,9.5234 -0.265,13.5351 -0.11,1.5703 -0.328,2.7149 -0.652,3.4375 -0.18,0.3907 -0.629,0.8594 -1.344,1.3867 l -7.028,0.7617"
         style="fill:#9ca3af;fill-opacity:1;fill-rule:nonzero;stroke:none"
         transform="matrix(0.13333333,0,0,-0.13333333,0,61.693333)" />
      <path
         id="path41"
         d="m 562.668,34.543 c 4.223,0.2148 6.641,0.4062 7.25,0.5937 0.395,0.1367 0.723,0.3711 0.996,0.6914 0.262,0.3242 0.488,0.9883 0.668,1.9844 0.215,1.3672 0.465,4.6602 0.754,9.8828 0.141,2.9805 0.215,6.8477 0.215,11.6016 V 76.543 l -0.27,15.625 c -0.035,2.6172 -0.14,4.3164 -0.324,5.1054 -0.176,0.793 -0.434,1.3789 -0.769,1.75 -0.344,0.3711 -0.899,0.6641 -1.684,0.8789 -0.781,0.2147 -3.063,0.4497 -6.836,0.7027 v 4.512 c 4.543,-0.254 7.895,-0.371 10.043,-0.371 l 7.785,0.176 4.942,0.195 c 7.378,-9.6287 16.308,-20.7303 26.804,-33.3006 7.555,-9.0625 13.821,-16.1523 18.797,-21.2695 v 12.4023 c 0,19.2696 -0.215,30.6055 -0.644,34.0039 -0.141,1.3282 -0.461,2.1875 -0.965,2.5782 -0.825,0.6447 -3.617,0.9957 -8.379,1.0737 v 4.512 c 4.371,-0.254 8.379,-0.371 12.031,-0.371 3.543,0 8.109,0.117 13.695,0.371 v -4.512 c -4.371,-0.109 -6.964,-0.429 -7.789,-0.9644 -0.289,-0.1875 -0.48,-0.4492 -0.59,-0.8125 -0.539,-1.7851 -0.882,-5.8789 -1.05,-12.2656 -0.157,-6.3867 -0.239,-11.1133 -0.239,-14.1602 0,-23.8085 0.235,-38.2617 0.7,-43.3398 l -0.7,-0.4883 c -3.007,0.5078 -6.07,0.9766 -9.183,1.4063 -11.571,12.9179 -27.965,32.3242 -49.199,58.2226 V 61.4453 c 0,-5.5469 0.125,-11.3281 0.375,-17.3437 0.14,-4.1602 0.355,-6.6797 0.644,-7.5782 0.141,-0.4296 0.387,-0.7812 0.727,-1.0351 0.34,-0.2735 0.937,-0.4688 1.797,-0.5664 2.332,-0.293 4.031,-0.4297 5.101,-0.4297 0.219,0 0.574,0.0195 1.074,0.0508 v -4.3477 c -6.804,0.0977 -10.672,0.1563 -11.609,0.1563 -3.481,0 -8.207,-0.125 -14.168,-0.3711 v 4.5625"
         style="fill:#9ca3af;fill-opacity:1;fill-rule:nonzero;stroke:none"
         transform="matrix(0.13333333,0,0,-0.13333333,0,61.693333)" />
      <path
         id="path42"
         d="m 689.371,105.117 v -4.726 c -3.641,-0.11 -5.801,-0.235 -6.484,-0.4105 -0.684,-0.1563 -1.172,-0.3516 -1.461,-0.586 -0.289,-0.2343 -0.485,-0.5273 -0.59,-0.8789 -0.254,-0.6172 -0.438,-1.7773 -0.543,-3.4961 -0.074,-0.9375 -0.125,-2.6836 -0.16,-5.2617 -0.145,-8.8125 -0.215,-13.5586 -0.215,-14.2305 V 53.8789 l 0.16,-9.8359 c 0,-3.6836 0.18,-6.0821 0.543,-7.1875 0.141,-0.5078 0.387,-0.8985 0.727,-1.1524 0.34,-0.2734 0.882,-0.4883 1.621,-0.6445 0.738,-0.1758 2.871,-0.2852 6.402,-0.3516 v -4.7265 c -5.836,0.2461 -12.066,0.3711 -18.691,0.3711 -5.77,0 -10.907,-0.125 -15.414,-0.3711 v 4.7265 c 3.722,0.1368 5.871,0.2657 6.445,0.3711 0.75,0.1367 1.262,0.3438 1.527,0.586 0.274,0.2539 0.438,0.5468 0.512,0.8593 0.105,0.4297 0.25,2.1211 0.43,5.0586 0.289,4.2969 0.429,8.2618 0.429,11.9141 V 75.957 c 0,7.1172 -0.035,11.6993 -0.105,13.75 -0.184,4.5391 -0.399,7.3828 -0.649,8.5352 -0.105,0.4687 -0.277,0.8203 -0.511,1.0742 -0.231,0.2539 -0.656,0.4492 -1.289,0.625 -0.625,0.1566 -2.891,0.3126 -6.789,0.4496 v 4.726 c 4.507,-0.254 9.683,-0.371 15.519,-0.371 6.555,0 12.75,0.117 18.586,0.371"
         style="fill:#9ca3af;fill-opacity:1;fill-rule:nonzero;stroke:none"
         transform="matrix(0.13333333,0,0,-0.13333333,0,61.693333)" />
      <path
         id="path43"
         d="m 732.77,29.6016 c -3.043,7.5078 -5.961,14.6562 -8.754,21.414 l -7.629,18.1953 c -5.981,14.2735 -9.657,22.7813 -11.035,25.5157 -1.383,2.7343 -2.426,4.2968 -3.145,4.6992 -1.074,0.5742 -3.297,0.8872 -6.66,0.9652 v 4.726 c 8.594,-0.254 13.824,-0.371 15.683,-0.371 l 19.282,0.371 v -4.726 c -3.008,-0.039 -5.192,-0.215 -6.551,-0.5355 -0.785,-0.1875 -1.332,-0.4414 -1.637,-0.7735 -0.308,-0.3515 -0.461,-0.7812 -0.461,-1.3164 0,-1.0742 1.184,-4.4726 3.547,-10.1992 1.363,-3.2891 2.086,-5.0664 2.172,-5.3398 0.094,-0.2735 0.207,-0.6055 0.352,-0.9961 l 13.574,-33.1172 11.933,29.5234 c 0.289,0.6836 1.559,4.0625 3.821,10.1446 1.609,4.289 2.593,7.1679 2.953,8.6445 0.066,0.4297 0.105,0.8594 0.105,1.289 0,0.6055 -0.093,1.0547 -0.297,1.3672 -0.195,0.293 -0.453,0.5274 -0.777,0.6641 -0.254,0.1094 -0.894,0.1953 -1.933,0.2739 -2.329,0.214 -4.293,0.332 -5.907,0.371 v 4.726 l 13.645,-0.371 11.597,0.371 v -4.726 c -3.468,-0.325 -5.496,-0.7035 -6.066,-1.1332 -0.969,-0.7422 -2.988,-4.8047 -6.07,-12.1797 l -3.813,-8.914 -7.254,-17.2735 C 747.289,46.1523 743.113,35.7227 740.934,29.6016 h -8.164"
         style="fill:#9ca3af;fill-opacity:1;fill-rule:nonzero;stroke:none"
         transform="matrix(0.13333333,0,0,-0.13333333,0,61.693333)" />
      <path
         id="path44"
         d="m 785.027,29.9805 v 2.8906 c 2.153,1.0078 3.903,2.0508 5.266,3.125 0.215,1.5039 0.395,3.9375 0.535,7.3047 0.289,6.1523 0.434,10.625 0.434,13.418 v 24.1796 c 0,0.9258 -0.055,4.4141 -0.164,10.4688 -0.106,4.043 -0.356,6.5234 -0.75,7.4101 -0.18,0.3633 -0.45,0.625 -0.805,0.8125 -0.969,0.4302 -3.547,0.7422 -7.734,0.9572 v 4.141 l 12.461,0.097 c 2.468,0 4.832,0.012 7.085,0.012 4.907,0 10.375,0.047 16.387,0.164 l 10.903,0.266 c 1.289,0 3.906,-0.071 7.847,-0.215 0.356,0 0.942,-0.11 1.762,-0.324 l 0.391,-0.704 -1.04,-7.734 c -0.039,-0.5273 -0.21,-3.1055 -0.527,-7.7344 h -4.195 c -0.063,4.2266 -0.238,6.8282 -0.473,7.793 -0.152,0.5078 -0.367,0.8594 -0.64,1.0742 -0.469,0.3203 -1.899,0.6055 -4.297,0.8594 -3.535,0.3906 -7.012,0.5859 -10.395,0.5859 -3.183,0 -6.441,-0.1172 -9.765,-0.3711 -0.497,-4.082 -0.743,-9.2578 -0.743,-15.5468 V 71.8164 c 2.422,-0.1758 4.961,-0.2734 7.602,-0.2734 0.816,0 3.789,0.0781 8.902,0.2148 1.914,0.0391 3.047,0.168 3.403,0.3828 0.332,0.2149 0.586,0.5938 0.781,1.1211 0.43,1.3672 0.664,3.6328 0.738,6.8281 h 4.359 l -0.277,-11.8164 0.277,-11.7695 h -4.359 c 0.039,4.1602 -0.23,6.7188 -0.816,7.6875 -0.434,0.7109 -1.211,1.1602 -2.325,1.3359 -2.5,0.4024 -5.707,0.5938 -9.613,0.5938 -3.496,0 -6.402,-0.125 -8.672,-0.3789 V 43.2227 c 0,-2.5196 0.051,-4.668 0.16,-6.4844 2.887,-0.2461 6.329,-0.3711 10.29,-0.3711 3.871,0 7.421,0.125 10.707,0.3711 3.257,0.2539 5.269,0.6172 6.035,1.0742 0.23,0.1484 0.468,0.4688 0.679,0.9766 0.649,1.7187 1.329,4.9726 2.051,9.7656 h 4.399 c -0.786,-7.0899 -1.172,-12.918 -1.172,-17.5 l -0.703,-0.7031 c -2.305,-0.2539 -5.547,-0.3711 -9.786,-0.3711 l -8.632,0.1758 c -8.535,0.1367 -14.407,0.1953 -17.629,0.1953 -0.86,0 -6.84,-0.125 -17.942,-0.3711"
         style="fill:#9ca3af;fill-opacity:1;fill-rule:nonzero;stroke:none"
         transform="matrix(0.13333333,0,0,-0.13333333,0,61.693333)" />
      <path
         id="path45"
         d="m 850.02,100.715 v 4.402 c 0.82,0 3.691,-0.078 8.593,-0.254 2.403,-0.078 5.801,-0.117 10.203,-0.117 3.762,0 6.985,0.078 9.668,0.234 4.446,0.196 8.11,0.293 11.02,0.293 5.613,0 9.82,-0.402 12.613,-1.21 2.793,-0.801 5.18,-2.481 7.153,-5.02 1.96,-2.5508 2.949,-5.6446 2.949,-9.3086 0,-4.3438 -1.352,-8.2891 -4.028,-11.836 -2.695,-3.5429 -6.824,-6.3554 -12.41,-8.4453 0.899,-1.6015 1.914,-3.2226 3.059,-4.9023 1.148,-1.6602 1.824,-2.6758 2.019,-3.0352 0.196,-0.3554 0.403,-0.6953 0.618,-1.0078 l 8.32,-12.4219 c 2.223,-3.3125 3.426,-5.0898 3.601,-5.332 2.688,-3.5547 4.336,-5.6523 4.942,-6.2891 0.605,-0.6445 1.203,-1.0937 1.765,-1.3359 0.579,-0.2461 1.711,-0.3945 3.391,-0.4219 v -4.7265 c -5.516,0.1367 -9.504,0.2148 -11.98,0.2148 -2.864,0 -5.703,-0.0781 -8.536,-0.2148 -0.175,0.7812 -0.609,1.7968 -1.292,3.0547 l -11.493,18.957 c -3.293,5.4492 -6.086,9.7266 -8.379,12.8437 -1.14,1.5704 -2.253,2.7618 -3.332,3.543 l 0.586,1.7774 c 4.297,-0.1446 7.539,0.2929 9.731,1.3085 2.183,1.0235 4.019,2.8516 5.523,5.4883 1.504,2.6367 2.27,5.586 2.27,8.8594 0,3.2969 -0.793,6.043 -2.364,8.2305 -1.585,2.1875 -3.539,3.7109 -5.863,4.5703 -1.504,0.5469 -4.187,0.8125 -8.054,0.8125 -1.719,0 -3.418,-0.1485 -5.11,-0.4336 -0.098,-1.2891 -0.215,-4.1875 -0.308,-8.6992 -0.215,-10.1367 -0.332,-16.9141 -0.332,-20.3203 0,-5.3829 0.054,-11.0743 0.164,-17.1016 0.144,-7.3828 0.253,-11.5703 0.324,-12.5781 0.105,-2.0117 0.301,-3.3203 0.586,-3.9258 0.144,-0.2813 0.379,-0.5469 0.703,-0.7813 0.32,-0.2343 0.84,-0.4179 1.558,-0.5664 0.715,-0.1367 2.793,-0.2461 6.235,-0.3125 v -4.7265 c -6.137,0.2461 -12.324,0.3711 -18.598,0.3711 -5.586,0 -10.75,-0.125 -15.515,-0.3711 v 4.7265 c 4.082,0.1368 6.496,0.3321 7.253,0.586 0.43,0.1054 0.747,0.2929 0.942,0.5351 0.191,0.2461 0.348,0.7539 0.445,1.5157 0.258,1.3867 0.434,3.5078 0.551,6.3398 l 0.43,15.6914 v 19.9414 l -0.278,11.3477 c -0.066,4.4726 -0.281,7.1679 -0.64,8.0664 -0.176,0.3906 -0.442,0.6953 -0.801,0.9101 -0.852,0.4254 -3.488,0.7894 -7.902,1.0744"
         style="fill:#9ca3af;fill-opacity:1;fill-rule:nonzero;stroke:none"
         transform="matrix(0.13333333,0,0,-0.13333333,0,61.693333)" />
      <path
         id="path46"
         d="m 980.422,85.5078 h -4.516 c -0.066,4.1602 -0.242,7.0899 -0.523,8.8086 -1.113,1.582 -3.039,2.9805 -5.774,4.1992 -2.734,1.211 -5.8,1.8164 -9.187,1.8164 -4.863,0 -8.625,-1.2304 -11.289,-3.6836 -2.668,-2.4492 -3.996,-5.332 -3.996,-8.6289 0.039,-2.375 0.429,-4.289 1.179,-5.7539 0.754,-1.4726 1.829,-2.6367 3.215,-3.4961 1.399,-0.8711 3.457,-1.6601 6.172,-2.3711 2.07,-0.4296 4.961,-0.9687 8.66,-1.6132 3.703,-0.6446 6.106,-1.0938 7.219,-1.3477 2.898,-0.75 5.234,-1.6602 7.031,-2.7148 1.785,-1.0547 3.203,-2.2657 4.258,-3.6524 1.055,-1.3789 1.926,-3.1172 2.609,-5.2148 0.672,-2.0899 1.012,-4.4453 1.012,-7.0586 0,-4.5821 -0.945,-8.6133 -2.847,-12.0821 -1.426,-2.6171 -3.418,-5.0117 -5.957,-7.1796 -2.543,-2.168 -5.161,-3.7891 -7.844,-4.8594 -4.297,-1.7227 -9.453,-2.5781 -15.469,-2.5781 -4.402,0 -8.328,0.4101 -11.77,1.2382 -3.433,0.8204 -7.207,2.2266 -11.328,4.2383 1.118,4.0821 1.684,10.293 1.719,18.6328 h 4.516 c -0.071,-2.5781 0.125,-5.8007 0.586,-9.6406 1.367,-2.2226 3.687,-4.1875 6.992,-5.8672 3.289,-1.6875 6.883,-2.539 10.789,-2.539 3.398,0 6.434,0.6054 9.101,1.8086 2.665,1.1992 4.598,2.8593 5.801,4.9687 1.199,2.1289 1.809,4.5313 1.809,7.2148 0,2.2579 -0.434,4.1915 -1.274,5.8125 -0.836,1.6094 -2.156,2.9102 -3.945,3.8672 -1.785,0.9766 -4.937,1.9727 -9.449,3.0196 -6.484,1.3554 -10.742,2.3515 -12.785,2.957 -3.074,0.9258 -5.559,2.2656 -7.442,4.0234 -1.875,1.7578 -3.281,3.8868 -4.211,6.3672 -0.933,2.4922 -1.406,5.1758 -1.406,8.0274 0,4.0234 0.852,7.7148 2.531,11.0937 1.68,3.3906 3.907,6.0156 6.661,7.8707 2.753,1.868 5.871,3.204 9.343,4.004 3.481,0.801 7.032,1.211 10.688,1.211 3.797,0 7.476,-0.34 11.043,-1.015 3.562,-0.684 6.648,-1.661 9.265,-2.95 l 0.434,-1.289 c -0.512,-2.3239 -0.871,-4.5895 -1.105,-6.8278 -0.235,-2.2344 -0.403,-5.164 -0.516,-8.8164"
         style="fill:#9ca3af;fill-opacity:1;fill-rule:nonzero;stroke:none"
         transform="matrix(0.13333333,0,0,-0.13333333,0,61.693333)" />
      <path
         id="path47"
         d="m 1029.36,105.117 v -4.726 c -3.65,-0.11 -5.81,-0.235 -6.49,-0.4105 -0.68,-0.1563 -1.17,-0.3516 -1.45,-0.586 -0.3,-0.2343 -0.49,-0.5273 -0.6,-0.8789 -0.25,-0.6172 -0.43,-1.7773 -0.55,-3.4961 -0.06,-0.9375 -0.11,-2.6836 -0.15,-5.2617 -0.15,-8.8125 -0.22,-13.5586 -0.22,-14.2305 V 53.8789 l 0.16,-9.8359 c 0,-3.6836 0.18,-6.0821 0.55,-7.1875 0.14,-0.5078 0.38,-0.8985 0.72,-1.1524 0.35,-0.2734 0.89,-0.4883 1.62,-0.6445 0.74,-0.1758 2.88,-0.2852 6.41,-0.3516 v -4.7265 c -5.84,0.2461 -12.07,0.3711 -18.7,0.3711 -5.76,0 -10.894,-0.125 -15.406,-0.3711 v 4.7265 c 3.723,0.1368 5.866,0.2657 6.446,0.3711 0.74,0.1367 1.26,0.3438 1.52,0.586 0.28,0.2539 0.44,0.5468 0.51,0.8593 0.12,0.4297 0.25,2.1211 0.43,5.0586 0.29,4.2969 0.43,8.2618 0.43,11.9141 V 75.957 c 0,7.1172 -0.03,11.6993 -0.1,13.75 -0.18,4.5391 -0.4,7.3828 -0.64,8.5352 -0.12,0.4687 -0.29,0.8203 -0.52,1.0742 -0.23,0.2539 -0.66,0.4492 -1.29,0.625 -0.62,0.1566 -2.892,0.3126 -6.786,0.4496 v 4.726 c 4.512,-0.254 9.676,-0.371 15.516,-0.371 6.55,0 12.75,0.117 18.59,0.371"
         style="fill:#9ca3af;fill-opacity:1;fill-rule:nonzero;stroke:none"
         transform="matrix(0.13333333,0,0,-0.13333333,0,61.693333)" />
      <path
         id="path48"
         d="m 1052.25,29.9805 v 4.3945 c 4.29,0.1484 6.84,0.4297 7.64,0.8594 0.81,0.4297 1.36,1.1523 1.64,2.1484 0.39,1.543 0.6,6.1836 0.6,13.918 v 32.1758 c 0,8.7695 -0.06,13.6718 -0.17,14.707 h -7.68 c -3.87,0 -7.27,-0.1172 -10.2,-0.3711 -1.19,-0.1094 -1.86,-0.2539 -2.05,-0.4297 -0.24,-0.2148 -0.46,-0.8398 -0.64,-1.875 -0.46,-2.5117 -0.74,-5.3203 -0.8,-8.4375 h -4.46 c -0.14,7.3438 -0.23,11.4766 -0.27,12.4024 -0.11,1.5823 -0.28,3.2813 -0.54,5.1053 l 0.48,0.539 c 1.69,-0.176 3.48,-0.301 5.37,-0.371 3.08,-0.117 9,-0.168 17.77,-0.168 h 21.68 c 9.02,0 15.04,0.051 18.08,0.168 1.65,0.07 3.31,0.195 4.99,0.371 l 0.55,-0.539 c -0.33,-2.176 -0.53,-4.098 -0.6,-5.7499 -0.04,-0.2812 -0.1,-4.1992 -0.21,-11.7578 h -4.47 c -0.06,2.793 -0.3,5.457 -0.69,8.0078 -0.21,1.2891 -0.45,2.0508 -0.69,2.3047 -0.22,0.1758 -0.79,0.3047 -1.72,0.3711 -2.94,0.293 -6.47,0.4297 -10.59,0.4297 h -7.67 c -0.12,-1.25 -0.17,-6.1523 -0.17,-14.707 V 51.3008 c 0,-7.7344 0.2,-12.3945 0.6,-13.9649 0.24,-0.9296 0.78,-1.6211 1.6,-2.0625 0.83,-0.4492 3.39,-0.75 7.68,-0.8984 v -4.3945 c -6.93,0.3125 -12.78,0.4804 -17.53,0.4804 -5.08,0 -10.92,-0.1679 -17.53,-0.4804"
         style="fill:#9ca3af;fill-opacity:1;fill-rule:nonzero;stroke:none"
         transform="matrix(0.13333333,0,0,-0.13333333,0,61.693333)" />
      <path
         id="path49"
         d="m 1149.59,69.5117 6.75,10.9375 c 1.14,1.9727 4.54,7.9571 10.18,17.9688 1.98,3.43 3.21,5.664 3.7,6.699 h 8.51 v -2.422 c -4.35,-5.8317 -9.02,-12.695 -14.05,-20.5661 -5.02,-7.8711 -8.13,-12.9492 -9.31,-15.1953 -0.79,-1.543 -1.31,-2.8906 -1.56,-4.0352 -0.18,-0.8281 -0.27,-2.164 -0.27,-4.0312 v -9.0703 c 0,-4.543 0.11,-7.8633 0.35,-9.9336 0.23,-2.082 0.51,-3.3399 0.83,-3.7695 0.33,-0.4297 0.86,-0.7422 1.62,-0.9571 0.74,-0.2148 3.1,-0.3633 7.09,-0.4297 v -4.7265 c -6.84,0.2461 -13,0.3711 -18.51,0.3711 -5.36,0 -10.8,-0.125 -16.3,-0.3711 v 4.7265 c 4.09,0.1368 6.47,0.293 7.17,0.4805 0.69,0.1836 1.18,0.4492 1.45,0.8086 0.27,0.3516 0.46,1.4258 0.56,3.2227 0.18,4.082 0.28,7.5507 0.28,10.4101 v 10.2149 c 0,0.8203 -0.69,2.5195 -2.05,5.0976 -3.36,6.1524 -6.97,12.2266 -10.8,18.2031 -3.11,4.875 -6.01,8.7813 -8.7,11.7188 -1.78,1.9336 -3.06,3.0859 -3.81,3.4883 -0.46,0.2148 -2.05,0.3203 -4.72,0.3203 v 4.0231 l 11.38,2.266 c 1.92,0.43 3.91,0.906 5.95,1.445 2.18,-1.211 3.77,-2.304 4.78,-3.242 0.99,-0.957 2.37,-2.734 4.13,-5.3515 2.61,-3.8672 5.2,-8.3203 7.78,-13.3789 4.18,-8.0859 6.71,-13.0664 7.57,-14.9219"
         style="fill:#9ca3af;fill-opacity:1;fill-rule:nonzero;stroke:none"
         transform="matrix(0.13333333,0,0,-0.13333333,0,61.693333)" />
      <path
         id="path50"
         d="m 1220.79,45.6641 c 0,-4.4141 0.83,-7.5586 2.49,-9.4532 1.67,-1.9023 4.02,-2.8515 7.06,-2.8515 2.05,0 3.81,0.4883 5.29,1.4844 1.49,0.9765 2.86,2.5781 4.09,4.7656 1.24,2.207 2.37,5.2461 3.41,9.1133 1.51,5.6523 2.25,11.0625 2.25,16.2187 0,4.375 -0.86,7.5313 -2.6,9.4727 -1.74,1.9531 -4,2.9297 -6.79,2.9297 -2.86,0 -5.32,-1.0547 -7.37,-3.1836 -2.03,-2.1368 -3.85,-6.1914 -5.45,-12.168 -1.59,-5.9844 -2.38,-11.4258 -2.38,-16.3281 z m -12.67,-0.4297 c 0,4.4336 0.74,9.0508 2.22,13.8476 1.49,4.8047 3.09,8.2618 4.81,10.3711 1.07,1.3282 2.98,3.0664 5.72,5.2344 2.73,2.168 5.74,3.9648 9.02,5.3711 3.27,1.418 6.76,2.1289 10.45,2.1289 3.08,0 5.89,-0.4687 8.43,-1.4062 2.54,-0.9258 4.46,-2.129 5.75,-3.6133 1.29,-1.4922 2.24,-3.2813 2.84,-5.3516 0.61,-2.0703 0.91,-4.3555 0.91,-6.8164 0,-4.6953 -0.77,-9.375 -2.33,-14.043 -1.56,-4.6875 -3.35,-8.2539 -5.4,-10.7226 -1.47,-1.7188 -3.76,-3.6328 -6.9,-5.7227 -3.13,-2.0898 -6.14,-3.6914 -9.02,-4.7851 -2.88,-1.0821 -6.13,-1.6289 -9.75,-1.6289 -4.26,0 -7.63,0.75 -10.12,2.2539 -2.49,1.5039 -4.22,3.5742 -5.19,6.2109 -0.97,2.6172 -1.44,5.5156 -1.44,8.6719"
         style="fill:#9ca3af;fill-opacity:1;fill-rule:nonzero;stroke:none"
         transform="matrix(0.13333333,0,0,-0.13333333,0,61.693333)" />
      <path
         id="path51"
         d="m 1269.24,74.5508 0.48,2.7461 c 1.14,0.4297 2.89,0.9765 5.24,1.6289 2.36,0.664 4.29,1.3476 5.78,2.0195 0.19,0.5391 0.42,1.4883 0.71,2.8438 0.68,3.0859 1.32,5.1953 1.93,6.3476 0.97,1.7891 2.46,3.6328 4.46,5.5274 3.12,2.9023 6.58,5.7229 10.4,8.4839 3.82,2.766 6.33,4.399 7.53,4.915 1.2,0.527 2.89,0.781 5.08,0.781 1.44,0 2.9,-0.293 4.41,-0.86 -1.43,-4.836 -2.46,-9.3942 -3.06,-13.691 l -1.61,-0.3321 c -1.51,2.2657 -2.97,3.8477 -4.41,4.7852 -1.43,0.9379 -2.72,1.3989 -3.87,1.3989 -0.89,0 -1.75,-0.247 -2.57,-0.754 -0.82,-0.5082 -1.48,-1.1801 -1.97,-2.0394 -0.48,-0.8633 -0.97,-2.1797 -1.47,-3.9766 -1.29,-4.7656 -2.34,-9.5312 -3.17,-14.2852 h 1.24 c 0.96,-0.0312 3.36,0.0665 7.19,0.3204 2.33,0.1367 4.07,0.3242 5.21,0.5351 l 0.54,-0.8555 c -0.76,-1.9375 -1.3,-3.7812 -1.67,-5.539 -1.68,0.039 -4.43,0.0586 -8.26,0.0586 -2.4,0 -4.19,-0.0196 -5.37,-0.0586 l -5.95,-25.8281 c -2.86,-11.5743 -5.31,-19.9141 -7.33,-25.0508 -2.02,-5.1485 -4.73,-9.668 -8.11,-13.5938 -3.39,-3.92576 -6.82,-6.79685 -10.3,-8.62497 C 1258.5,0.488281 1256.74,0 1255.05,0 c -1.25,0 -2.62,0.3125 -4.08,0.917969 1,2.656251 1.74,4.785161 2.22,6.425781 0.49,1.62109 0.93,3.39845 1.32,5.33205 l 1.72,0.332 c 0.75,-1.7187 1.57,-2.957 2.45,-3.71092 0.88,-0.75 1.86,-1.13282 2.94,-1.13282 1.04,0 2,0.33203 2.88,0.9961 0.88,0.66406 1.64,1.85544 2.29,3.57424 1.26,3.4375 2.91,10.6562 4.96,21.6406 l 7.75,40.1758 c -2.15,0.039 -4.5,0.0586 -7.04,0.0586 -1.29,0 -2.36,-0.0196 -3.22,-0.0586"
         style="fill:#9ca3af;fill-opacity:1;fill-rule:nonzero;stroke:none"
         transform="matrix(0.13333333,0,0,-0.13333333,0,61.693333)" />
      <path
         id="path52"
         d="m 1387.07,56.0742 h -4.73 c -0.11,4.4844 -0.42,7.1875 -0.91,8.1172 -0.25,0.457 -0.89,0.8086 -1.93,1.0234 -2.64,0.461 -6.82,0.6915 -12.54,0.6915 -0.82,0 -2.24,-0.0157 -4.28,-0.0469 v -5.9649 c 0,-8.4882 0.1,-14.4453 0.3,-17.8632 0.19,-3.418 0.47,-5.4102 0.83,-5.9844 0.25,-0.4024 0.7,-0.7149 1.35,-0.9492 0.64,-0.2266 3.44,-0.5274 8.42,-0.8789 v -4.2383 l -21.08,0.3711 c -3.05,0 -7.87,-0.125 -14.47,-0.3711 v 4.4531 c 4.14,0.0781 6.54,0.2344 7.18,0.4883 0.33,0.0976 0.6,0.2929 0.82,0.5859 0.32,0.4297 0.57,1.3672 0.75,2.793 0.1,0.8203 0.25,3.418 0.43,7.7539 0.18,4.3555 0.27,7.4805 0.27,9.375 v 22.2461 c 0,0.5 -0.16,5.5078 -0.49,15.039 -0.07,2.754 -0.26,4.7071 -0.58,5.8516 -0.11,0.3984 -0.29,0.6914 -0.52,0.8867 -0.24,0.1953 -0.74,0.3828 -1.51,0.5669 -0.78,0.175 -2.9,0.371 -6.35,0.585 v 4.512 l 19.08,-0.371 25.86,0.481 c 3.62,0 7.05,-0.188 10.27,-0.539 l 0.49,-0.75 c -0.4,-2.043 -0.74,-4.6411 -1.02,-7.7857 -0.29,-3.1562 -0.45,-5.9179 -0.48,-8.2812 h -4.42 c 0,0.8594 -0.09,2.7812 -0.26,5.7812 -0.07,1.5625 -0.18,2.5079 -0.32,2.8321 -0.11,0.2461 -0.28,0.4297 -0.49,0.5273 -0.65,0.4297 -2.14,0.8477 -4.48,1.2617 -2.35,0.4102 -5.09,0.6133 -8.25,0.6133 -0.6,0 -2.3,-0.0469 -5.07,-0.1367 -2.78,-0.0977 -4.66,-0.1758 -5.67,-0.2344 -0.39,-3.5664 -0.59,-9.9922 -0.59,-19.2773 v -7.4805 c 4.58,-0.2422 7.66,-0.3711 9.26,-0.3711 4.65,0 7.58,0.2149 8.79,0.6446 0.46,0.1367 0.8,0.5585 1.02,1.2304 0.32,0.8985 0.52,2.9375 0.59,6.1328 h 4.73 c 0,-6.0937 0,-13.8672 0,-23.3203"
         style="fill:#9ca3af;fill-opacity:1;fill-rule:nonzero;stroke:none"
         transform="matrix(0.13333333,0,0,-0.13333333,0,61.693333)" />
      <path
         id="path53"
         d="m 1403.13,29.9805 v 2.7539 c 0.93,0.3906 2.24,1.0937 3.92,2.0898 0.75,0.4297 1.24,0.7891 1.46,1.0742 0.13,0.1875 0.22,0.3789 0.26,0.5938 0.18,0.8906 0.34,4.0937 0.48,9.582 0.14,5.4961 0.21,12.0899 0.21,19.7852 0,11.3203 -0.03,18.3008 -0.08,20.9492 -0.12,6.7266 -0.35,10.5742 -0.67,11.543 -0.15,0.4257 -0.41,0.75 -0.81,0.9648 -0.83,0.5391 -3.58,0.8986 -8.26,1.0746 v 4.726 c 4.55,-0.254 9.74,-0.371 15.57,-0.371 6.52,0 12.7,0.117 18.53,0.371 v -4.726 c -4.04,-0.176 -6.51,-0.5082 -7.4,-0.9652 -0.4,-0.2149 -0.69,-0.5586 -0.86,-1.0469 -0.19,-0.4883 -0.35,-2.6953 -0.52,-6.6211 -0.16,-3.9453 -0.24,-8.914 -0.24,-14.9219 0,-0.6445 0.02,-5.8203 0.06,-15.5078 0.03,-5.1172 0.05,-10.1953 0.07,-15.2148 0.02,-5.0391 0.05,-8.086 0.08,-9.1602 4.94,-0.2422 8.31,-0.3711 10.1,-0.3711 5.45,0 10.19,0.3203 14.24,0.9688 1.46,0.2148 2.34,0.4453 2.63,0.6914 0.29,0.2539 0.59,0.918 0.91,1.9922 0.72,2.7148 1.42,5.8398 2.1,9.3437 h 4.46 c -0.11,-1.0039 -0.16,-1.5898 -0.16,-1.7656 l -1.35,-10.8594 c -0.28,-3.3984 -0.45,-5.4375 -0.49,-6.1133 -1.03,-0.2929 -2.07,-0.4882 -3.1,-0.5976 -2.19,-0.1836 -5.58,-0.2617 -10.16,-0.2617 -0.64,0 -4.85,0.0781 -12.62,0.2617 -5.91,0.1484 -10.03,0.2187 -12.36,0.2187 -3.5,0 -8.84,-0.1679 -16,-0.4804"
         style="fill:#9ca3af;fill-opacity:1;fill-rule:nonzero;stroke:none"
         transform="matrix(0.13333333,0,0,-0.13333333,0,61.693333)" />
      <path
         id="path54"
         d="m 1480.9,69.8633 c 0,-8.3594 1.14,-15.2617 3.44,-20.7227 2.29,-5.4687 5.22,-9.3359 8.8,-11.582 3.59,-2.2656 7.81,-3.3984 12.68,-3.3984 4.51,0 8.55,1.0742 12.11,3.2343 3.56,2.1485 6.36,5.7891 8.38,10.9063 2.02,5.1289 3.04,11.3476 3.04,18.6523 0,5.0196 -0.55,9.6094 -1.64,13.7696 -1.1,4.1484 -2.66,7.6953 -4.7,10.6054 -2.04,2.9297 -4.46,5.1563 -7.23,6.6992 -2.77,1.543 -6.45,2.3047 -11.03,2.3047 -5.23,0 -9.68,-1.2226 -13.35,-3.6718 -3.68,-2.461 -6.34,-6.0938 -8,-10.8868 -1.67,-4.8046 -2.5,-10.1093 -2.5,-15.9101 z m -16.54,-3.2031 c 0,6.5546 0.99,12.2656 2.97,17.1289 2,4.8711 4.83,9.0039 8.52,12.4101 3.69,3.4102 7.69,5.8518 12.03,7.3558 5.55,1.906 11.6,2.851 18.16,2.851 6.51,0 12.42,-0.918 17.72,-2.734 3.94,-1.406 7.42,-3.418 10.45,-6.0548 3.03,-2.6172 5.32,-5.3125 6.9,-8.0742 1.58,-2.7657 2.77,-5.7813 3.57,-9.0742 0.81,-3.3008 1.21,-6.9336 1.21,-10.9063 0,-6.7305 -1.16,-12.9805 -3.49,-18.7422 -1.72,-4.2969 -4.24,-8.1172 -7.55,-11.4453 -3.31,-3.3281 -7.08,-5.8906 -11.31,-7.6758 -5.8,-2.4023 -12.42,-3.6015 -19.87,-3.6015 -8.05,0 -14.98,1.4531 -20.76,4.3828 -5.78,2.9101 -10.32,7.2148 -13.61,12.9101 -3.29,5.6953 -4.94,12.7852 -4.94,21.2696"
         style="fill:#9ca3af;fill-opacity:1;fill-rule:nonzero;stroke:none"
         transform="matrix(0.13333333,0,0,-0.13333333,0,61.693333)" />
      <path
         id="path55"
         d="m 1548,100.715 v 4.402 c 0.82,0 3.69,-0.078 8.59,-0.254 2.4,-0.078 5.8,-0.117 10.21,-0.117 3.76,0 6.98,0.078 9.66,0.234 4.45,0.196 8.11,0.293 11.02,0.293 5.62,0 9.82,-0.402 12.62,-1.21 2.79,-0.801 5.17,-2.481 7.15,-5.02 1.96,-2.5508 2.95,-5.6446 2.95,-9.3086 0,-4.3438 -1.35,-8.2891 -4.03,-11.836 -2.69,-3.5429 -6.82,-6.3554 -12.41,-8.4453 0.9,-1.6015 1.91,-3.2226 3.06,-4.9023 1.15,-1.6602 1.82,-2.6758 2.02,-3.0352 0.19,-0.3554 0.4,-0.6953 0.61,-1.0078 l 8.32,-12.4219 c 2.23,-3.3125 3.43,-5.0898 3.61,-5.332 2.68,-3.5547 4.33,-5.6523 4.94,-6.2891 0.6,-0.6445 1.2,-1.0937 1.77,-1.3359 0.57,-0.2461 1.7,-0.3945 3.38,-0.4219 v -4.7265 c -5.51,0.1367 -9.5,0.2148 -11.98,0.2148 -2.86,0 -5.7,-0.0781 -8.53,-0.2148 -0.18,0.7812 -0.61,1.7968 -1.29,3.0547 l -11.5,18.957 c -3.29,5.4492 -6.08,9.7266 -8.38,12.8437 -1.14,1.5704 -2.25,2.7618 -3.33,3.543 l 0.59,1.7774 c 4.3,-0.1446 7.54,0.2929 9.73,1.3085 2.18,1.0235 4.02,2.8516 5.52,5.4883 1.51,2.6367 2.27,5.586 2.27,8.8594 0,3.2969 -0.79,6.043 -2.36,8.2305 -1.58,2.1875 -3.54,3.7109 -5.86,4.5703 -1.51,0.5469 -4.19,0.8125 -8.06,0.8125 -1.72,0 -3.42,-0.1485 -5.11,-0.4336 -0.09,-1.2891 -0.21,-4.1875 -0.31,-8.6992 -0.21,-10.1367 -0.33,-16.9141 -0.33,-20.3203 0,-5.3829 0.06,-11.0743 0.17,-17.1016 0.14,-7.3828 0.25,-11.5703 0.32,-12.5781 0.1,-2.0117 0.3,-3.3203 0.58,-3.9258 0.15,-0.2813 0.38,-0.5469 0.71,-0.7813 0.32,-0.2343 0.84,-0.4179 1.56,-0.5664 0.71,-0.1367 2.79,-0.2461 6.23,-0.3125 v -4.7265 c -6.13,0.2461 -12.32,0.3711 -18.59,0.3711 -5.59,0 -10.76,-0.125 -15.52,-0.3711 v 4.7265 c 4.08,0.1368 6.49,0.3321 7.25,0.586 0.43,0.1054 0.75,0.2929 0.94,0.5351 0.2,0.2461 0.35,0.7539 0.45,1.5157 0.25,1.3867 0.43,3.5078 0.55,6.3398 l 0.43,15.6914 v 19.9414 l -0.28,11.3477 c -0.06,4.4726 -0.28,7.1679 -0.64,8.0664 -0.18,0.3906 -0.44,0.6953 -0.8,0.9101 -0.85,0.4254 -3.49,0.7894 -7.9,1.0744"
         style="fill:#9ca3af;fill-opacity:1;fill-rule:nonzero;stroke:none"
         transform="matrix(0.13333333,0,0,-0.13333333,0,61.693333)" />
      <path
         id="path56"
         d="m 1662.35,105.117 v -4.726 c -3.64,-0.11 -5.8,-0.235 -6.48,-0.4105 -0.68,-0.1563 -1.17,-0.3516 -1.46,-0.586 -0.29,-0.2343 -0.48,-0.5273 -0.59,-0.8789 -0.26,-0.6172 -0.43,-1.7773 -0.55,-3.4961 -0.07,-0.9375 -0.12,-2.6836 -0.15,-5.2617 -0.15,-8.8125 -0.22,-13.5586 -0.22,-14.2305 V 53.8789 l 0.16,-9.8359 c 0,-3.6836 0.18,-6.0821 0.54,-7.1875 0.15,-0.5078 0.38,-0.8985 0.73,-1.1524 0.35,-0.2734 0.88,-0.4883 1.62,-0.6445 0.74,-0.1758 2.88,-0.2852 6.4,-0.3516 v -4.7265 c -5.84,0.2461 -12.07,0.3711 -18.69,0.3711 -5.76,0 -10.9,-0.125 -15.41,-0.3711 v 4.7265 c 3.72,0.1368 5.87,0.2657 6.45,0.3711 0.74,0.1367 1.26,0.3438 1.52,0.586 0.27,0.2539 0.44,0.5468 0.51,0.8593 0.12,0.4297 0.25,2.1211 0.43,5.0586 0.29,4.2969 0.43,8.2618 0.43,11.9141 V 75.957 c 0,7.1172 -0.03,11.6993 -0.1,13.75 -0.19,4.5391 -0.4,7.3828 -0.64,8.5352 -0.12,0.4687 -0.29,0.8203 -0.52,1.0742 -0.24,0.2539 -0.67,0.4492 -1.29,0.625 -0.63,0.1566 -2.89,0.3126 -6.79,0.4496 v 4.726 c 4.51,-0.254 9.68,-0.371 15.52,-0.371 6.55,0 12.74,0.117 18.58,0.371"
         style="fill:#9ca3af;fill-opacity:1;fill-rule:nonzero;stroke:none"
         transform="matrix(0.13333333,0,0,-0.13333333,0,61.693333)" />
      <path
         id="path57"
         d="m 1694.37,36.582 c 3.34,-0.5351 6.52,-0.8007 9.57,-0.8007 4.75,0 8.98,0.496 12.67,1.5039 2.72,0.7421 5.1,1.8359 7.14,3.2734 2.04,1.4336 4,3.543 5.88,6.3359 1.88,2.793 3.34,6.125 4.38,9.9922 1.04,3.8672 1.56,8.0352 1.56,12.5078 0,4.0821 -0.52,8.0274 -1.56,11.8555 -1.04,3.8086 -2.74,7.1484 -5.1,10.0117 -2.37,2.8594 -5.36,4.9375 -8.98,6.2266 -3.61,1.289 -9.09,1.9375 -16.42,1.9375 -2.77,0 -5.8,-0.2344 -9.14,-0.6953 -0.36,-5.086 -0.53,-14.6485 -0.53,-28.711 V 57.6758 c 0,-10.6641 0.17,-17.6953 0.53,-21.0938 z m -21.43,-6.6015 v 2.5781 c 0.28,0.1758 0.78,0.4609 1.48,0.8594 1.35,0.7422 2.59,1.5312 3.73,2.3633 0.39,4.7929 0.59,12.5781 0.59,23.3593 v 8.8086 c 0,4.7266 -0.09,11.6602 -0.27,20.7813 -0.1,5.0586 -0.34,8.2812 -0.7,9.6679 -0.1,0.3321 -0.24,0.5782 -0.42,0.7618 -0.29,0.2812 -0.73,0.4961 -1.33,0.6445 -0.61,0.1367 -2.86,0.4613 -6.73,0.9573 v 4.355 l 19.48,-0.371 c 2.29,0 6.6,0.098 12.94,0.293 4.58,0.129 8.24,0.188 11,0.188 6.33,0 11.41,-0.383 15.22,-1.164 3.81,-0.762 7.13,-1.993 9.95,-3.692 2.83,-1.7108 5.22,-3.7226 7.17,-6.0546 1.95,-2.3242 3.43,-4.8242 4.43,-7.5195 1.68,-4.5117 2.52,-9.4531 2.52,-14.8242 0,-6.836 -1.25,-12.9414 -3.76,-18.3125 -2.5,-5.3672 -5.95,-9.8594 -10.33,-13.4844 -4.38,-3.6133 -9.13,-6.211 -14.25,-7.8125 -5.12,-1.5899 -11.29,-2.3828 -18.51,-2.3828 l -15.95,0.3711 -16.26,-0.3711"
         style="fill:#9ca3af;fill-opacity:1;fill-rule:nonzero;stroke:none"
         transform="matrix(0.13333333,0,0,-0.13333333,0,61.693333)" />
      <path
         id="path58"
         d="m 1770.6,59.0313 c 3.36,-0.1055 7.18,-0.1641 11.46,-0.1641 4.12,0 7.81,0.0586 11.08,0.1641 l -11.49,27.7656 z m -23.69,-29.0508 v 4.4531 c 2.89,0.2148 4.62,0.4102 5.18,0.5664 0.56,0.1563 1.04,0.4102 1.43,0.7422 0.39,0.3516 0.8,0.8789 1.21,1.6211 0.41,0.7344 1.64,3.457 3.67,8.1836 0.94,2.2265 2.72,6.6094 5.37,13.164 l 14.02,34.5899 4.73,12.1872 h 7.63 l 24.01,-56.0739 3.32,-7.3516 2.15,-4.9453 c 0.36,-0.6406 0.7,-1.1016 1.02,-1.3945 0.33,-0.293 0.7,-0.5079 1.11,-0.6446 0.41,-0.1367 1.45,-0.2734 3.14,-0.3711 0.53,-0.0781 1.32,-0.164 2.37,-0.2734 v -4.4531 l -14.94,0.3711 -18.84,-0.3711 v 4.4531 c 4.32,0.1758 6.77,0.4219 7.33,0.7227 0.55,0.3046 0.83,0.8125 0.83,1.5234 0,0.8984 -0.41,2.3633 -1.24,4.3945 l -4.61,11.7774 h -27.68 l -2.37,-6.4258 c -1.78,-4.9219 -2.67,-7.9883 -2.67,-9.207 0,-0.8516 0.29,-1.4571 0.86,-1.8282 0.85,-0.4883 3.41,-0.8203 7.67,-0.957 v -4.4531 l -12.38,0.3711 -12.32,-0.3711"
         style="fill:#9ca3af;fill-opacity:1;fill-rule:nonzero;stroke:none"
         transform="matrix(0.13333333,0,0,-0.13333333,0,61.693333)" />
    </g>
  </g>
</svg>
