<?xml version="1.0" encoding="UTF-8" standalone="no"?>
<svg
   version="1.1"
   id="Layer_1"
   x="0px"
   y="0px"
   viewBox="0 0 54.900002 55.299999"
   xml:space="preserve"
   sodipodi:docname="Offer-all-uni-programs.svg"
   inkscape:export-filename="roboboat.svg"
   inkscape:export-xdpi="524.59021"
   inkscape:export-ydpi="524.59021"
   width="54.900002"
   height="55.299999"
   inkscape:version="1.4 (e7c3feb1, 2024-10-09)"
   xmlns:inkscape="http://www.inkscape.org/namespaces/inkscape"
   xmlns:sodipodi="http://sodipodi.sourceforge.net/DTD/sodipodi-0.dtd"
   xmlns:xlink="http://www.w3.org/1999/xlink"
   xmlns="http://www.w3.org/2000/svg"
   xmlns:svg="http://www.w3.org/2000/svg"><defs
   id="defs28" /><sodipodi:namedview
   id="namedview28"
   pagecolor="#ffffff"
   bordercolor="#000000"
   borderopacity="0.25"
   inkscape:showpageshadow="2"
   inkscape:pageopacity="0.0"
   inkscape:pagecheckerboard="0"
   inkscape:deskcolor="#d1d1d1"
   inkscape:zoom="1.4855688"
   inkscape:cx="32.310857"
   inkscape:cy="14.809143"
   inkscape:window-width="1440"
   inkscape:window-height="825"
   inkscape:window-x="3"
   inkscape:window-y="43"
   inkscape:window-maximized="0"
   inkscape:current-layer="Layer_1" /> <style
   type="text/css"
   id="style1"> .st0{fill-rule:evenodd;clip-rule:evenodd;fill:#105388;} .st1{fill-rule:evenodd;clip-rule:evenodd;fill:#00BCE7;} .st2{fill:#105388;} .st3{fill:#00BCE7;} .st4{fill:#48A2DA;} .st5{fill-rule:evenodd;clip-rule:evenodd;fill:#FFFFFF;} .st6{fill:#FFFFFF;} .st7{clip-path:url(#SVGID_2_);fill:#FFFFFF;} .st8{clip-path:url(#SVGID_4_);fill-rule:evenodd;clip-rule:evenodd;fill:#105388;} </style>  <g
   id="g28"
   transform="translate(-119,-5.2)"> <path
   class="st2"
   d="m 122.7,54.4 c -0.9,0 -1.5,0.1 -1.9,0.4 -0.3,0.2 -0.4,0.5 -0.4,0.9 v 4.8 H 119 v -4.8 c 0,-1.8 1.2,-2.7 3.7,-2.7 z"
   id="path13" /> <path
   class="st2"
   d="m 128.9,56.6 c 0,-0.8 -0.1,-1.3 -0.4,-1.7 -0.3,-0.4 -0.9,-0.6 -1.6,-0.6 -0.8,0 -1.3,0.2 -1.6,0.6 -0.3,0.3 -0.4,0.9 -0.4,1.7 0,0.8 0.1,1.3 0.4,1.7 0.3,0.4 0.9,0.6 1.6,0.6 0.8,0 1.3,-0.2 1.6,-0.6 0.3,-0.3 0.4,-0.9 0.4,-1.7 z m 1.5,0 c 0,2.5 -1.2,3.7 -3.5,3.7 -2.3,0 -3.5,-1.2 -3.5,-3.7 0,-2.5 1.2,-3.7 3.5,-3.7 2.3,0 3.5,1.3 3.5,3.7 z"
   id="path14" /> <path
   class="st2"
   d="m 137,56.6 c 0,-0.8 -0.1,-1.3 -0.4,-1.7 -0.3,-0.4 -0.9,-0.6 -1.6,-0.6 h -2 v 2.3 c 0,0.8 0.1,1.3 0.4,1.6 0.3,0.4 0.9,0.6 1.6,0.6 0.8,0 1.3,-0.2 1.6,-0.6 0.3,-0.3 0.4,-0.8 0.4,-1.6 z m 1.5,0 c 0,2.5 -1.2,3.7 -3.5,3.7 -2.3,0 -3.5,-1.2 -3.5,-3.7 V 50 h 1.5 v 2.9 h 2 c 2.3,0 3.5,1.3 3.5,3.7 z"
   id="path15" /> <path
   class="st2"
   d="m 144.6,56.6 c 0,-0.8 -0.1,-1.3 -0.4,-1.7 -0.3,-0.4 -0.9,-0.6 -1.6,-0.6 -0.8,0 -1.3,0.2 -1.6,0.6 -0.3,0.3 -0.4,0.9 -0.4,1.7 0,0.8 0.1,1.3 0.4,1.7 0.3,0.4 0.9,0.6 1.6,0.6 0.8,0 1.3,-0.2 1.6,-0.6 0.3,-0.3 0.4,-0.9 0.4,-1.7 z m 1.5,0 c 0,2.5 -1.2,3.7 -3.5,3.7 -2.3,0 -3.5,-1.2 -3.5,-3.7 0,-2.5 1.2,-3.7 3.5,-3.7 2.3,0 3.5,1.3 3.5,3.7 z"
   id="path16" /> <path
   class="st4"
   d="m 152.8,56.6 c 0,-0.8 -0.1,-1.3 -0.4,-1.7 -0.3,-0.4 -0.9,-0.6 -1.6,-0.6 h -2 v 2.3 c 0,0.8 0.1,1.3 0.4,1.6 0.3,0.4 0.9,0.6 1.6,0.6 0.8,0 1.3,-0.2 1.6,-0.6 0.2,-0.3 0.4,-0.8 0.4,-1.6 z m 1.4,0 c 0,2.5 -1.2,3.7 -3.5,3.7 -2.3,0 -3.5,-1.2 -3.5,-3.7 V 50 h 1.5 v 2.9 h 2 c 2.4,0 3.5,1.3 3.5,3.7 z"
   id="path17" /> <path
   class="st4"
   d="m 160.4,56.6 c 0,-0.8 -0.1,-1.3 -0.4,-1.7 -0.3,-0.4 -0.9,-0.6 -1.6,-0.6 -0.8,0 -1.3,0.2 -1.6,0.6 -0.3,0.3 -0.4,0.9 -0.4,1.7 0,0.8 0.1,1.3 0.4,1.7 0.3,0.4 0.9,0.6 1.6,0.6 0.8,0 1.3,-0.2 1.6,-0.6 0.2,-0.3 0.4,-0.9 0.4,-1.7 z m 1.4,0 c 0,2.5 -1.2,3.7 -3.5,3.7 -2.3,0 -3.5,-1.2 -3.5,-3.7 0,-2.5 1.2,-3.7 3.5,-3.7 2.4,0 3.5,1.3 3.5,3.7 z"
   id="path18" /> <path
   class="st4"
   d="m 167.5,58.1 v -1 c -0.4,0.2 -1,0.2 -1.6,0.2 -0.7,0 -1.1,0.1 -1.4,0.3 -0.1,0.1 -0.2,0.3 -0.2,0.5 0,0.2 0.1,0.4 0.2,0.5 0.2,0.2 0.7,0.3 1.4,0.3 0.7,0 1.1,-0.1 1.4,-0.3 0.1,-0.1 0.2,-0.2 0.2,-0.5 z m 1.4,0 c 0,1.5 -1,2.2 -3,2.2 -1.2,0 -2,-0.3 -2.5,-0.8 -0.3,-0.4 -0.5,-0.9 -0.5,-1.4 0,-0.6 0.2,-1.1 0.5,-1.4 0.5,-0.5 1.3,-0.8 2.5,-0.8 0.7,0 1.1,-0.1 1.4,-0.3 0.1,-0.1 0.2,-0.3 0.2,-0.5 0,-0.2 -0.1,-0.4 -0.2,-0.5 -0.2,-0.2 -0.7,-0.3 -1.4,-0.3 -0.7,0 -1.1,0.1 -1.4,0.3 -0.1,0.1 -0.2,0.3 -0.2,0.5 h -1.5 c 0,-0.6 0.2,-1.1 0.5,-1.4 0.5,-0.5 1.3,-0.8 2.5,-0.8 2,0 3,0.7 3,2.2 v 3 z"
   id="path19" /> <path
   class="st4"
   d="m 173.8,60.4 c -2.5,0 -3.7,-0.9 -3.7,-2.7 V 50 h 1.5 v 2.9 h 2.3 v 1.5 h -2.3 v 3.3 c 0,0.4 0.1,0.7 0.4,0.9 0.3,0.3 1,0.4 1.9,0.4 z"
   id="path20" /> <path
   class="st4"
   d="m 149.3,10.8 c -5.9,1.2 -14.1,1.4 -20.2,-0.6 l -1.6,13.1 7.7,-3 -4.6,19.6 c 6.1,1.6 11.7,1 17.2,0 6.5,-1.1 14.9,-4 25.8,0.4 V 11 C 163.4,6.5 155.5,9.5 149.3,10.8 Z"
   id="path21" /> <path
   class="st5"
   d="m 157.9,28.5 c 1.4,-0.3 2.8,-0.5 4.1,-0.7 0.9,-0.1 1.8,0 2.8,0.8 0.1,0.1 0.5,0.2 0.6,0.2 0.4,0 0.8,-0.3 1,-0.6 0.1,-0.1 0.1,-0.3 0,-0.5 -0.1,-0.2 -0.3,-0.4 -0.5,-0.6 -0.2,-0.3 -0.5,-0.5 -0.5,-0.8 0,-0.2 0.1,-0.4 0.2,-0.6 0.1,-0.2 0.1,-0.4 -0.1,-0.6 -0.6,-0.6 -1.7,-1.1 -2.1,-0.4 -0.7,0.6 -1.4,1.2 -2.5,1.5 -2.2,0.3 -4.4,0.7 -6.6,1.2 1.4,0.4 2.5,0.7 3.6,1.1 M 146,26 c -0.2,-0.1 -0.5,-0.2 -0.7,-0.3 -0.2,-0.2 -0.6,-0.3 -0.8,-0.5 -0.2,-0.2 -0.3,-0.4 -0.5,-0.6 -0.4,-0.4 -0.9,-0.3 -1.4,0 -0.3,0.2 -0.7,0.3 -0.9,0.6 -0.1,0.2 0,0.4 0.1,0.5 0.2,0.2 0.1,0.6 0,0.9 -0.1,0.2 -0.2,0.3 -0.3,0.4 -0.1,0.1 -0.3,0.3 -0.4,0.4 -0.2,0.2 -0.2,0.4 -0.1,0.5 0.1,0.2 0.3,0.3 0.5,0.5 0.4,0.2 0.9,0.2 1.5,-0.2 0.3,-0.1 0.5,-0.3 0.8,-0.4 0.6,-0.2 1.3,-0.3 1.8,-0.2 5.6,0.8 11.2,2.5 16.6,4.6 0.5,0.2 1.1,0.6 1.5,1 0.3,0.3 0.4,0.8 0.6,1.1 0.3,0.4 0.6,0.6 1,0.6 0.4,0 0.7,0 1.1,0 0.2,0 0.5,0 0.6,-0.1 0.1,-0.1 0,-0.3 0,-0.5 -0.1,-0.4 -0.1,-0.8 0.2,-1 0.2,-0.2 0.5,-0.3 0.8,-0.3 0.2,0 0.5,-0.1 0.5,-0.4 0,-0.3 -0.3,-0.8 -0.6,-1.1 -0.5,-0.6 -1,-0.5 -1.6,-0.5 -0.5,0 -0.9,0 -1.4,0.1 -1,0 -1.8,-0.2 -2.5,-0.6 -0.1,-0.1 -0.3,-0.1 -0.4,-0.2 -1.2,-0.4 -2.3,-0.9 -3.5,-1.3 -1.2,-0.4 -2.3,-0.8 -3.4,-1.1 -1.1,-0.3 -2.3,-0.6 -3.4,-0.9 -1.1,-0.3 -2.3,-0.5 -3.4,-0.7 -0.9,0 -1.6,-0.1 -2.3,-0.3 z m 3.2,2.9 c -1.5,0.5 -3,1 -4.5,1.5 -1,0.4 -3.1,0.7 -4.1,0.3 -0.7,-0.5 -3.1,2.3 -1.1,2.2 0.1,0 0.3,0.1 0.4,0.1 0.6,0.3 -0.1,1.4 0.4,1.7 0.3,0.2 0.8,0.1 1.2,0.1 0.4,0 0.9,-0.2 1.1,-0.5 0.1,-0.4 0.3,-0.7 0.6,-1 0.3,-0.4 0.7,-0.6 1.1,-0.8 0.7,-0.3 1.4,-0.6 2.2,-0.8 1,-0.4 2,-0.7 3.1,-1 0.5,-0.2 1,-0.3 1.5,-0.5 0.3,-0.1 0.5,-0.1 0.8,-0.2 0.1,0 0.3,-0.1 0.4,-0.1 0.1,0 0.3,-0.1 0.3,-0.1 -1.1,-0.4 -2.2,-0.7 -3.4,-0.9 z"
   id="path22" /> <path
   class="st6"
   d="m 147.9,18.4 c 0,-0.9 0.8,-1.7 1.9,-1.7 1,0 1.8,0.8 1.8,1.7 0,0.9 -0.8,1.7 -1.9,1.7 -1,0 -1.8,-0.8 -1.8,-1.7 z m 7.5,0 c 0,-0.9 0.8,-1.7 1.9,-1.7 1,0 1.8,0.8 1.8,1.7 0,0.9 -0.8,1.7 -1.9,1.7 -1,0 -1.8,-0.8 -1.8,-1.7 z m -9.2,-2.9 -0.1,8 c 0,0.8 0.7,1.4 1.5,1.4 h 11.8 c 0.8,0 1.5,-0.6 1.5,-1.4 l 0.1,-8 c 0,-0.8 -0.7,-1.4 -1.5,-1.4 h -11.8 c -0.8,0 -1.5,0.7 -1.5,1.4 z"
   id="path23" /> <path
   class="st6"
   d="m 163.4,19.4 c 0,1 -0.9,1.9 -2,2.1 l 0.1,-4.1 c 1,0.1 1.9,1 1.9,2 z"
   id="path24" /> <g
   id="g27"> <g
   id="g25"> <defs
   id="defs24"> <rect
   id="SVGID_1_"
   x="119"
   y="5.1999998"
   width="54.799999"
   height="55.200001" /> </defs> <clipPath
   id="SVGID_2_"> <use
   xlink:href="#SVGID_1_"
   style="overflow:visible"
   id="use24" /> </clipPath> <path
   class="st7"
   d="m 145.8,17.5 -0.1,4.1 c -1.1,-0.1 -1.9,-1 -1.9,-2 0,-1.1 0.9,-2 2,-2.1 z"
   clip-path="url(#SVGID_2_)"
   id="path25" /> </g> <g
   id="g26"> <defs
   id="defs25"> <rect
   id="SVGID_3_"
   x="119"
   y="5.1999998"
   width="54.799999"
   height="55.200001" /> </defs> <clipPath
   id="SVGID_4_"> <use
   xlink:href="#SVGID_3_"
   style="overflow:visible"
   id="use25" /> </clipPath> <polygon
   class="st8"
   points="121,31.7 128.2,28.1 126.5,50 133,22.7 125.6,25.9 128,5.2 "
   clip-path="url(#SVGID_4_)"
   id="polygon25" /> </g> </g> </g> </svg>
